<svg width="240" height="51" viewBox="0 0 240 51" fill="none" xmlns="http://www.w3.org/2000/svg">
<path d="M4.87491 36.1015L1.75665 31.2089L0.0299424 11.6385C1.53454 8.85243 6.78807 3.11722 15.7654 2.46487C26.987 1.64943 32.1777 0.824606 45.0738 1.02846C57.9699 1.23232 189.682 1.43794 194.219 1.43794C198.757 1.43794 221.232 0.826533 227.211 3.88424C231.994 6.33041 236.385 11.0192 237.983 13.0579C237.506 13.4655 236.841 14.7294 237.992 16.5233C239.144 18.3173 239.756 21.0762 239.919 22.2314C239.284 22.9109 238.015 24.4331 238.016 25.0854C238.019 25.9008 233.721 26.1047 235.873 27.124C237.595 27.9394 238.031 30.3178 238.034 31.405C236.365 32.4243 232.264 34.5037 229.208 34.6667C226.151 34.8298 223.479 35.5501 222.524 35.8899L222.529 37.5209C223.963 37.7927 226.544 38.4177 225.398 38.7439C223.966 39.1516 222.531 38.1323 221.338 38.7439C220.146 39.3555 218.478 40.5786 219.912 40.9864C220.353 41.3621 220.784 41.5494 221.171 41.6223C221.644 41.5247 222.157 41.4444 222.54 41.3941C222.295 41.5615 221.791 41.7393 221.171 41.6223C220.367 41.7882 219.674 42.0042 219.915 42.2095C220.298 42.5357 221.828 43.0249 222.545 43.2288L223.743 44.452H219.922C217.82 44.452 218.253 45.6751 218.733 46.2867C218.176 46.4226 216.728 46.6129 215.39 46.2867C213.717 45.879 214.435 46.4905 211.57 46.6944C209.278 46.8575 196.814 46.7623 192.914 46.6944C193.231 46.4226 193.437 45.879 191.717 45.879C189.568 45.879 188.307 45.879 185.681 46.2867C183.056 46.6944 47.5881 45.8772 39.4686 45.8772C32.9731 45.8772 41.2273 44.8673 40.0333 44.8673C36.2939 45.5468 23.3411 46.8651 17.8003 46.702C10.8743 46.4982 4.89843 44.4596 4.89785 44.2557C4.89739 44.0926 3.62058 42.9646 2.98224 42.421C3.62001 42.7608 4.89498 43.2364 4.89269 42.421C4.89039 41.6056 3.61007 39.2272 2.97019 38.14L4.87491 36.1015Z" fill="#FDA3C4"/>
<path d="M9.44493 47.7213C8.68075 47.7213 8.6512 48.5367 8.73195 48.9445L7.18028 49.1483C6.42597 49.8278 5.06052 51.1461 5.6332 50.983C6.20588 50.82 7.30313 50.3715 7.78017 50.1676C8.09781 49.8958 10.2615 49.3522 16.3749 49.3522C24.0167 49.3522 23.2992 48.9445 24.0156 48.9445C24.732 48.9445 10.4002 47.7213 9.44493 47.7213Z" fill="#FDA3C4"/>
<path d="M42.3139 33.3116C42.1739 33.3112 42.034 33.3061 41.894 33.2963C41.7633 33.2959 41.628 33.2909 41.488 33.2811C41.2361 33.2617 41.0543 33.1865 40.9427 33.0555C40.8311 32.9338 40.7711 32.7377 40.7626 32.467C40.719 31.4868 40.6799 30.5487 40.6454 29.6526C40.6202 28.7659 40.6091 27.8278 40.6122 26.8385L40.6464 24.8646L40.6627 24.1366C40.6646 23.5113 40.6526 22.8906 40.6265 22.2745C40.6005 21.6491 40.5884 21.0237 40.5904 20.3984L40.5922 19.8244C40.6122 19.3951 40.6182 18.9658 40.6102 18.5365C40.6022 18.1071 40.6222 17.6778 40.6703 17.2486L40.6705 17.1646C40.6711 16.9873 40.5594 16.8936 40.3354 16.8836L40.0694 16.8828C39.6587 16.8816 39.248 16.8991 38.8372 16.9352C38.4358 16.962 38.0298 16.9748 37.6191 16.9736L36.4151 16.984C36.1911 16.9834 36.0741 17.0903 36.0641 17.305C36.0638 17.3796 36.0589 17.4496 36.0494 17.5149C36.0399 17.5709 36.035 17.6316 36.0348 17.6969L36.0125 20.3568C36.0113 20.7302 36.0102 21.0988 36.009 21.4628C36.0079 21.8268 36.0161 22.1955 36.0336 22.5689C36.0421 22.8209 36.0507 23.073 36.0592 23.325C36.0677 23.577 36.0716 23.829 36.0708 24.081L36.0549 24.697C36.0354 24.9489 36.0253 25.2009 36.0245 25.4529C36.0238 25.6956 36.023 25.9429 36.0222 26.1949C36.0212 26.5309 36.0201 26.8576 36.0191 27.1749C36.0275 27.4829 36.0359 27.7863 36.0443 28.085C36.0527 28.3837 36.0564 28.6917 36.0554 29.009C36.0638 29.317 36.0674 29.639 36.0664 29.975L36.0654 30.297C36.0644 30.5957 36.0775 30.8991 36.1045 31.2072C36.1409 31.5153 36.1586 31.828 36.1576 32.1453L36.1572 32.2573C36.1469 32.5653 36.0856 32.7844 35.9731 32.9148C35.8701 33.0451 35.6644 33.1379 35.3563 33.193C35.1228 33.2296 34.8894 33.2522 34.6561 33.2609C34.4227 33.2789 34.1846 33.2875 33.942 33.2868L33.242 33.2707C32.9434 33.2511 32.7336 33.1805 32.6127 33.0588C32.5011 32.9372 32.4364 32.727 32.4187 32.4282C32.3664 31.2334 32.3233 30.0853 32.2894 28.9838C32.2556 27.8824 32.2405 26.7344 32.2442 25.5397L32.2649 18.9317C32.2661 18.5584 32.2719 18.1897 32.2824 17.8258C32.2929 17.4525 32.3221 17.0792 32.3699 16.706C32.3891 16.5381 32.4176 16.3982 32.4552 16.2863C32.4929 16.1744 32.5445 16.0859 32.6101 16.0207C32.685 15.9463 32.7785 15.8906 32.8906 15.8536C33.012 15.8166 33.1568 15.789 33.3249 15.7709C33.633 15.7251 33.9411 15.698 34.2491 15.6896C34.5571 15.6812 34.8698 15.6774 35.1872 15.6784L36.5871 15.6965C36.7738 15.6971 36.9558 15.6976 37.1331 15.6981C37.3198 15.6987 37.5065 15.6899 37.6932 15.6718C38.0479 15.6542 38.4026 15.6366 38.7574 15.619C39.1214 15.6014 39.4808 15.5931 39.8354 15.5941L40.0874 15.5949C40.6941 15.606 41.2913 15.6265 41.8793 15.6562C42.4765 15.6766 43.0738 15.7064 43.671 15.7455C43.9603 15.765 44.1654 15.8356 44.2863 15.9573C44.4166 16.0697 44.4814 16.2566 44.4806 16.5179L44.466 16.6999C44.4178 17.1944 44.3836 17.6843 44.3634 18.1696C44.3525 18.6549 44.3463 19.1449 44.3448 19.6395C44.3432 20.1342 44.3464 20.6242 44.3542 21.1096C44.362 21.5949 44.3745 22.085 44.3916 22.5797L44.4028 23.4617C44.4012 23.9844 44.3902 24.5023 44.3699 25.0156C44.359 25.5289 44.3527 26.0422 44.3511 26.5556L44.3749 27.8856C44.3832 28.2403 44.3914 28.581 44.3997 28.9077C44.4081 29.2344 44.4117 29.5564 44.4107 29.8738C44.419 30.2005 44.4274 30.5225 44.4357 30.8398C44.4533 31.1666 44.4756 31.5073 44.5025 31.862L44.5007 32.422C44.4907 32.6553 44.4341 32.8278 44.3311 32.9395C44.2281 33.0606 44.0645 33.1441 43.8403 33.1901C43.3361 33.2726 42.8273 33.3131 42.3139 33.3116ZM50.6548 25.7062C50.7108 25.7064 50.7715 25.7019 50.8368 25.6928C50.9115 25.6837 50.9956 25.6699 51.089 25.6515C51.117 25.6516 51.145 25.647 51.173 25.6378C51.201 25.6285 51.2244 25.6193 51.2431 25.61C51.7475 25.4901 52.1215 25.2673 52.3652 24.9413C52.6182 24.6154 52.7781 24.2145 52.845 23.7387C52.8925 23.4682 52.926 23.2116 52.9454 22.969C52.9742 22.7171 52.9981 22.5258 53.0172 22.3952C53.0267 22.3486 53.0315 22.3019 53.0316 22.2553C53.0318 22.2086 53.0319 22.1619 53.0321 22.1153C53.0323 22.0219 53.0279 21.9379 53.0188 21.8632C53.0191 21.7792 53.0193 21.7046 53.0195 21.6392C52.9762 20.5844 52.7927 19.5619 52.4692 18.5716C52.3397 18.1792 52.1447 17.866 51.8841 17.6319C51.6235 17.3884 51.3115 17.1962 50.9479 17.0551C50.8733 17.0362 50.7987 17.022 50.724 17.0124C50.6494 16.9935 50.5748 16.9746 50.5002 16.9557L50.3883 16.9414C50.2296 16.9409 50.15 17.0294 50.1494 17.2067L50.1615 17.8087C50.1782 18.4528 50.1902 19.0828 50.1976 19.6989C50.2144 20.3056 50.2313 20.8516 50.2485 21.337C50.2471 21.785 50.2454 22.331 50.2433 22.975C50.2414 23.6097 50.244 24.2677 50.2512 24.949C50.2503 25.2384 50.273 25.4391 50.3193 25.5512C50.3656 25.6541 50.4775 25.7057 50.6548 25.7062ZM47.4529 33.3128C47.4063 33.3127 47.355 33.3078 47.299 33.2983C47.2523 33.2982 47.2057 33.2934 47.159 33.2839C46.646 33.1984 46.3856 32.8943 46.3779 32.3716C46.3518 31.7742 46.335 31.1535 46.3277 30.5094C46.3204 29.8748 46.313 29.2354 46.3057 28.5914C46.3077 27.9474 46.3098 27.308 46.3117 26.6734C46.3138 26.0294 46.3157 25.4134 46.3175 24.8254L46.3238 22.8234C46.3253 22.3474 46.3221 21.8807 46.3142 21.4234C46.3157 20.9567 46.3078 20.49 46.2906 20.0233C46.2735 19.5099 46.2611 18.9965 46.2534 18.4832C46.255 17.9698 46.2473 17.4565 46.2302 16.9431L46.2309 16.7191C46.2415 16.3271 46.317 16.0567 46.4575 15.9078C46.6073 15.7495 46.8783 15.657 47.2703 15.6302L47.8024 15.6177L48.8383 15.6348L49.9583 15.6381L50.5182 15.6678C51.3113 15.7635 51.9778 16.0175 52.5179 16.4297C53.0672 16.842 53.4667 17.4405 53.7162 18.2253C54.0767 19.3557 54.2831 20.5043 54.3355 21.6711L54.3351 21.7971C54.3348 21.8718 54.3345 21.9838 54.334 22.1331C54.3336 22.2731 54.3236 22.4644 54.3042 22.707C54.285 22.8937 54.2563 23.1176 54.2181 23.3788C54.1799 23.64 54.1371 23.9059 54.0896 24.1764C54.0232 24.5216 53.9055 24.8619 53.7364 25.1974C53.5767 25.5236 53.3565 25.8169 53.0756 26.0774C52.8042 26.3379 52.4722 26.5516 52.0796 26.7185C51.6871 26.876 51.2342 26.9586 50.7208 26.9664C50.5342 26.9659 50.4175 26.9795 50.3707 27.0074C50.324 27.0353 50.3004 27.1192 50.2999 27.2592L50.2965 28.3652C50.2954 28.6919 50.2897 29.0232 50.2793 29.3591C50.2783 29.6951 50.2772 30.0311 50.2762 30.3671C50.2757 30.5165 50.2752 30.6658 50.2748 30.8151C50.2743 30.9645 50.2785 31.1138 50.2874 31.2632L50.3394 32.5233C50.3383 32.8873 50.1509 33.1155 49.7773 33.2077C49.7026 33.2261 49.6279 33.2352 49.5532 33.235C49.4878 33.2442 49.4178 33.2533 49.3431 33.2624C49.0444 33.2802 48.7457 33.2886 48.447 33.2877C48.1483 33.2962 47.8496 33.3046 47.5509 33.3131L47.4529 33.3128ZM61.334 31.9679C61.5393 31.9685 61.7217 31.8291 61.8813 31.5495C61.947 31.4284 61.9987 31.3072 62.0364 31.186C62.0834 31.0741 62.1305 30.9529 62.1776 30.8224C62.5168 29.7781 62.7675 28.7241 62.9295 27.6606C63.1008 26.5971 63.2069 25.5101 63.2477 24.3995L63.248 24.3015C63.2516 23.1349 63.1478 22.0146 62.9365 20.9406C62.7346 19.8573 62.458 18.7785 62.1067 17.7041C62.0881 17.6574 62.0696 17.6154 62.0511 17.578C62.0325 17.5406 62.014 17.4985 61.9954 17.4518C61.8376 17.1993 61.628 17.0727 61.3666 17.0719C61.264 17.0716 61.1565 17.0993 61.0444 17.155C60.9416 17.2014 60.8527 17.2758 60.7777 17.3782C60.6183 17.5924 60.4963 17.816 60.4116 18.0491C60.3268 18.2822 60.2514 18.52 60.1853 18.7625C59.9868 19.5552 59.849 20.3528 59.7718 21.1552C59.6947 21.9483 59.6315 22.7555 59.5822 23.5767C59.563 23.7633 59.5531 23.9499 59.5525 24.1366C59.5519 24.3233 59.5513 24.5099 59.5507 24.6966C59.5474 25.7699 59.6188 26.8015 59.765 27.7912C59.9113 28.781 60.1229 29.7663 60.3998 30.7471C60.4459 30.9059 60.4968 31.0554 60.5524 31.1956C60.6079 31.3451 60.6868 31.4853 60.7891 31.6163C60.9657 31.8502 61.1473 31.9674 61.334 31.9679ZM58.8517 33.3186C58.637 33.3179 58.4459 33.266 58.2782 33.1629C58.1198 33.0691 57.9662 32.9519 57.8173 32.8115C57.5754 32.5774 57.3848 32.3202 57.2457 32.0398C57.1159 31.7594 57.0048 31.4651 56.9125 31.1568C56.6078 30.0919 56.3778 29.0272 56.2225 27.9627C56.0765 26.889 56.0053 25.7781 56.0089 24.6301C56.0103 24.1821 56.0258 23.7248 56.0552 23.2582C56.1045 22.4277 56.1771 21.6113 56.2729 20.8089C56.3688 19.9971 56.516 19.1902 56.7145 18.3882C56.9318 17.5581 57.3074 16.8359 57.8413 16.2215C57.9537 16.0818 58.0754 15.9702 58.2063 15.8866C58.3373 15.803 58.4961 15.7521 58.6828 15.734C58.9349 15.7161 59.1869 15.6981 59.439 15.6802C59.691 15.6623 59.9477 15.6537 60.2091 15.6545C60.5077 15.6554 60.8017 15.6749 61.0909 15.7131C61.3801 15.742 61.6693 15.7988 61.9584 15.8837C62.322 15.9874 62.6155 16.161 62.8387 16.4043C63.062 16.6476 63.229 16.9468 63.3399 17.3018C63.5987 18.1239 63.8248 18.9506 64.0182 19.7818C64.2209 20.6037 64.3629 21.4488 64.4442 22.3171C64.4713 22.5972 64.4938 22.8772 64.5116 23.1573C64.5387 23.428 64.5519 23.6987 64.551 23.9694L64.5501 24.2774C64.4996 25.4999 64.3838 26.6896 64.2029 27.8464C64.0313 28.9939 63.7617 30.1271 63.3942 31.246C63.3471 31.4045 63.2953 31.5537 63.2388 31.6936C63.1824 31.8427 63.1166 31.9872 63.0415 32.127C62.7314 32.7794 62.2076 33.1558 61.4699 33.2563C61.2365 33.293 61.0031 33.3156 60.7697 33.3242C60.5457 33.3329 60.317 33.3369 60.0837 33.3362L58.8517 33.3186ZM71.0797 15.6587C71.3317 15.6595 71.5836 15.6742 71.8355 15.703C72.0875 15.7224 72.3347 15.7511 72.5773 15.7892C73.0438 15.8465 73.4119 16.025 73.6816 16.3244C73.9607 16.6239 74.1649 16.9885 74.2942 17.4182C74.4051 17.7732 74.4786 18.1328 74.5148 18.4969C74.5603 18.8517 74.5919 19.2111 74.6094 19.5752L74.8347 23.6219C74.8528 23.7993 74.8613 24.0746 74.8601 24.448C74.859 24.812 74.8579 25.1759 74.8567 25.5399C74.8558 25.8386 74.855 26.1046 74.8542 26.3379C74.8535 26.5619 74.8484 26.7066 74.8389 26.7719C74.7981 27.8825 74.7435 28.895 74.6753 29.8094C74.6165 30.7239 74.5437 31.6197 74.4569 32.4968C74.4187 32.7953 74.334 33.0051 74.203 33.126C74.0719 33.247 73.8524 33.3163 73.5443 33.3341C73.3016 33.352 73.0542 33.3653 72.8022 33.3739C72.5594 33.3918 72.3168 33.4005 72.0741 33.3997C71.9808 33.3995 71.8921 33.3992 71.8081 33.3989C71.7241 33.3987 71.6354 33.3938 71.5421 33.3842C71.2156 33.3552 70.9871 33.2845 70.8568 33.1721C70.7358 33.0691 70.6757 32.8776 70.6766 32.5976L70.6913 32.3736C70.73 31.9351 70.7687 31.5012 70.8074 31.072C70.8461 30.6428 70.8801 30.2042 70.9095 29.7563C70.9486 29.1964 70.983 28.6412 71.0127 28.0906C71.0425 27.5307 71.0722 26.9707 71.102 26.4108L71.1028 26.1588C71.1032 26.0095 71.0992 25.8228 71.0905 25.5988C71.0913 25.3655 71.0873 25.1321 71.0787 24.8988C71.0795 24.6561 71.0755 24.4274 71.0669 24.2127C71.0676 23.9887 71.0635 23.8114 71.0545 23.6807C71.0101 22.9712 70.9703 22.2664 70.9352 21.5663C70.9 20.8569 70.8603 20.1381 70.8159 19.4099C70.7979 19.2139 70.7751 19.0178 70.7478 18.8217C70.7297 18.6257 70.707 18.4296 70.6796 18.2335C70.6705 18.1588 70.6567 18.0888 70.6383 18.0234C70.6198 17.9487 70.6014 17.874 70.583 17.7993C70.5275 17.6404 70.4486 17.5002 70.3463 17.3785C70.2534 17.2476 70.1229 17.1679 69.955 17.1394L69.8571 17.1251C69.7077 17.1247 69.5816 17.1756 69.4786 17.278C69.3849 17.3804 69.2959 17.4968 69.2115 17.6272C68.9864 17.9812 68.8125 18.354 68.69 18.7456C68.5674 19.1373 68.4542 19.5336 68.3503 19.9346C68.1611 20.7368 68.0279 21.5344 67.9508 22.3275C67.8736 23.1206 67.8244 23.9231 67.8032 24.735C67.8028 24.8564 67.8025 24.9777 67.8021 25.099C67.8017 25.211 67.792 25.3277 67.773 25.449C67.7059 25.9901 67.6576 26.536 67.6278 27.0865C67.5981 27.6371 67.5777 28.1924 67.5666 28.7524C67.5556 29.303 67.5491 29.863 67.5474 30.4323C67.5456 31.0016 67.5391 31.5803 67.5279 32.1683C67.5276 32.2709 67.5226 32.3689 67.513 32.4622C67.5127 32.5649 67.503 32.6675 67.484 32.7701C67.4368 32.9567 67.357 33.0964 67.2447 33.1894C67.1417 33.2918 67.0109 33.3427 66.8522 33.3423L66.7682 33.342C66.3951 33.2942 66.2091 33.0557 66.2105 32.6264C66.2216 32.0571 66.2326 31.5204 66.2435 31.0165C66.2544 30.5218 66.2606 30.0318 66.2621 29.5465C66.2737 28.8372 66.2946 28.1326 66.3248 27.4327C66.355 26.7234 66.4085 26.0143 66.4854 25.3051C66.5336 24.82 66.5584 24.3394 66.5599 23.8634C66.5708 23.3781 66.6003 22.8881 66.6485 22.3936C66.7254 21.6938 66.8256 20.9988 66.9491 20.3085C67.0819 19.6182 67.2614 18.9374 67.4875 18.2661C67.5723 18.005 67.6757 17.758 67.7978 17.525C67.9199 17.2827 68.0513 17.0451 68.192 16.8122C68.3609 16.5233 68.5716 16.3046 68.8241 16.156C69.0859 15.9981 69.371 15.8823 69.6792 15.8086C69.9127 15.7533 70.1415 15.7166 70.3655 15.6986C70.599 15.6713 70.837 15.658 71.0797 15.6587ZM81.869 32.0288C82.0744 32.0294 82.2568 31.8899 82.4163 31.6104C82.4821 31.4892 82.5338 31.3681 82.5715 31.2468C82.6185 31.135 82.6655 31.0138 82.7126 30.8832C83.0519 29.8389 83.3025 28.785 83.4645 27.7215C83.6359 26.658 83.7419 25.5709 83.7827 24.4604L83.7831 24.3624C83.7867 23.1957 83.6829 22.0754 83.4716 21.0015C83.2696 19.9182 82.993 18.8394 82.6417 17.765C82.6232 17.7183 82.6047 17.6762 82.5861 17.6388C82.5676 17.6014 82.549 17.5594 82.5305 17.5126C82.3726 17.2602 82.163 17.1336 81.9017 17.1328C81.799 17.1325 81.6916 17.1602 81.5794 17.2158C81.4766 17.2622 81.3877 17.3366 81.3127 17.439C81.1534 17.6532 81.0314 17.8769 80.9466 18.11C80.8619 18.343 80.7865 18.5808 80.7204 18.8233C80.5219 19.616 80.3841 20.4136 80.3069 21.2161C80.2297 22.0092 80.1665 22.8163 80.1173 23.6375C80.0981 23.8241 80.0881 24.0108 80.0876 24.1974C80.087 24.3841 80.0864 24.5708 80.0858 24.7574C80.0824 25.8308 80.1539 26.8623 80.3001 27.8521C80.4463 28.8419 80.6579 29.8272 80.9348 30.808C80.981 30.9668 81.0319 31.1163 81.0874 31.2564C81.143 31.4059 81.2219 31.5462 81.3241 31.6771C81.5007 31.911 81.6824 32.0282 81.869 32.0288ZM79.3868 33.3794C79.1721 33.3788 78.9809 33.3269 78.8133 33.2237C78.6549 33.1299 78.5013 33.0128 78.3524 32.8723C78.1104 32.6383 77.9199 32.3811 77.7808 32.1006C77.651 31.8203 77.5399 31.5259 77.4475 31.2176C77.1429 30.1527 76.9129 29.0881 76.7575 28.0236C76.6116 26.9498 76.5404 25.8389 76.544 24.6909C76.5454 24.2429 76.5608 23.7857 76.5903 23.3191C76.6396 22.4886 76.7121 21.6721 76.808 20.8697C76.9038 20.058 77.051 19.2511 77.2496 18.449C77.4668 17.619 77.8424 16.8968 78.3763 16.2823C78.4888 16.1427 78.6105 16.031 78.7414 15.9474C78.8723 15.8638 79.0312 15.8129 79.2179 15.7948C79.4699 15.7769 79.722 15.759 79.974 15.7411C80.2261 15.7231 80.4828 15.7146 80.7441 15.7153C81.0428 15.7162 81.3367 15.7358 81.626 15.774C81.9152 15.8028 82.2044 15.8597 82.4934 15.9445C82.8571 16.0483 83.1506 16.2218 83.3738 16.4651C83.597 16.7085 83.7641 17.0076 83.875 17.3626C84.1337 18.1847 84.3598 19.0114 84.5532 19.8427C84.756 20.6646 84.898 21.5097 84.9793 22.3779C85.0064 22.658 85.0289 22.9381 85.0466 23.2181C85.0738 23.4889 85.0869 23.7596 85.0861 24.0302L85.0851 24.3382C85.0346 25.5608 84.9189 26.7504 84.738 27.9072C84.5664 29.0547 84.2968 30.1879 83.9293 31.3069C83.8821 31.4654 83.8303 31.6146 83.7739 31.7544C83.7174 31.9036 83.6516 32.048 83.5765 32.1878C83.2665 32.8402 82.7426 33.2167 82.005 33.3172C81.7715 33.3538 81.5381 33.3764 81.3048 33.3851C81.0807 33.3938 80.8521 33.3977 80.6187 33.3971L79.3868 33.3794ZM92.506 30.6463C92.5144 30.9356 92.5275 31.2343 92.5452 31.5424C92.563 31.7944 92.5716 32.0511 92.5707 32.3125L92.5694 32.7325C92.5491 33.2551 92.4175 33.5533 92.1746 33.6273C92.0438 33.6642 91.9084 33.6965 91.7683 33.7241C91.6376 33.7517 91.5022 33.7746 91.3621 33.7929C91.3154 33.8021 91.2641 33.7973 91.2081 33.7784C91.1615 33.7596 91.1149 33.7408 91.0683 33.722C90.9006 33.6375 90.808 33.3946 90.7906 32.9932L90.7156 30.109C90.1338 31.1152 89.5426 32.1308 88.9421 33.1557C88.7356 33.5098 88.4739 33.6397 88.1569 33.5454C88.073 33.5078 87.9891 33.4702 87.9052 33.4326C87.8213 33.4044 87.7374 33.3621 87.6536 33.3059C87.4487 33.156 87.2439 32.9967 87.0391 32.8281C86.8343 32.6595 86.6342 32.4909 86.4387 32.3223C86.085 32.0039 86.0163 31.5977 86.2325 31.1037L86.4298 30.6983C86.5519 30.456 86.6879 30.223 86.838 29.9995C87.1194 29.5523 87.3961 29.1098 87.6681 28.6719C87.9402 28.2341 88.1983 27.7822 88.4424 27.3162L88.8649 26.5055C88.987 26.2818 89.0996 26.0675 89.2029 25.8625L89.3579 25.5549C89.098 25.1061 88.8427 24.648 88.5922 24.1806C88.323 23.7038 88.0493 23.199 87.771 22.6662C87.4184 21.9931 87.0518 21.3387 86.6711 20.7029C86.2998 20.0578 85.9285 19.3987 85.5573 18.7256C85.3438 18.3423 85.2608 18.0387 85.3081 17.8149C85.3555 17.591 85.5429 17.3722 85.8702 17.1585L87.4411 16.2392C87.7029 16.1 87.913 16.0539 88.0715 16.1011C88.2394 16.1482 88.4022 16.3074 88.56 16.5785L88.769 16.9151C88.9732 17.2704 89.1774 17.621 89.3817 17.9669C89.5953 18.3036 89.7996 18.6449 89.9945 18.9908C90.0502 19.0843 90.1384 19.2385 90.259 19.4536C90.3704 19.6592 90.5003 19.9023 90.6487 20.1827L90.652 19.1467C90.6449 18.4187 90.6426 17.6813 90.6449 16.9347C90.6463 16.5054 90.6845 16.2068 90.7597 16.039C90.835 15.8619 90.9659 15.7643 91.1527 15.7462L92.0208 15.6928C92.1701 15.7025 92.2726 15.7635 92.3283 15.8757C92.3839 15.9878 92.4112 16.1979 92.4103 16.5059L92.409 16.8979C92.4171 17.2993 92.4205 17.696 92.4193 18.0879C92.4275 18.4706 92.4356 18.858 92.4437 19.25L92.4428 19.544L92.6259 19.1806C92.7293 18.9569 92.8044 18.7984 92.8514 18.7052C93.0392 18.3418 93.2317 17.983 93.4288 17.6289C93.6259 17.2655 93.8231 16.8974 94.0202 16.5247L94.2033 16.1752C94.3535 15.8957 94.4987 15.7328 94.6389 15.6865C94.7884 15.631 94.9796 15.6735 95.2125 15.8142L96.5815 16.7563C96.8702 16.9718 97.0328 17.1963 97.0694 17.4297C97.106 17.6632 97.021 17.9802 96.8144 18.381C96.4669 19.0799 96.1147 19.7649 95.758 20.4359C95.4106 21.0975 95.0724 21.7825 94.7435 22.4909C94.4804 23.0501 94.2268 23.5767 93.9826 24.0706C93.7948 24.4341 93.6116 24.7928 93.4332 25.147C93.5075 25.2592 93.5819 25.3668 93.6562 25.4696C93.7027 25.5351 93.7816 25.666 93.893 25.8623C94.0044 26.0493 94.1204 26.2504 94.2411 26.4654L94.7006 27.2507C94.9605 27.6995 95.2345 28.1343 95.5225 28.5552C95.8199 28.9667 96.1173 29.3876 96.4146 29.8178C96.5726 30.033 96.7212 30.2527 96.8605 30.4772L97.0693 30.8698C97.3011 31.3465 97.2112 31.7382 96.7996 32.045C96.5751 32.2123 96.3459 32.375 96.1121 32.533C95.8782 32.7003 95.6397 32.8582 95.3966 33.0068C95.3124 33.0626 95.2189 33.1043 95.1162 33.132C95.0227 33.1691 94.9246 33.2061 94.8218 33.2431C94.4669 33.3447 94.1779 33.2226 93.955 32.8766C93.4627 32.1284 92.9797 31.385 92.506 30.6463ZM103.085 33.4636C102.871 33.4536 102.708 33.3925 102.596 33.2802C102.484 33.1772 102.429 33.0323 102.429 32.8457L102.458 32.6358C102.496 32.4772 102.515 32.3186 102.515 32.1599C102.525 32.0013 102.54 31.8427 102.559 31.684C102.578 31.4881 102.593 31.2081 102.604 30.8442C102.623 30.4802 102.639 30.0789 102.649 29.6403C102.669 29.211 102.68 28.7677 102.681 28.3104C102.692 27.8438 102.698 27.4144 102.7 27.0224C102.71 26.6211 102.716 26.2758 102.717 25.9865C102.727 25.6972 102.732 25.5105 102.733 25.4265C102.734 24.9972 102.731 24.5445 102.723 24.0685C102.715 23.5831 102.712 23.0885 102.713 22.5845L102.715 22.2205C102.715 22.1645 102.696 22.1317 102.659 22.1223C102.612 22.1595 102.579 22.2061 102.56 22.262C102.551 22.3087 102.537 22.3599 102.518 22.4159C102.329 23.0967 102.14 23.7774 101.952 24.4582C101.763 25.139 101.565 25.8197 101.357 26.5005C101.084 27.405 100.829 28.3049 100.593 29.2002C100.357 30.0955 100.065 30.944 99.7167 31.7456C99.6227 31.96 99.5334 32.1698 99.4487 32.3748C99.3641 32.5799 99.2701 32.7803 99.1669 32.976C99.0166 33.2836 98.7967 33.4369 98.5074 33.4361L98.2975 33.4074C97.8964 33.3222 97.6826 33.0509 97.656 32.5935C97.6562 32.5375 97.6564 32.4815 97.6566 32.4255C97.6661 32.3696 97.6756 32.3136 97.6851 32.2576C97.7444 31.2124 97.813 30.1486 97.8911 29.0662C97.9785 27.9745 98.066 26.8734 98.1535 25.763C98.2312 24.7739 98.2856 23.794 98.3167 22.8234C98.3477 21.8435 98.3648 20.8589 98.3679 19.8696C98.3691 19.4869 98.3703 19.1089 98.3715 18.7356C98.3726 18.3623 98.3691 18.0029 98.3609 17.6576L98.3507 16.4255C98.3606 16.2389 98.4171 16.0944 98.5201 15.992C98.6324 15.8803 98.7726 15.8154 98.9407 15.7973L98.9687 15.7973C99.1274 15.7978 99.2625 15.8449 99.3742 15.9385C99.486 16.0322 99.5602 16.1678 99.597 16.3452C99.6153 16.4386 99.6244 16.532 99.6241 16.6253C99.6238 16.7186 99.6282 16.812 99.6372 16.9053C99.6551 17.148 99.6636 17.4094 99.6628 17.6894C99.6712 17.9601 99.675 18.2354 99.6742 18.5154L99.6523 21.0354C99.6489 22.1087 99.6129 23.1726 99.5443 24.2271C99.4756 25.2816 99.4023 26.3407 99.3243 27.4044C99.3052 27.5351 99.2908 27.6703 99.281 27.8103C99.2713 27.941 99.2662 28.0763 99.2658 28.2163C99.2655 28.3003 99.2699 28.389 99.2789 28.4823C99.288 28.5663 99.3017 28.6551 99.3201 28.7484C99.3483 28.6739 99.3766 28.6039 99.4048 28.5387C99.433 28.4734 99.4565 28.4035 99.4754 28.3289C99.6358 27.788 99.7915 27.2518 99.9425 26.7203C100.103 26.1887 100.258 25.6525 100.41 25.1117C100.815 23.6662 101.217 22.2347 101.613 20.8172C102.019 19.3904 102.331 17.9493 102.551 16.494C102.579 16.2794 102.645 16.1209 102.748 16.0185C102.86 15.9162 103.033 15.8561 103.267 15.8381C103.537 15.8202 103.803 15.807 104.065 15.7984C104.326 15.7899 104.592 15.786 104.863 15.7868C105.255 15.788 105.637 15.8031 106.011 15.8322C106.235 15.8515 106.407 15.9267 106.528 16.0577C106.658 16.1888 106.723 16.3617 106.722 16.5763L106.721 16.8983C106.721 17.1316 106.724 17.365 106.733 17.5984C106.742 17.8224 106.746 18.0511 106.745 18.2844L106.744 18.5644C106.724 18.9843 106.713 19.4183 106.712 19.8663C106.711 20.3143 106.709 20.767 106.708 21.2243C106.706 21.7283 106.705 22.2276 106.703 22.7223C106.711 23.2076 106.723 23.7024 106.74 24.2064L106.752 24.8644L106.752 25.0884C106.751 25.2471 106.746 25.4664 106.736 25.7464C106.735 26.0171 106.729 26.3204 106.719 26.6564C106.708 26.9923 106.698 27.3516 106.687 27.7343C106.677 28.1076 106.666 28.4762 106.656 28.8402C106.655 29.1948 106.649 29.5308 106.639 29.8481C106.628 30.1748 106.623 30.4501 106.622 30.6741C106.621 30.9634 106.606 31.248 106.577 31.528C106.549 31.8172 106.524 32.1065 106.505 32.3957C106.504 32.5637 106.476 32.7317 106.419 32.8995C106.315 33.2539 106.081 33.4305 105.717 33.4294C105.279 33.4374 104.84 33.4455 104.401 33.4535C103.972 33.4616 103.533 33.4649 103.085 33.4636ZM111.878 33.5457C111.682 33.5451 111.486 33.5352 111.29 33.5159C111.103 33.506 110.912 33.4821 110.716 33.4442C110.502 33.3969 110.348 33.3171 110.255 33.2049C110.171 33.1019 110.12 32.9338 110.102 32.7004C110.022 31.6082 109.955 30.5206 109.903 29.4378C109.859 28.3643 109.839 27.2769 109.843 26.1756L109.86 25.0977C109.882 24.1364 109.894 23.1797 109.897 22.2277C109.91 21.2664 109.941 20.2959 109.99 19.316C110.01 18.9987 110.03 18.6908 110.049 18.3922C110.078 18.0843 110.112 17.8044 110.15 17.5525L110.15 17.4965C110.15 17.3751 110.123 17.2864 110.067 17.2302C110.02 17.1741 109.932 17.1365 109.801 17.1174C109.559 17.0887 109.321 17.074 109.087 17.0733C109.003 17.0731 108.915 17.0728 108.821 17.0725C108.737 17.0723 108.653 17.0767 108.569 17.0858C108.485 17.0762 108.401 17.0713 108.317 17.071C108.233 17.0708 108.154 17.0612 108.079 17.0423C107.94 17.0046 107.828 16.9343 107.744 16.8313C107.66 16.7284 107.619 16.607 107.619 16.467L107.619 16.425C107.62 16.173 107.751 15.982 108.013 15.8521C108.135 15.8058 108.261 15.7829 108.391 15.7833L108.559 15.7978C109.521 15.8099 110.468 15.8221 111.401 15.8342C112.344 15.837 113.296 15.8398 114.257 15.8426L115.209 15.8455C115.377 15.846 115.564 15.8698 115.769 15.9171C115.928 15.9643 116.049 16.0439 116.132 16.1562C116.225 16.2591 116.272 16.3806 116.271 16.5206L116.257 16.6186C116.238 16.7678 116.172 16.8937 116.06 16.996C115.947 17.089 115.803 17.1399 115.625 17.1487L114.393 17.145C114.281 17.1447 114.193 17.1491 114.127 17.1583C114.071 17.1581 114.029 17.172 114.001 17.1999C113.973 17.2278 113.949 17.2744 113.931 17.3397C113.921 17.3957 113.911 17.4796 113.902 17.5916C113.796 18.4406 113.728 19.2944 113.698 20.153C113.676 21.0023 113.664 21.8516 113.662 22.7009L113.655 24.9969C113.644 25.3235 113.634 25.6548 113.623 25.9908C113.622 26.3175 113.621 26.6441 113.62 26.9708C113.619 27.4095 113.622 27.8481 113.63 28.2868C113.638 28.7162 113.66 29.1503 113.696 29.589C113.732 30.0465 113.749 30.4992 113.748 30.9472C113.747 31.4045 113.782 31.862 113.856 32.3195C113.865 32.3475 113.869 32.3756 113.869 32.4036C113.869 32.4409 113.869 32.4736 113.869 32.5016L113.854 32.7675C113.826 32.9634 113.76 33.1172 113.657 33.2289C113.563 33.3407 113.418 33.4102 113.222 33.4377C112.998 33.4743 112.774 33.5017 112.55 33.5197C112.326 33.5377 112.102 33.5463 111.878 33.5457ZM122.385 23.4548C122.208 23.4542 122.095 23.5099 122.048 23.6218C122.001 23.7243 121.977 23.9202 121.976 24.2095C121.965 24.8908 121.958 25.5535 121.956 26.1975C121.954 26.8322 121.953 27.3735 121.951 27.8215C121.931 28.3068 121.911 28.8527 121.89 29.4593C121.879 30.0753 121.863 30.7052 121.842 31.3492L121.826 31.9511C121.826 32.1285 121.905 32.2174 122.063 32.2178L122.175 32.2042C122.25 32.1857 122.325 32.1673 122.4 32.1488C122.474 32.1397 122.549 32.1259 122.624 32.1075C122.988 31.9686 123.301 31.7782 123.564 31.5363C123.826 31.3037 124.023 30.9916 124.154 30.6C124.484 29.6117 124.674 28.5902 124.724 27.5357C124.724 27.4704 124.725 27.4004 124.725 27.3257C124.734 27.2417 124.739 27.1531 124.74 27.0597C124.74 27.0131 124.74 26.9664 124.74 26.9197C124.74 26.8731 124.736 26.8264 124.726 26.7797C124.708 26.649 124.685 26.4622 124.658 26.2195C124.64 25.9674 124.608 25.706 124.563 25.4352C124.499 24.959 124.341 24.5572 124.09 24.2298C123.849 23.9024 123.476 23.6773 122.973 23.5545C122.954 23.5451 122.931 23.5357 122.903 23.5263C122.875 23.5169 122.847 23.5121 122.819 23.512C122.725 23.4931 122.641 23.4788 122.567 23.4693C122.502 23.4598 122.441 23.4549 122.385 23.4548ZM119.231 15.8294L119.329 15.8297C119.627 15.8399 119.926 15.8501 120.225 15.8603C120.523 15.8612 120.822 15.8714 121.121 15.891C121.195 15.9005 121.265 15.9101 121.33 15.9196C121.405 15.9198 121.48 15.9294 121.554 15.9483C121.927 16.0427 122.113 16.2719 122.112 16.6359L122.052 17.8957C122.042 18.045 122.037 18.1944 122.037 18.3437C122.036 18.493 122.036 18.6424 122.035 18.7917C122.034 19.1277 122.033 19.4637 122.032 19.7997C122.041 20.1357 122.044 20.4671 122.043 20.7937L122.04 21.8997C122.039 22.0397 122.062 22.1238 122.109 22.1519C122.156 22.1801 122.272 22.1944 122.459 22.195C122.972 22.2058 123.424 22.2958 123.816 22.465C124.207 22.6248 124.538 22.8358 124.808 23.0979C125.087 23.3601 125.306 23.6594 125.463 23.9959C125.63 24.323 125.746 24.6594 125.81 25.0049C125.856 25.2757 125.897 25.5418 125.934 25.8033C125.97 26.0647 125.997 26.2888 126.015 26.4755C126.033 26.7182 126.042 26.9143 126.042 27.0636C126.041 27.2036 126.041 27.3109 126.041 27.3856L126.04 27.5116C125.981 28.6781 125.767 29.8255 125.399 30.9537C125.145 31.737 124.742 32.3331 124.19 32.7421C123.647 33.1512 122.979 33.4012 122.185 33.4922L121.625 33.5185L120.505 33.5152L119.469 33.5262L118.937 33.5106C118.545 33.4814 118.275 33.3873 118.126 33.2282C117.987 33.0784 117.913 32.8075 117.905 32.4155L117.905 32.1915C117.926 31.6782 117.937 31.1649 117.938 30.6516C117.949 30.1383 117.965 29.625 117.985 29.1117C118.005 28.6451 118.016 28.1832 118.017 27.7258C118.028 27.2592 118.034 26.7879 118.036 26.3119L118.042 24.3099C118.044 23.7219 118.046 23.1106 118.048 22.4759C118.05 21.8319 118.052 21.1879 118.054 20.5439C118.065 19.8999 118.077 19.2606 118.088 18.626C118.099 17.982 118.12 17.3614 118.15 16.7642C118.161 16.2415 118.423 15.939 118.937 15.8565C118.983 15.8473 119.03 15.8428 119.077 15.8429C119.133 15.8338 119.184 15.8292 119.231 15.8294ZM135.684 33.5882C135.301 33.5871 135.083 33.3718 135.028 32.9423C135.01 32.7742 134.996 32.6062 134.987 32.4381C134.979 32.2701 134.97 32.1021 134.961 31.9341C134.936 30.9166 134.902 29.8992 134.859 28.8817C134.815 27.8549 134.79 26.8282 134.784 25.8015C134.785 25.5028 134.777 25.2041 134.759 24.9054C134.741 24.6067 134.733 24.308 134.734 24.0093L134.784 16.9955C134.805 16.3702 135.104 16.0304 135.683 15.9761C135.991 15.9397 136.295 15.9126 136.593 15.8948C136.901 15.8677 137.209 15.8546 137.517 15.8556C137.601 15.8558 137.685 15.8561 137.769 15.8563C137.853 15.8565 137.942 15.8615 138.035 15.8711C138.334 15.8906 138.544 15.9566 138.665 16.069C138.786 16.1813 138.869 16.3822 138.915 16.6717C139.126 17.7737 139.407 18.9505 139.758 20.2022C140.109 21.4446 140.483 22.7104 140.88 23.9996L140.977 24.2238C141.043 24.1774 141.08 24.1401 141.09 24.1122C141.108 24.0749 141.123 24.0329 141.132 23.9863C141.435 22.6619 141.766 21.3702 142.124 20.1112C142.492 18.8523 142.841 17.6587 143.171 16.5303C143.285 16.092 143.514 15.8733 143.859 15.8743L143.943 15.8746C144.13 15.9031 144.284 15.9969 144.405 16.156C144.525 16.3057 144.59 16.4972 144.599 16.7305L144.589 19.9785L144.572 20.8605C144.57 21.5511 144.577 22.2372 144.593 22.9185C144.619 23.5906 144.65 24.2721 144.685 24.9628C144.729 25.719 144.764 26.5124 144.79 27.3431C144.815 28.1739 144.84 28.9673 144.866 29.7234C144.884 30.0128 144.897 30.2975 144.905 30.5775C144.923 30.8669 144.941 31.1563 144.959 31.4457C144.977 31.6604 144.995 31.8704 145.013 32.0758C145.031 32.2906 145.067 32.5053 145.123 32.7202L145.15 32.9022C145.15 33.0609 145.093 33.2007 144.981 33.3217C144.878 33.4521 144.747 33.5357 144.588 33.5726C144.551 33.5818 144.499 33.5863 144.434 33.5861C144.303 33.5857 144.182 33.5387 144.07 33.445C143.959 33.3607 143.875 33.2391 143.82 33.0803C143.783 32.9775 143.755 32.8748 143.736 32.7721C143.727 32.6787 143.718 32.5807 143.709 32.478C143.612 30.6857 143.525 28.8607 143.447 27.0032C143.378 25.1456 143.323 23.3161 143.282 21.5147C143.273 21.468 143.263 21.4259 143.254 21.3886C143.245 21.3512 143.231 21.3092 143.213 21.2625C143.09 21.5234 142.996 21.7891 142.93 22.0596C142.864 22.3208 142.798 22.5866 142.732 22.857C142.58 23.4726 142.434 24.0835 142.292 24.6897C142.159 25.2867 142.027 25.893 141.894 26.5086C141.866 26.6112 141.837 26.7184 141.809 26.8303C141.781 26.9422 141.743 27.0495 141.696 27.152C141.63 27.2731 141.546 27.3615 141.443 27.4172C141.35 27.473 141.247 27.5007 141.135 27.5003C140.92 27.4997 140.743 27.4012 140.604 27.2047C140.548 27.1299 140.506 27.0505 140.479 26.9664C140.451 26.873 140.423 26.7795 140.396 26.6861C140.137 25.8547 139.869 25.0326 139.591 24.2197C139.314 23.3976 139.064 22.5615 138.843 21.7115C138.825 21.6648 138.811 21.6227 138.802 21.5854C138.802 21.5387 138.778 21.5013 138.732 21.4732L138.704 21.4731C138.676 21.473 138.662 21.4916 138.662 21.529C138.651 21.8743 138.641 22.2196 138.63 22.5649C138.629 22.9009 138.628 23.2415 138.627 23.5869C138.626 24.1189 138.643 24.6416 138.678 25.155C138.714 25.6685 138.731 26.1912 138.729 26.7232C138.724 28.3565 138.761 29.976 138.84 31.5815C138.849 31.7402 138.853 31.9036 138.853 32.0716C138.861 32.2396 138.875 32.4076 138.893 32.5757L138.907 32.7297C138.906 32.9724 138.84 33.1542 138.709 33.2752C138.587 33.3961 138.396 33.4749 138.134 33.5115C137.733 33.5569 137.331 33.5744 136.93 33.5639C136.529 33.5627 136.127 33.5708 135.726 33.5883L135.684 33.5882ZM150.428 22.7958C150.426 23.2438 150.439 23.6872 150.465 24.126C150.492 24.5647 150.514 25.0081 150.531 25.4562C150.531 25.5775 150.554 25.6662 150.6 25.7224C150.647 25.7785 150.74 25.8161 150.88 25.8352C150.992 25.8449 151.104 25.8545 151.216 25.8642C151.328 25.8645 151.44 25.8648 151.552 25.8652C151.888 25.8662 152.219 25.8532 152.546 25.8261C152.882 25.7898 153.218 25.7581 153.554 25.7311C153.685 25.7222 153.788 25.7085 153.863 25.69C153.937 25.6622 153.993 25.6251 154.031 25.5785C154.068 25.532 154.092 25.4667 154.102 25.3827C154.111 25.2988 154.121 25.1868 154.131 25.0468C154.131 24.9441 154.131 24.8415 154.132 24.7388C154.141 24.6268 154.146 24.5195 154.147 24.4169C154.148 23.8009 154.127 23.1895 154.082 22.5827C154.047 21.9759 154.007 21.3644 153.962 20.7483C153.935 20.4775 153.898 20.2114 153.853 19.95C153.816 19.6885 153.766 19.4224 153.701 19.1515C153.627 18.8433 153.512 18.5583 153.354 18.2965C153.205 18.0347 153.029 17.7869 152.824 17.5529C152.694 17.3939 152.55 17.2908 152.391 17.2436C152.233 17.1872 152.065 17.1587 151.887 17.1581C151.813 17.1579 151.738 17.1624 151.663 17.1715C151.589 17.1712 151.514 17.1757 151.439 17.1848C151.224 17.2028 151.08 17.2864 151.004 17.4355C150.929 17.5753 150.859 17.7198 150.793 17.8689C150.492 18.6053 150.34 19.3842 150.338 20.2056C150.338 20.2616 150.337 20.3176 150.337 20.3736C150.346 20.4296 150.351 20.4856 150.351 20.5416C150.359 20.887 150.367 21.2323 150.375 21.5777C150.393 21.9137 150.411 22.2591 150.428 22.6138L150.428 22.7958ZM146.764 25.739C146.73 24.8336 146.695 23.9374 146.661 23.0507C146.636 22.1639 146.615 21.2725 146.599 20.3765C146.599 20.3391 146.595 20.3018 146.586 20.2644C146.586 20.2271 146.586 20.1898 146.586 20.1524C146.597 19.6205 146.655 19.1026 146.759 18.5989C146.872 18.0953 147.042 17.6011 147.267 17.1164C147.587 16.3894 148.13 15.9943 148.895 15.9313C149.241 15.895 149.581 15.8726 149.917 15.8643C150.263 15.8466 150.608 15.8383 150.953 15.8394C151.401 15.8407 151.849 15.856 152.297 15.8853C152.615 15.905 152.899 15.9898 153.15 16.1399C153.402 16.2806 153.63 16.4726 153.835 16.7159C154.142 17.0901 154.402 17.4876 154.615 17.9082C154.828 18.3195 154.972 18.7679 155.045 19.2535C155.173 20.0752 155.268 20.8875 155.331 21.6904C155.403 22.4839 155.438 23.2913 155.436 24.1127C155.435 24.3927 155.429 24.6727 155.419 24.9526C155.409 25.2233 155.394 25.4986 155.374 25.7785C155.355 26.0304 155.335 26.2824 155.316 26.5343C155.306 26.777 155.3 27.0243 155.3 27.2763C155.299 27.575 155.307 27.869 155.325 28.1584C155.352 28.4384 155.388 28.7279 155.434 29.0267C155.461 29.4094 155.478 29.7782 155.487 30.1329C155.504 30.4969 155.522 30.8423 155.539 31.169C155.557 31.5051 155.584 31.8225 155.62 32.1213C155.657 32.42 155.712 32.6909 155.786 32.9338C155.804 33.0085 155.813 33.0598 155.813 33.0878C155.813 33.2745 155.714 33.4282 155.518 33.549C155.396 33.6233 155.28 33.6603 155.168 33.6599C155.037 33.6595 154.906 33.6218 154.776 33.5468C154.674 33.4718 154.594 33.3829 154.539 33.2801C154.483 33.1772 154.446 33.0605 154.428 32.9297C154.4 32.743 154.368 32.5516 154.332 32.3554C154.295 32.1593 154.277 31.9633 154.278 31.7673C154.27 31.2539 154.248 30.7919 154.212 30.3811C154.185 29.9703 154.154 29.5969 154.117 29.2608C154.09 28.9154 154.063 28.598 154.036 28.3086C154.009 28.0098 153.996 27.7158 153.997 27.4264L153.998 27.3004C153.998 27.1138 153.91 27.0202 153.732 27.0196L153.634 27.0194C153.308 27.0464 152.976 27.0781 152.64 27.1144C152.313 27.1508 151.987 27.1685 151.66 27.1675C151.427 27.1668 151.193 27.1521 150.96 27.1234L150.89 27.1232C150.713 27.1227 150.624 27.2298 150.623 27.4444C150.631 27.8271 150.635 28.2098 150.633 28.5925C150.632 28.9658 150.631 29.3485 150.63 29.7405L150.579 32.6383C150.578 32.965 150.512 33.1981 150.381 33.3377C150.259 33.4774 150.035 33.5561 149.708 33.5737C149.297 33.6005 148.891 33.6133 148.49 33.6121C148.378 33.6118 148.261 33.6068 148.14 33.5971C148.028 33.5968 147.916 33.5964 147.804 33.5961C147.449 33.5857 147.197 33.5056 147.049 33.3559C146.9 33.2154 146.821 32.9632 146.813 32.5992C146.804 32.3005 146.801 32.0065 146.802 31.7171C146.803 31.4278 146.803 31.1338 146.804 30.8351L146.855 28.1753C146.856 27.7646 146.848 27.3586 146.831 26.9572C146.813 26.5558 146.791 26.1497 146.764 25.739ZM161.971 26.036C162.027 26.0362 162.087 26.0317 162.153 26.0226C162.227 26.0135 162.311 25.9997 162.405 25.9813C162.433 25.9814 162.461 25.9768 162.489 25.9676C162.517 25.9583 162.54 25.9491 162.559 25.9398C163.063 25.82 163.437 25.5971 163.681 25.2711C163.934 24.9452 164.094 24.5443 164.161 24.0685C164.208 23.798 164.242 23.5414 164.261 23.2988C164.29 23.0469 164.314 22.8556 164.333 22.725C164.343 22.6784 164.347 22.6317 164.348 22.5851C164.348 22.5384 164.348 22.4917 164.348 22.4451C164.348 22.3517 164.344 22.2677 164.335 22.193C164.335 22.109 164.335 22.0344 164.335 21.969C164.292 20.9142 164.109 19.8917 163.785 18.9014C163.656 18.509 163.461 18.1958 163.2 17.9617C162.939 17.7182 162.627 17.526 162.264 17.3849C162.189 17.366 162.115 17.3518 162.04 17.3422C161.965 17.3233 161.891 17.3044 161.816 17.2856L161.704 17.2712C161.545 17.2707 161.466 17.3592 161.465 17.5365L161.477 18.1386C161.494 18.7826 161.506 19.4126 161.514 20.0287C161.53 20.6354 161.547 21.1814 161.564 21.6668C161.563 22.1148 161.561 22.6608 161.559 23.3048C161.557 23.9395 161.56 24.5975 161.567 25.2788C161.566 25.5682 161.589 25.7689 161.635 25.8811C161.682 25.9839 161.793 26.0355 161.971 26.036ZM158.769 33.6426C158.722 33.6425 158.671 33.6376 158.615 33.6281C158.568 33.628 158.522 33.6232 158.475 33.6137C157.962 33.5282 157.701 33.2241 157.694 32.7014C157.668 32.104 157.651 31.4833 157.644 30.8392C157.636 30.2046 157.629 29.5652 157.622 28.9212C157.624 28.2772 157.626 27.6378 157.628 27.0032C157.63 26.3592 157.632 25.7432 157.633 25.1552L157.64 23.1532C157.641 22.6772 157.638 22.2105 157.63 21.7532C157.632 21.2865 157.624 20.8198 157.606 20.3531C157.589 19.8397 157.577 19.3263 157.569 18.813C157.571 18.2996 157.563 17.7863 157.546 17.2729L157.547 17.0489C157.557 16.6569 157.633 16.3865 157.773 16.2376C157.923 16.0793 158.194 15.9868 158.586 15.96L159.118 15.9476L160.154 15.9646L161.274 15.9679L161.834 15.9976C162.627 16.0933 163.294 16.3473 163.834 16.7595C164.383 17.1718 164.783 17.7703 165.032 18.5551C165.393 19.6855 165.599 20.8341 165.651 22.0009L165.651 22.1269C165.651 22.2016 165.65 22.3136 165.65 22.4629C165.649 22.6029 165.64 22.7942 165.62 23.0368C165.601 23.2235 165.572 23.4474 165.534 23.7086C165.496 23.9698 165.453 24.2357 165.406 24.5062C165.339 24.8514 165.221 25.1917 165.052 25.5272C164.893 25.8534 164.672 26.1467 164.392 26.4072C164.12 26.6678 163.788 26.8814 163.396 27.0483C163.003 27.2058 162.55 27.2884 162.037 27.2962C161.85 27.2957 161.733 27.3094 161.687 27.3372C161.64 27.3651 161.616 27.449 161.616 27.589L161.612 28.695C161.611 29.0217 161.606 29.353 161.595 29.689C161.594 30.0249 161.593 30.3609 161.592 30.6969C161.592 30.8463 161.591 30.9956 161.591 31.1449C161.59 31.2943 161.594 31.4436 161.603 31.593L161.655 32.8531C161.654 33.2171 161.467 33.4453 161.093 33.5375C161.018 33.5559 160.944 33.565 160.869 33.5648C160.804 33.574 160.734 33.5831 160.659 33.5922C160.36 33.61 160.062 33.6184 159.763 33.6175C159.464 33.626 159.166 33.6344 158.867 33.6429L158.769 33.6426ZM174.666 32.4157L175.366 32.4178C175.59 32.4091 175.702 32.3161 175.702 32.1388L175.703 32.0548C175.657 31.6253 175.64 31.1959 175.651 30.7666C175.661 30.3373 175.658 29.908 175.641 29.4786L175.643 28.9046C175.644 28.2792 175.66 27.6586 175.69 27.0427C175.72 26.4175 175.736 25.7922 175.738 25.1668L175.727 24.4388L175.705 22.4647C175.708 21.4754 175.725 20.5374 175.756 19.6509C175.796 18.755 175.841 17.8171 175.89 16.8372C175.901 16.5666 175.962 16.3708 176.074 16.2498C176.187 16.1195 176.369 16.0453 176.621 16.0274C176.761 16.0185 176.896 16.0142 177.027 16.0146C177.167 16.0057 177.307 16.0014 177.447 16.0019C177.96 16.0034 178.469 16.0469 178.973 16.1324C179.196 16.1797 179.359 16.2642 179.462 16.3858C179.564 16.4981 179.62 16.671 179.628 16.9043L179.626 17.4643C179.597 17.8189 179.573 18.1595 179.553 18.4861C179.543 18.8034 179.533 19.1254 179.522 19.452C179.521 19.7694 179.515 20.0913 179.505 20.418C179.495 20.7446 179.484 21.0852 179.474 21.4399L179.442 22.7698C179.44 23.2831 179.443 23.7965 179.451 24.3098C179.468 24.8232 179.476 25.3412 179.474 25.8639L179.457 26.7459C179.437 27.2405 179.422 27.7304 179.411 28.2157C179.4 28.701 179.394 29.191 179.392 29.6857C179.391 30.1803 179.394 30.6704 179.401 31.1557C179.419 31.6411 179.45 32.1312 179.495 32.626L179.508 32.808C179.507 33.0694 179.442 33.2558 179.311 33.3675C179.189 33.4884 178.983 33.5578 178.694 33.5756C178.096 33.6112 177.499 33.6374 176.902 33.6543C176.314 33.6806 175.716 33.6975 175.109 33.705L174.857 33.7043C174.503 33.7032 174.144 33.6928 173.78 33.6731C173.425 33.6534 173.07 33.6336 172.716 33.6139C172.529 33.5947 172.342 33.5848 172.156 33.5843C171.978 33.5837 171.797 33.5832 171.61 33.5826L170.21 33.5925C169.892 33.5916 169.58 33.586 169.272 33.5757C168.964 33.5655 168.656 33.5366 168.348 33.489C168.18 33.4698 168.036 33.4414 167.914 33.4037C167.802 33.366 167.709 33.3097 167.635 33.2349C167.57 33.1693 167.519 33.0805 167.482 32.9684C167.445 32.8563 167.417 32.7162 167.399 32.5482C167.354 32.1747 167.327 31.8013 167.319 31.4279C167.31 31.0639 167.307 30.6952 167.308 30.3219L167.329 23.7139C167.332 22.5193 167.355 21.3713 167.396 20.2701C167.436 19.1689 167.487 18.021 167.546 16.8265C167.566 16.5279 167.632 16.3181 167.744 16.1971C167.866 16.0761 168.076 16.0068 168.375 15.989L169.075 15.9771C169.318 15.9778 169.556 15.9878 169.789 16.0072C170.022 16.0172 170.255 16.0412 170.489 16.0792C170.796 16.1362 171.002 16.2301 171.104 16.3611C171.215 16.4921 171.275 16.7116 171.284 17.0196L171.283 17.1316C171.282 17.4489 171.263 17.7615 171.224 18.0694C171.195 18.3773 171.181 18.6806 171.18 18.9793L171.179 19.3013C171.178 19.6373 171.172 19.9639 171.162 20.2813C171.161 20.5893 171.155 20.8926 171.145 21.1912C171.134 21.4898 171.124 21.7978 171.114 22.1151C171.113 22.4231 171.112 22.7451 171.111 23.0811C171.11 23.3331 171.109 23.5851 171.108 23.8371C171.108 24.0798 171.116 24.3271 171.134 24.5792L171.146 25.1952C171.145 25.4472 171.14 25.6992 171.13 25.9512C171.12 26.2032 171.109 26.4551 171.099 26.7071C171.08 27.0804 171.069 27.449 171.068 27.813C171.067 28.177 171.066 28.5457 171.064 28.919L171.07 31.579C171.07 31.6444 171.074 31.705 171.084 31.7611C171.093 31.8264 171.097 31.8964 171.097 31.9711C171.106 32.1858 171.222 32.2935 171.446 32.2941L172.16 32.3103C172.126 31.0408 172.093 29.7854 172.06 28.5439C172.017 27.2092 171.998 25.8604 172.002 24.4978C172.004 23.9938 172.005 23.4851 172.007 22.9718C172.018 22.4491 172.034 21.9078 172.054 21.3479C172.084 20.6293 172.096 19.9247 172.089 19.234C172.091 18.534 172.103 17.8247 172.123 17.1061C172.134 16.6861 172.186 16.4016 172.28 16.2525C172.383 16.0942 172.57 16.0154 172.841 16.0162L174.059 16.0898C174.264 16.1184 174.404 16.1935 174.478 16.3151C174.562 16.4273 174.603 16.6328 174.602 16.9314L174.601 17.2954C174.6 17.6874 174.598 18.0748 174.597 18.4574C174.605 18.8308 174.609 19.2041 174.608 19.5775C174.607 19.6801 174.602 19.8481 174.592 20.0814C174.591 20.3054 174.586 20.5714 174.576 20.8794C174.575 21.178 174.564 21.5 174.545 21.8453C174.534 22.1813 174.524 22.5126 174.514 22.8392C174.513 23.1565 174.507 23.4505 174.497 23.7211C174.487 23.9825 174.481 24.1924 174.481 24.3511C174.48 24.7338 174.483 25.1118 174.491 25.4851C174.499 25.8492 174.512 26.2132 174.53 26.5773L174.524 28.5233C174.522 29.0086 174.535 29.4893 174.561 29.9654C174.597 30.4508 174.628 30.9409 174.655 31.4357C174.672 31.6877 174.681 31.9351 174.68 32.1777L174.666 32.4157ZM185.732 26.1064C185.788 26.1066 185.849 26.1021 185.914 26.093C185.989 26.0839 186.073 26.0701 186.166 26.0517C186.194 26.0518 186.223 26.0472 186.251 26.038C186.279 26.0287 186.302 26.0195 186.321 26.0102C186.825 25.8904 187.199 25.6675 187.443 25.3415C187.696 25.0156 187.856 24.6147 187.922 24.1389C187.97 23.8684 188.003 23.6118 188.023 23.3692C188.052 23.1173 188.076 22.926 188.095 22.7954C188.104 22.7488 188.109 22.7021 188.109 22.6555C188.109 22.6088 188.109 22.5621 188.11 22.5155C188.11 22.4221 188.105 22.3381 188.096 22.2634C188.097 22.1794 188.097 22.1048 188.097 22.0394C188.054 20.9846 187.87 19.9621 187.547 18.9718C187.417 18.5794 187.222 18.2662 186.962 18.0321C186.701 17.7886 186.389 17.5964 186.025 17.4553C185.951 17.4364 185.876 17.4222 185.802 17.4126C185.727 17.3937 185.652 17.3748 185.578 17.356L185.466 17.3416C185.307 17.3411 185.227 17.4296 185.227 17.6069L185.239 18.209C185.256 18.853 185.268 19.483 185.275 20.0991C185.292 20.7058 185.309 21.2518 185.326 21.7372C185.325 22.1852 185.323 22.7312 185.321 23.3752C185.319 24.0099 185.321 24.6679 185.329 25.3492C185.328 25.6386 185.35 25.8393 185.397 25.9515C185.443 26.0543 185.555 26.1059 185.732 26.1064ZM182.53 33.713C182.484 33.7129 182.432 33.708 182.377 33.6985C182.33 33.6984 182.283 33.6936 182.237 33.6841C181.723 33.5986 181.463 33.2945 181.455 32.7718C181.429 32.1744 181.413 31.5537 181.405 30.9096C181.398 30.275 181.391 29.6356 181.383 28.9916C181.385 28.3476 181.387 27.7082 181.389 27.0736C181.391 26.4296 181.393 25.8136 181.395 25.2256L181.401 23.2236C181.403 22.7476 181.4 22.2809 181.392 21.8236C181.393 21.3569 181.385 20.8902 181.368 20.4235C181.351 19.9101 181.339 19.3967 181.331 18.8834C181.333 18.37 181.325 17.8567 181.308 17.3433L181.308 17.1193C181.319 16.7273 181.395 16.4569 181.535 16.308C181.685 16.1497 181.956 16.0572 182.348 16.0304L182.88 16.018L183.916 16.035L185.036 16.0383L185.596 16.068C186.389 16.1637 187.055 16.4177 187.595 16.8299C188.145 17.2422 188.544 17.8407 188.794 18.6255C189.154 19.7559 189.361 20.9045 189.413 22.0713L189.413 22.1973C189.412 22.272 189.412 22.384 189.412 22.5333C189.411 22.6733 189.401 22.8646 189.382 23.1072C189.362 23.2939 189.334 23.5178 189.296 23.779C189.257 24.0402 189.215 24.3061 189.167 24.5766C189.101 24.9218 188.983 25.2621 188.814 25.5976C188.654 25.9238 188.434 26.2171 188.153 26.4776C187.882 26.7382 187.55 26.9518 187.157 27.1187C186.765 27.2762 186.312 27.3588 185.798 27.3666C185.612 27.3661 185.495 27.3798 185.448 27.4076C185.401 27.4355 185.378 27.5194 185.377 27.6594L185.374 28.7654C185.373 29.0921 185.367 29.4234 185.357 29.7594C185.356 30.0954 185.355 30.4313 185.354 30.7673C185.353 30.9167 185.353 31.066 185.352 31.2153C185.352 31.3647 185.356 31.514 185.365 31.6634L185.417 32.9235C185.416 33.2875 185.228 33.5157 184.855 33.6079C184.78 33.6263 184.705 33.6354 184.631 33.6352C184.565 33.6444 184.495 33.6535 184.421 33.6626C184.122 33.6804 183.823 33.6888 183.525 33.6879C183.226 33.6964 182.927 33.7048 182.628 33.7133L182.53 33.713ZM198.884 16.3314C198.921 16.3501 198.949 16.3736 198.968 16.4016C199.098 16.5513 199.162 16.7895 199.161 17.1162L199.145 17.7042C199.144 18.0308 199.148 18.3528 199.156 18.6702C199.174 18.9876 199.192 19.3096 199.209 19.6363C199.209 19.7017 199.213 19.8137 199.222 19.9724C199.222 20.1031 199.221 20.2897 199.221 20.5324C199.229 20.7657 199.233 21.0691 199.232 21.4424C199.231 21.8158 199.224 22.2731 199.213 22.8144C199.212 23.3464 199.205 23.9764 199.194 24.7043C199.182 25.4323 199.165 26.2722 199.144 27.2242C199.131 28.1668 199.114 29.2354 199.092 30.43C199.081 30.738 199.057 31.0413 199.019 31.3398C198.98 31.6477 198.923 31.9509 198.848 32.2493C198.801 32.4265 198.73 32.5803 198.636 32.7107C198.552 32.8411 198.444 32.9621 198.313 33.0738C198.051 33.2876 197.775 33.4548 197.486 33.5753C197.196 33.7051 196.883 33.7695 196.547 33.7685L196.407 33.7681C196.127 33.7579 195.847 33.7478 195.567 33.7376C195.297 33.7368 195.021 33.7267 194.741 33.7072C194.461 33.6877 194.181 33.6542 193.902 33.6067C193.631 33.5592 193.361 33.4837 193.09 33.3803C192.503 33.1545 192.019 32.8451 191.637 32.452C191.265 32.0682 191.029 31.5542 190.928 30.9099C190.882 30.6391 190.846 30.3729 190.819 30.1115C190.801 29.8501 190.792 29.5888 190.793 29.3275C190.793 29.1688 190.799 29.0148 190.808 28.8655C190.818 28.7162 190.837 28.5623 190.866 28.4037C190.904 28.1891 190.928 27.9792 190.938 27.7739C190.957 27.5593 190.977 27.3447 190.996 27.13C191.005 27.0741 191.01 27.0181 191.01 26.9621C191.011 26.8968 191.02 26.8408 191.039 26.7942C191.086 26.617 191.166 26.4772 191.278 26.3749C191.391 26.2725 191.526 26.2216 191.685 26.2221L191.755 26.2223C191.913 26.2414 192.044 26.3118 192.146 26.4335C192.258 26.5458 192.313 26.6953 192.313 26.8819L192.312 26.9379C192.293 27.1712 192.274 27.4045 192.254 27.6378C192.235 27.8617 192.206 28.0903 192.168 28.3235C192.149 28.5008 192.13 28.6781 192.11 28.8554C192.101 29.0233 192.095 29.196 192.095 29.3733C192.094 29.6066 192.103 29.84 192.121 30.0734C192.148 30.3068 192.185 30.5403 192.23 30.7737C192.341 31.3154 192.624 31.7082 193.081 31.9522C193.221 32.0273 193.36 32.0884 193.5 32.1355C193.649 32.1919 193.803 32.2391 193.962 32.2769C194.074 32.3052 194.181 32.3195 194.284 32.3198C194.536 32.3206 194.741 32.2418 194.9 32.0836C195.069 31.9348 195.177 31.7251 195.224 31.4546C195.253 31.2867 195.277 31.1187 195.296 30.9508C195.315 30.7829 195.33 30.6149 195.339 30.4469C195.343 29.3456 195.351 28.2303 195.364 27.101C195.365 26.625 195.367 26.121 195.369 25.589C195.37 25.057 195.377 24.5203 195.388 23.979L195.389 23.741C195.183 23.7591 194.982 23.7725 194.786 23.7813C194.553 23.7899 194.315 23.7939 194.072 23.7931C193.82 23.7924 193.568 23.787 193.316 23.7769C193.064 23.7668 192.817 23.7521 192.575 23.7327C192.108 23.7033 191.735 23.6229 191.455 23.4914C191.185 23.3599 190.985 23.2053 190.855 23.0276C190.743 22.8686 190.664 22.7144 190.618 22.5649C190.581 22.4061 190.554 22.2474 190.536 22.0887L190.303 20.324C190.285 20.2492 190.276 20.1325 190.276 19.9739C190.277 19.8152 190.277 19.6566 190.278 19.4979C190.278 19.3672 190.279 19.2552 190.279 19.1619C190.279 19.0592 190.284 18.9939 190.293 18.9659C190.332 18.4807 190.38 18.0422 190.438 17.6504C190.504 17.2492 190.58 16.8574 190.665 16.475C190.703 16.3445 190.787 16.256 190.918 16.2098C191.049 16.1542 191.268 16.1221 191.576 16.1137C191.819 16.1051 192.062 16.1012 192.304 16.1019C192.556 16.0933 192.804 16.0894 193.046 16.0901L193.578 16.0917C193.905 16.1113 194.129 16.1446 194.25 16.1916C194.381 16.2387 194.446 16.3229 194.445 16.4442L194.431 16.5422C194.393 16.7287 194.355 16.9153 194.317 17.1018C194.279 17.2884 194.246 17.4796 194.218 17.6756C194.179 17.9181 194.146 18.1607 194.117 18.4033C194.088 18.6365 194.06 18.8791 194.031 19.131L194.031 19.229C194.03 19.2943 194.03 19.3783 194.03 19.481C194.039 19.5837 194.043 19.6864 194.043 19.789C194.052 19.8917 194.056 19.9897 194.056 20.0831C194.065 20.1764 194.074 20.2511 194.083 20.3072C194.129 20.6153 194.17 20.9234 194.206 21.2315C194.243 21.5396 194.284 21.8478 194.329 22.1559C194.348 22.2493 194.366 22.338 194.385 22.4221C194.412 22.5061 194.44 22.5902 194.468 22.6743C194.477 22.7023 194.491 22.735 194.51 22.7724C194.528 22.8005 194.547 22.8285 194.565 22.8566C194.621 22.9314 194.696 22.997 194.789 23.0533C194.891 23.1002 195.026 23.1333 195.194 23.1525L195.39 23.153L195.398 20.8571C195.4 20.1291 195.402 19.4897 195.404 18.9391C195.405 18.3791 195.402 17.9684 195.393 17.707L195.395 17.315C195.395 17.2404 195.395 17.175 195.395 17.119C195.395 17.0537 195.4 16.9884 195.41 16.9231C195.468 16.3726 195.758 16.0934 196.28 16.0857L196.981 16.0737C197.401 16.075 197.82 16.0902 198.24 16.1195L198.352 16.1198C198.651 16.1393 198.828 16.2099 198.884 16.3314ZM204.614 33.8204C204.418 33.8198 204.222 33.8099 204.026 33.7907C203.839 33.7808 203.648 33.7569 203.452 33.719C203.237 33.6717 203.084 33.5919 202.991 33.4796C202.907 33.3767 202.856 33.2085 202.838 32.9752C202.758 31.8829 202.691 30.7954 202.639 29.7126C202.595 28.6391 202.575 27.5517 202.579 26.4504L202.596 25.3724C202.618 24.4111 202.63 23.4545 202.633 22.5025C202.646 21.5412 202.677 20.5706 202.726 19.5908C202.746 19.2735 202.766 18.9655 202.785 18.6669C202.814 18.359 202.848 18.0791 202.886 17.8272L202.886 17.7712C202.886 17.6499 202.859 17.5612 202.803 17.505C202.756 17.4488 202.668 17.4113 202.537 17.3922C202.295 17.3635 202.057 17.3488 201.823 17.3481C201.739 17.3478 201.651 17.3476 201.557 17.3473C201.473 17.347 201.389 17.3515 201.305 17.3605C201.221 17.351 201.137 17.3461 201.053 17.3458C200.969 17.3456 200.89 17.336 200.815 17.3171C200.676 17.2793 200.564 17.209 200.48 17.1061C200.396 17.0032 200.355 16.8817 200.355 16.7417L200.355 16.6997C200.356 16.4477 200.487 16.2568 200.749 16.1269C200.871 16.0806 200.997 16.0576 201.127 16.058L201.295 16.0725C202.257 16.0847 203.204 16.0968 204.137 16.1089C205.08 16.1117 206.032 16.1145 206.993 16.1174L207.945 16.1202C208.113 16.1207 208.3 16.1446 208.505 16.1919C208.663 16.239 208.785 16.3187 208.868 16.431C208.961 16.5339 209.008 16.6554 209.007 16.7954L208.993 16.8933C208.974 17.0426 208.908 17.1684 208.796 17.2707C208.683 17.3637 208.538 17.4146 208.361 17.4235L207.129 17.4198C207.017 17.4195 206.928 17.4239 206.863 17.433C206.807 17.4328 206.765 17.4467 206.737 17.4746C206.709 17.5026 206.685 17.5492 206.666 17.6144C206.657 17.6704 206.647 17.7544 206.638 17.8663C206.532 18.7154 206.464 19.5692 206.434 20.4278C206.412 21.277 206.4 22.1263 206.398 22.9757L206.39 25.2716C206.38 25.5983 206.37 25.9296 206.359 26.2656C206.358 26.5922 206.357 26.9189 206.356 27.2456C206.355 27.6842 206.358 28.1229 206.366 28.5616C206.374 28.991 206.396 29.425 206.432 29.8638C206.468 30.3212 206.485 30.774 206.484 31.222C206.482 31.6793 206.518 32.1367 206.592 32.5943C206.601 32.6223 206.605 32.6503 206.605 32.6783C206.605 32.7157 206.605 32.7483 206.605 32.7763L206.59 33.0423C206.562 33.2382 206.496 33.392 206.393 33.5037C206.299 33.6154 206.154 33.685 205.958 33.7124C205.734 33.7491 205.51 33.7764 205.286 33.7944C205.062 33.8124 204.838 33.8211 204.614 33.8204Z" fill="white"/>
</svg>
