<svg width="180" height="50" viewBox="0 0 180 50" fill="none" xmlns="http://www.w3.org/2000/svg">
<path d="M5.34793 35.1044L1.92048 30.2118L0.028912 10.6414C1.68465 7.85536 7.46439 2.12014 17.3374 1.4678C29.6787 0.652364 35.3875 -0.172465 49.5699 0.0313937C63.7524 0.235252 124.682 0.44087 129.672 0.44087C134.662 0.44087 159.379 -0.170538 165.953 2.88717C171.212 5.33334 176.04 10.0222 177.796 12.0608C177.272 12.4685 176.54 13.7323 177.805 15.5263C179.071 17.3202 179.744 20.0791 179.922 21.2343C179.223 21.9138 177.827 23.436 177.829 24.0883C177.831 24.9037 173.104 25.1076 175.471 26.1269C177.364 26.9423 177.843 29.3207 177.846 30.4079C176.01 31.4272 171.499 33.5066 168.138 33.6696C164.776 33.8327 161.837 34.553 160.787 34.8928L160.792 36.5238C162.368 36.7956 165.206 37.4206 163.947 37.7468C162.372 38.1545 160.793 37.1352 159.482 37.7468C158.17 38.3584 156.335 39.5815 157.912 39.9893C158.397 40.365 158.871 40.5523 159.296 40.6252C159.817 40.5276 160.381 40.4473 160.802 40.397C160.533 40.5644 159.978 40.7422 159.296 40.6252C158.412 40.7911 157.651 41.0071 157.916 41.2124C158.337 41.5386 160.019 42.0278 160.807 42.2317L162.124 43.4548H157.922C155.611 43.4548 156.087 44.678 156.613 45.2896C156.001 45.4255 154.408 45.6157 152.937 45.2896C151.097 44.8818 151.887 45.4934 148.736 45.6973C146.215 45.8604 132.509 45.7652 128.219 45.6973C128.568 45.4255 128.794 44.8818 126.903 44.8818C124.54 44.8818 124.277 44.8818 121.389 45.2896C118.502 45.6973 52.318 44.8801 43.3887 44.8801C36.2452 44.8801 45.3232 43.8702 44.01 43.8702C39.8974 44.5497 25.652 45.868 19.5586 45.7049C11.9419 45.501 5.37064 43.4625 5.37008 43.2586C5.36964 43.0955 3.9659 41.9675 3.26408 41.4239C3.96534 41.7636 5.36731 42.2393 5.3651 41.4239C5.36288 40.6084 3.95574 38.2301 3.25245 37.1429L5.34793 35.1044Z" fill="#F40000"/>
<path d="M10.3694 46.7242C9.52902 46.7242 9.49622 47.5396 9.58487 47.9473L7.87834 48.1512C7.04853 48.8307 5.54638 50.149 6.17625 49.9859C6.80611 49.8228 8.01298 49.3744 8.53768 49.1705C8.88711 48.8987 11.2668 48.3551 17.9901 48.3551C26.3941 48.3551 25.6051 47.9473 26.393 47.9473C27.1809 47.9473 11.4199 46.7242 10.3694 46.7242Z" fill="#F40000"/>
<path d="M32.9422 31.6716C32.7369 31.6616 32.5316 31.6515 32.3263 31.6414C32.1303 31.6407 31.9249 31.6399 31.7103 31.6391L31.0102 31.6506C30.7209 31.6495 30.4597 31.5972 30.2266 31.4937C29.9935 31.3995 29.7885 31.2681 29.6116 31.0994C29.444 30.9308 29.3045 30.739 29.1931 30.5239C29.0816 30.3088 28.9982 30.0798 28.9428 29.837C28.8412 29.4166 28.7536 28.9963 28.68 28.576C28.6157 28.1558 28.5468 27.7308 28.4732 27.3012C28.4089 26.909 28.3586 26.5168 28.3222 26.1247C28.2952 25.7232 28.2729 25.3125 28.2553 24.8924C28.2471 24.4724 28.2388 24.0383 28.2306 23.5903C28.2318 23.1423 28.2283 22.671 28.2202 22.1763L28.2381 20.6223C28.2388 20.3703 28.2394 20.1183 28.2401 19.8663C28.2407 19.6143 28.2507 19.367 28.2699 19.1244C28.3186 18.3313 28.4838 17.5852 28.7656 16.8862C29.0474 16.1873 29.4038 15.5119 29.8347 14.8601C30.2376 14.2643 30.789 13.9676 31.489 13.9702L32.791 13.975L33.4909 13.9915C34.3775 14.0228 35.1467 14.3523 35.7984 14.98C36.0126 15.1861 36.1893 15.4154 36.3287 15.668C36.4681 15.9111 36.5607 16.1821 36.6066 16.481L36.6202 16.677C36.6198 16.8357 36.6007 16.971 36.5631 17.0828C36.516 17.2507 36.4364 17.381 36.3241 17.474C36.2119 17.5575 36.0858 17.5991 35.9458 17.5986L35.8618 17.5983C35.7125 17.579 35.5867 17.5226 35.4842 17.4289C35.3818 17.3258 35.3309 17.1856 35.3313 17.0083L35.3315 16.9243C35.3326 16.5136 35.212 16.1959 34.9699 15.971C34.7372 15.7461 34.4576 15.5631 34.1313 15.4219C34.0381 15.3842 33.9588 15.3559 33.8935 15.337C33.8283 15.3181 33.7629 15.3085 33.6976 15.3083C33.5949 15.3079 33.5062 15.3403 33.4314 15.4053C33.3565 15.4704 33.2723 15.5727 33.1786 15.7124C32.7851 16.3083 32.4755 16.9325 32.2498 17.585C32.0242 18.2282 31.9011 18.9137 31.8806 19.6417L31.8608 21.9376C31.8588 22.7496 31.8663 23.4776 31.8833 24.1217C31.9003 24.7658 31.9314 25.3866 31.9766 25.9841C32.0218 26.5722 32.095 27.1512 32.1962 27.7209C32.2974 28.2999 32.4126 28.8837 32.5417 29.4722C32.551 29.5189 32.5602 29.5609 32.5694 29.5983C32.5786 29.645 32.5925 29.6917 32.6111 29.7384C32.7687 30.1403 33.0015 30.3418 33.3095 30.343C33.4215 30.3434 33.5569 30.3159 33.7158 30.2605C34.0054 30.1495 34.2717 30.0198 34.5147 29.8714C34.7578 29.7229 34.9729 29.5417 35.1601 29.3278C35.3473 29.1231 35.4973 28.881 35.61 28.6014C35.7227 28.3218 35.7888 28.0047 35.8084 27.6501L35.8236 27.1742C35.8243 26.9035 35.8109 26.6375 35.7836 26.376C35.7656 26.1146 35.7383 25.8485 35.7016 25.5777C35.6925 25.4844 35.6834 25.391 35.6743 25.2976C35.6652 25.2042 35.6608 25.1062 35.6611 25.0036C35.6612 24.9569 35.6613 24.9149 35.6614 24.8776C35.6615 24.8402 35.6663 24.7982 35.6757 24.7516C35.7042 24.5744 35.7745 24.4346 35.8868 24.3324C35.9991 24.2208 36.1345 24.1653 36.2932 24.1659L36.3212 24.166C36.4705 24.1665 36.6011 24.2183 36.7128 24.3214C36.8246 24.4152 36.8942 24.5508 36.9218 24.7282C36.9674 25.1484 37.013 25.5685 37.0586 25.9887C37.1042 26.3995 37.1265 26.8149 37.1254 27.2349C37.125 27.3936 37.12 27.5523 37.1102 27.7109C37.1005 27.8695 37.0861 28.0281 37.067 28.1867C37.0192 28.6346 36.8968 29.0448 36.6999 29.4174C36.503 29.79 36.2408 30.1251 35.9133 30.4225C35.5017 30.7943 35.0576 31.0961 34.5811 31.3276C34.1045 31.5592 33.5722 31.6739 32.9842 31.6718L32.9422 31.6716ZM39.7717 31.7387C39.3891 31.7373 39.1703 31.5218 39.1154 31.0923C39.0971 30.9242 39.0835 30.7561 39.0746 30.5881C39.0657 30.4201 39.0568 30.252 39.0479 30.084C39.0225 29.0666 38.9877 28.0491 38.9436 27.0316C38.8996 26.0048 38.8742 24.978 38.8674 23.9513C38.8682 23.6527 38.8596 23.354 38.8417 23.0552C38.8238 22.7565 38.8152 22.4578 38.816 22.1591L38.8617 15.1452C38.882 14.52 39.1815 14.1804 39.7603 14.1265C40.0684 14.0903 40.3718 14.0634 40.6705 14.0459C40.9786 14.019 41.2866 14.0061 41.5946 14.0073C41.6786 14.0076 41.7626 14.0079 41.8466 14.0082C41.9306 14.0085 42.0193 14.0135 42.1126 14.0232C42.4112 14.0429 42.621 14.109 42.7421 14.2215C42.8631 14.3339 42.9466 14.5349 42.9926 14.8244C43.2044 15.9265 43.4861 17.1035 43.8376 18.3555C44.1891 19.5981 44.5639 20.8642 44.962 22.1537L45.0594 22.378C45.1249 22.3316 45.1623 22.2944 45.1717 22.2664C45.1905 22.2292 45.2046 22.1872 45.214 22.1406C45.5161 20.8163 45.846 19.5249 46.2039 18.2662C46.571 17.0075 46.9194 15.8141 47.2489 14.686C47.362 14.2477 47.5913 14.0292 47.9366 14.0305L48.0206 14.0308C48.2072 14.0595 48.3609 14.1534 48.4819 14.3125C48.6028 14.4623 48.6677 14.6539 48.6764 14.8872L48.6682 18.1352L48.652 19.0172C48.6502 19.7078 48.6578 20.3939 48.6748 21.0753C48.7011 21.7474 48.732 22.4288 48.7676 23.1196C48.8123 23.8758 48.8477 24.6692 48.8736 25.5C48.8994 26.3308 48.9254 27.1242 48.9515 27.8803C48.9695 28.1697 48.9827 28.4544 48.9914 28.7345C49.0093 29.0239 49.0272 29.3133 49.0452 29.6027C49.0633 29.8174 49.0814 30.0275 49.0996 30.2329C49.1177 30.4476 49.1545 30.6624 49.2099 30.8773L49.2375 31.0594C49.2371 31.218 49.1807 31.3578 49.0684 31.4788C48.9654 31.6091 48.8345 31.6926 48.6758 31.7293C48.6384 31.7385 48.5871 31.743 48.5217 31.7428C48.3911 31.7423 48.2699 31.6952 48.1581 31.6014C48.0463 31.517 47.9626 31.3954 47.907 31.2365C47.87 31.1337 47.8422 31.0309 47.8238 30.9282C47.8147 30.8348 47.8056 30.7368 47.7965 30.6341C47.6984 28.8417 47.6097 27.0167 47.5304 25.1591C47.4604 23.3015 47.4044 21.4719 47.3623 19.6704C47.3531 19.6237 47.3439 19.5817 47.3346 19.5443C47.3254 19.507 47.3115 19.4649 47.2929 19.4182C47.1709 19.6791 47.0769 19.9447 47.0109 20.2152C46.9449 20.4762 46.8789 20.742 46.8129 21.0124C46.662 21.6279 46.5158 22.2387 46.3743 22.8448C46.2421 23.4417 46.1099 24.0479 45.9777 24.6634C45.9494 24.766 45.9211 24.8732 45.8928 24.9851C45.8646 25.097 45.827 25.2042 45.78 25.3067C45.7144 25.4278 45.6302 25.5161 45.5274 25.5717C45.4339 25.6274 45.3311 25.655 45.2191 25.6546C45.0045 25.6538 44.8274 25.5552 44.6879 25.3587C44.6321 25.2838 44.5903 25.2043 44.5625 25.1202C44.5347 25.0268 44.507 24.9333 44.4792 24.8399C44.22 24.0083 43.9514 23.186 43.6735 22.3729C43.3955 21.5506 43.1457 20.7143 42.9238 19.8642C42.9053 19.8174 42.8914 19.7754 42.8821 19.738C42.8822 19.6913 42.859 19.6539 42.8124 19.6258L42.7844 19.6257C42.7564 19.6255 42.7424 19.6442 42.7423 19.6815C42.7321 20.0268 42.7218 20.3721 42.7116 20.7174C42.7108 21.0534 42.7099 21.3941 42.7091 21.7394C42.7077 22.2714 42.7251 22.7941 42.7611 23.3076C42.7971 23.8211 42.8145 24.3438 42.8131 24.8758C42.809 26.5091 42.8469 28.1286 42.9268 29.7342C42.9357 29.8929 42.94 30.0563 42.9396 30.2243C42.9485 30.3923 42.9621 30.5604 42.9803 30.7284L42.9939 30.8825C42.9933 31.1252 42.9275 31.3069 42.7965 31.4278C42.6749 31.5487 42.4834 31.6273 42.2219 31.6637C41.8205 31.7089 41.4191 31.7261 41.0178 31.7152C40.6165 31.7138 40.2151 31.7216 39.8137 31.7388L39.7717 31.7387ZM55.983 30.3981C56.1883 30.3989 56.3707 30.2595 56.5301 29.9801C56.5957 29.859 56.6474 29.7379 56.685 29.6167C56.7319 29.5049 56.7789 29.3837 56.8259 29.2532C57.1646 28.2091 57.4146 27.1553 57.5759 26.0919C57.7466 25.0285 57.852 23.9416 57.8922 22.8311L57.8924 22.7331C57.8954 21.5664 57.7909 20.446 57.5789 19.3719C57.3763 18.2885 57.0991 17.2095 56.7471 16.1348C56.7286 16.0881 56.71 16.046 56.6914 16.0086C56.6729 15.9712 56.6543 15.9292 56.6358 15.8824C56.4777 15.6298 56.2681 15.5031 56.0067 15.5021C55.9041 15.5017 55.7967 15.5293 55.6845 15.5849C55.5817 15.6312 55.4929 15.7056 55.4179 15.808C55.2587 16.022 55.1368 16.2456 55.0523 16.4786C54.9677 16.7116 54.8924 16.9494 54.8264 17.1918C54.6284 17.9844 54.4911 18.7819 54.4144 19.5843C54.3377 20.3774 54.275 21.1845 54.2263 22.0056C54.2071 22.1922 54.1973 22.3789 54.1968 22.5655C54.1964 22.7522 54.1959 22.9388 54.1954 23.1255C54.1927 24.1988 54.2648 25.2304 54.4116 26.2203C54.5584 27.2102 54.7706 28.1957 55.0481 29.1767C55.0944 29.3355 55.1453 29.485 55.201 29.6252C55.2566 29.7748 55.3356 29.9151 55.4379 30.0461C55.6146 30.2801 55.7963 30.3974 55.983 30.3981ZM53.5016 31.747C53.2869 31.7462 53.0957 31.6942 52.928 31.5909C52.7696 31.497 52.6159 31.3798 52.4669 31.2392C52.2248 31.005 52.0341 30.7476 51.8948 30.4671C51.7649 30.1866 51.6536 29.8922 51.5611 29.5839C51.2558 28.5188 51.0251 27.4539 50.8691 26.3893C50.7225 25.3155 50.6507 24.2045 50.6536 23.0565C50.6547 22.6085 50.6699 22.1512 50.6991 21.6847C50.7478 20.8542 50.8199 20.0378 50.9153 19.2355C51.0106 18.4238 51.1574 17.617 51.3554 16.8151C51.5722 15.9852 51.9473 15.2632 52.4809 14.6492C52.5932 14.5096 52.7148 14.398 52.8457 14.3145C52.9766 14.231 53.1354 14.1802 53.3221 14.1623C53.5742 14.1445 53.8262 14.1268 54.0782 14.109C54.3303 14.0913 54.587 14.0829 54.8483 14.0839C55.147 14.0849 55.4409 14.1047 55.7302 14.1431C56.0194 14.1721 56.3086 14.2292 56.5977 14.3143C56.9615 14.4183 57.255 14.592 57.4784 14.8355C57.7018 15.079 57.869 15.3783 57.9801 15.7333C58.2394 16.5556 58.466 17.3825 58.6599 18.2139C58.8631 19.0359 59.0056 19.8811 59.0874 20.7494C59.1147 21.0295 59.1374 21.3096 59.1553 21.5897C59.1826 21.8605 59.1959 22.1312 59.1953 22.4018L59.1945 22.7098C59.1447 23.9323 59.0297 25.1219 58.8494 26.2786C58.6785 27.426 58.4097 28.559 58.0428 29.6777C57.9958 29.8362 57.9441 29.9853 57.8877 30.1251C57.8313 30.2742 57.7656 30.4186 57.6906 30.5584C57.381 31.2106 56.8573 31.5867 56.1197 31.6866C55.8863 31.7231 55.6529 31.7456 55.4196 31.7541C55.1956 31.7626 54.9669 31.7664 54.7335 31.7655L53.5016 31.747ZM64.6099 31.8578C64.4139 31.857 64.2179 31.847 64.022 31.8276C63.8353 31.8176 63.6441 31.7935 63.4482 31.7555C63.2336 31.708 63.0798 31.6281 62.9868 31.5158C62.903 31.4128 62.8521 31.2446 62.834 31.0112C62.7528 29.9189 62.6856 28.8313 62.6323 27.7485C62.5884 26.675 62.5678 25.5876 62.5706 24.4862L62.5873 23.4083C62.6084 22.447 62.6201 21.4904 62.6226 20.5384C62.6343 19.5771 62.6648 18.6065 62.7139 17.6267C62.7334 17.3095 62.7528 17.0015 62.7723 16.7029C62.801 16.395 62.8344 16.1151 62.8724 15.8633L62.8725 15.8073C62.8728 15.686 62.8451 15.5972 62.7892 15.541C62.7427 15.4848 62.6541 15.4471 62.5235 15.428C62.2809 15.3991 62.0429 15.3842 61.8096 15.3834C61.7256 15.3831 61.6369 15.3828 61.5436 15.3824C61.4596 15.3821 61.3756 15.3865 61.2916 15.3955C61.2076 15.3858 61.1236 15.3809 61.0396 15.3806C60.9556 15.3803 60.8763 15.3706 60.8017 15.3517C60.6618 15.3138 60.55 15.2434 60.4662 15.1405C60.3825 15.0375 60.3408 14.916 60.3411 14.776L60.3412 14.734C60.3419 14.482 60.473 14.2911 60.7347 14.1614C60.8561 14.1152 60.9822 14.0923 61.1129 14.0928L61.2808 14.1074C62.2421 14.1203 63.1894 14.1331 64.1227 14.1459C65.0654 14.1493 66.0174 14.1528 66.9787 14.1563L67.9307 14.1598C68.0987 14.1604 68.2853 14.1845 68.4905 14.2319C68.6491 14.2791 68.7702 14.3589 68.8539 14.4712C68.947 14.5742 68.9934 14.6957 68.993 14.8357L68.9788 14.9337C68.9597 15.0829 68.8941 15.2087 68.7818 15.311C68.6696 15.4039 68.5248 15.4547 68.3474 15.4634L67.1154 15.4588C67.0034 15.4584 66.9147 15.4628 66.8494 15.4719C66.7934 15.4717 66.7514 15.4855 66.7233 15.5134C66.6952 15.5413 66.6718 15.5879 66.6529 15.6531C66.6435 15.7091 66.6339 15.7931 66.6243 15.905C66.5195 16.754 66.452 17.6078 66.4218 18.4663C66.401 19.3156 66.3895 20.1649 66.3874 21.0142L66.3815 23.3102C66.3714 23.6368 66.3612 23.9681 66.351 24.3041C66.3502 24.6308 66.3494 24.9574 66.3485 25.2841C66.3474 25.7228 66.351 26.1614 66.3592 26.6001C66.3675 27.0295 66.3897 27.4636 66.4259 27.9024C66.4621 28.3599 66.4796 28.8126 66.4785 29.2606C66.4773 29.7179 66.5135 30.1754 66.587 30.633C66.5963 30.661 66.6009 30.689 66.6008 30.717C66.6007 30.7544 66.6006 30.787 66.6005 30.815L66.5859 31.081C66.5574 31.2769 66.4917 31.4307 66.3887 31.5423C66.2951 31.6539 66.1502 31.7234 65.9542 31.7507C65.7301 31.7872 65.506 31.8144 65.282 31.8322C65.0579 31.8501 64.8339 31.8586 64.6099 31.8578ZM75.1046 24.2382C75.1606 24.2384 75.2213 24.234 75.2866 24.2249C75.3613 24.2158 75.4454 24.2021 75.5387 24.1838C75.5667 24.1839 75.5948 24.1793 75.6228 24.1701C75.6508 24.1609 75.6742 24.1516 75.6929 24.1423C76.1972 24.0229 76.5711 23.8002 76.8145 23.4745C77.0674 23.1487 77.2271 22.748 77.2936 22.2722C77.3409 22.0017 77.3743 21.7452 77.3935 21.5026C77.4222 21.2507 77.446 21.0594 77.465 20.9288C77.4744 20.8822 77.4792 20.8355 77.4793 20.7889C77.4795 20.7422 77.4796 20.6955 77.4797 20.6489C77.4799 20.5555 77.4755 20.4715 77.4663 20.3968C77.4666 20.3128 77.4667 20.2382 77.4669 20.1728C77.4229 19.118 77.2388 18.0953 76.9147 17.1048C76.785 16.7123 76.5898 16.3989 76.3291 16.1646C76.0683 15.921 75.7562 15.7285 75.3925 15.5872C75.3179 15.5683 75.2433 15.554 75.1686 15.5444C75.094 15.5254 75.0194 15.5065 74.9448 15.4875L74.8328 15.4731C74.6741 15.4726 74.5946 15.5609 74.5941 15.7383L74.6066 16.3403C74.6236 16.9844 74.636 17.6144 74.6438 18.2305C74.6609 18.8372 74.6782 19.3833 74.6957 19.8687C74.6945 20.3167 74.6932 20.8627 74.6915 21.5067C74.6899 22.1413 74.6929 22.7993 74.7005 23.4807C74.6998 23.77 74.7226 23.9708 74.769 24.083C74.8154 24.1858 74.9273 24.2375 75.1046 24.2382ZM71.9073 31.8425C71.8607 31.8423 71.8094 31.8375 71.7534 31.8279C71.7067 31.8278 71.6601 31.8229 71.6134 31.8134C71.1003 31.7276 70.8397 31.4233 70.8317 30.9006C70.8052 30.3031 70.7881 29.6824 70.7804 29.0384C70.7727 28.4037 70.765 27.7643 70.7573 27.1203C70.7589 26.4763 70.7606 25.8369 70.7622 25.2023C70.7638 24.5583 70.7653 23.9423 70.7668 23.3543L70.7719 21.3523C70.7731 20.8763 70.7696 20.4096 70.7614 19.9522C70.7626 19.4856 70.7545 19.0189 70.737 18.5521C70.7196 18.0387 70.7069 17.5254 70.6989 17.012C70.7002 16.4987 70.6922 15.9853 70.6748 15.4719L70.6754 15.2479C70.6857 14.8559 70.761 14.5855 70.9014 14.4367C71.0511 14.2786 71.322 14.1863 71.7141 14.1597L72.2461 14.1476L73.2821 14.1654L74.4021 14.1696L74.962 14.1996C75.7551 14.2958 76.4218 14.5503 76.9621 14.9629C77.5117 15.3756 77.9115 15.9744 78.1616 16.7594C78.5227 17.89 78.7298 19.0388 78.7828 20.2057L78.7825 20.3317C78.7823 20.4063 78.782 20.5183 78.7817 20.6677C78.7813 20.8076 78.7715 20.9989 78.7522 21.2415C78.7331 21.4281 78.7045 21.652 78.6665 21.9132C78.6285 22.1744 78.5858 22.4403 78.5385 22.7108C78.4723 23.0559 78.3548 23.3961 78.1859 23.7315C78.0264 24.0576 77.8063 24.3508 77.5257 24.6111C77.2543 24.8714 76.9225 25.0849 76.53 25.2514C76.1376 25.4087 75.6848 25.491 75.1714 25.4984C74.9848 25.4978 74.8681 25.5113 74.8213 25.5392C74.7746 25.567 74.751 25.6509 74.7507 25.7909L74.7479 26.8969C74.7471 27.2236 74.7415 27.5549 74.7314 27.8908C74.7305 28.2268 74.7297 28.5628 74.7288 28.8988C74.7284 29.0482 74.7281 29.1975 74.7277 29.3468C74.7273 29.4962 74.7316 29.6455 74.7405 29.7949L74.7933 31.0551C74.7924 31.4191 74.6052 31.6471 74.2316 31.739C74.1569 31.7574 74.0822 31.7665 74.0075 31.7662C73.9422 31.7753 73.8722 31.7844 73.7975 31.7934C73.4988 31.811 73.2001 31.8193 72.9014 31.8182C72.6027 31.8264 72.304 31.8346 72.0053 31.8429L71.9073 31.8425ZM81.4157 32.0034C81.0797 32.0021 80.8419 31.9406 80.7022 31.8188C80.5718 31.7063 80.5024 31.4727 80.4939 31.118C80.485 30.9593 80.4761 30.7959 80.4672 30.6279C80.4676 30.4692 80.468 30.3106 80.4684 30.1519L80.4838 29.6059L80.5158 27.9961C80.5171 27.4827 80.5044 26.974 80.4777 26.4699C80.4603 25.9565 80.4523 25.4431 80.4536 24.9298C80.4546 24.5191 80.4697 24.1039 80.4988 23.684L80.501 22.788C80.5307 22.1347 80.5557 21.4862 80.576 20.8422C80.6056 20.189 80.6212 19.5451 80.6228 18.9104C80.6244 18.3037 80.6119 17.6923 80.5855 17.0762L80.5734 16.3062C80.574 16.0915 80.5745 15.8862 80.575 15.6902C80.5849 15.4849 80.5947 15.2749 80.6046 15.0603C80.6239 14.7897 80.6851 14.5986 80.788 14.487C80.891 14.366 81.0779 14.2874 81.3486 14.251C81.7221 14.1964 82.1142 14.1698 82.5249 14.1713L82.8468 14.1725C83.3228 14.1743 83.7895 14.176 84.2468 14.1776C84.7042 14.17 85.1709 14.167 85.6469 14.1688C86.4309 14.1717 87.2102 14.1885 87.9847 14.2194C88.0501 14.2289 88.1154 14.2385 88.1807 14.2481C88.246 14.2576 88.3113 14.2719 88.3766 14.2908C88.5071 14.3379 88.6096 14.413 88.684 14.5159C88.7584 14.6189 88.7955 14.731 88.7951 14.8523L88.7949 14.9363C88.7569 15.2255 88.5931 15.4069 88.3036 15.4805C88.2569 15.4897 88.2055 15.4988 88.1495 15.508C88.1028 15.5078 88.0561 15.5076 88.0095 15.5075L87.9115 15.5071C87.7995 15.4974 87.6875 15.4923 87.5755 15.4919C87.4729 15.4915 87.3655 15.4911 87.2535 15.4907C86.9922 15.4897 86.7308 15.4934 86.4695 15.5018C86.2081 15.5102 85.9468 15.5186 85.6854 15.5269L85.3495 15.4977C85.2375 15.4973 85.1255 15.5015 85.0135 15.5105C84.9014 15.5194 84.7894 15.5236 84.6774 15.5232C84.4908 15.5226 84.3972 15.6109 84.3968 15.7882L84.3811 16.4602C84.3985 16.9642 84.4112 17.4683 84.4192 17.9723C84.4366 18.4764 84.4447 18.9851 84.4434 19.4984C84.4418 20.1144 84.4309 20.735 84.4107 21.3603C84.3904 21.9762 84.361 22.5361 84.3224 23.04C84.3128 23.1426 84.3079 23.2453 84.3076 23.3479C84.3074 23.4506 84.3071 23.5533 84.3068 23.6559L84.3063 23.8519C84.3061 23.9359 84.3106 24.0013 84.3198 24.048C84.3291 24.0947 84.3523 24.1321 84.3896 24.1602C84.4268 24.1884 84.4781 24.2072 84.5434 24.2168C84.6181 24.2264 84.7161 24.2314 84.8374 24.2319L85.1593 24.2471L85.7894 24.2354C85.9014 24.2358 86.0134 24.2409 86.1253 24.2506C86.2373 24.251 86.3493 24.2701 86.4612 24.3078C86.6104 24.355 86.7222 24.4395 86.7966 24.5611C86.8803 24.6734 86.922 24.7949 86.9216 24.9255C86.9214 25.0002 86.9166 25.0562 86.9072 25.0935C86.8789 25.2334 86.8085 25.3544 86.6963 25.4567C86.5934 25.5497 86.4719 25.5959 86.3319 25.5954L86.206 25.5809C86.1127 25.5619 86.024 25.5522 85.94 25.5519C85.8561 25.5423 85.7674 25.5373 85.6741 25.537L85.0301 25.5486L84.6101 25.5471C84.4887 25.5466 84.4047 25.5743 84.3578 25.6301C84.3204 25.6767 84.3015 25.7606 84.3012 25.8819L84.3009 25.9939C84.3191 26.19 84.3279 26.386 84.3274 26.582C84.327 26.7687 84.3265 26.96 84.326 27.156C84.325 27.5574 84.3194 27.9073 84.3093 28.206C84.3086 28.5046 84.3032 28.7659 84.2933 28.9899C84.2927 29.2232 84.2876 29.4286 84.2778 29.6059C84.2773 29.7925 84.2768 29.9745 84.2764 30.1519C84.2759 30.3479 84.2896 30.4739 84.3174 30.53C84.3453 30.5954 84.4292 30.6284 84.5692 30.6289L87.7896 30.4867C87.9202 30.4872 88.0368 30.5063 88.1394 30.544C88.4192 30.6477 88.5587 30.8396 88.558 31.1196L88.5579 31.1476C88.5572 31.3996 88.4308 31.5858 88.1785 31.7062C88.0757 31.7525 87.9729 31.7801 87.8703 31.789C87.7769 31.798 87.6789 31.8023 87.5762 31.802C86.9882 31.8185 86.4048 31.8443 85.826 31.8795C85.2566 31.9148 84.6826 31.9314 84.1039 31.9292C84.0479 31.929 83.9732 31.9288 83.8799 31.9284C83.7865 31.9374 83.6885 31.9417 83.5859 31.9413L83.2359 31.9401C82.9372 31.939 82.6338 31.9472 82.3258 31.9647C82.0271 31.9916 81.7237 32.0045 81.4157 32.0034ZM93.9085 31.9652C93.7125 31.9645 93.5166 31.9544 93.3206 31.935C93.134 31.925 92.9427 31.901 92.7468 31.8629C92.5322 31.8155 92.3784 31.7356 92.2854 31.6232C92.2017 31.5203 92.1507 31.3521 92.1327 31.1187C92.0514 30.0264 91.9842 28.9388 91.9309 27.8559C91.887 26.7824 91.8664 25.695 91.8692 24.5937L91.8859 23.5157C91.907 22.5545 91.9188 21.5978 91.9212 20.6458C91.933 19.6845 91.9634 18.714 92.0126 17.7341C92.032 17.4169 92.0515 17.109 92.0709 16.8104C92.0997 16.5025 92.1331 16.2226 92.171 15.9707L92.1712 15.9147C92.1715 15.7934 92.1437 15.7046 92.0878 15.6484C92.0413 15.5922 91.9527 15.5546 91.8221 15.5354C91.5795 15.5065 91.3416 15.4917 91.1082 15.4908C91.0242 15.4905 90.9356 15.4902 90.8422 15.4898C90.7582 15.4895 90.6742 15.4939 90.5902 15.5029C90.5062 15.4933 90.4222 15.4883 90.3382 15.488C90.2542 15.4877 90.1749 15.4781 90.1003 15.4591C89.9604 15.4213 89.8486 15.3509 89.7648 15.2479C89.6811 15.1449 89.6394 15.0234 89.6398 14.8834L89.6399 14.8414C89.6405 14.5894 89.7717 14.3986 90.0333 14.2689C90.1548 14.2226 90.2808 14.1998 90.4115 14.2003L90.5795 14.2149C91.5408 14.2277 92.4881 14.2405 93.4214 14.2533C94.364 14.2567 95.316 14.2602 96.2774 14.2638L97.2293 14.2673C97.3973 14.2679 97.584 14.2919 97.7892 14.3393C97.9477 14.3866 98.0688 14.4663 98.1526 14.5786C98.2456 14.6816 98.292 14.8032 98.2916 14.9432L98.2774 15.0411C98.2583 15.1904 98.1927 15.3161 98.0804 15.4184C97.9682 15.5113 97.8234 15.5621 97.6461 15.5708L96.4141 15.5663C96.3021 15.5659 96.2134 15.5702 96.148 15.5793C96.092 15.5791 96.05 15.5929 96.0219 15.6208C95.9938 15.6487 95.9704 15.6953 95.9516 15.7606C95.9421 15.8165 95.9325 15.9005 95.9229 16.0125C95.8181 16.8614 95.7506 17.7152 95.7204 18.5737C95.6996 19.423 95.6881 20.2723 95.686 21.1216L95.6802 23.4176C95.67 23.7443 95.6598 24.0756 95.6497 24.4115C95.6488 24.7382 95.648 25.0649 95.6472 25.3915C95.6461 25.8302 95.6496 26.2689 95.6578 26.7076C95.6661 27.1369 95.6883 27.571 95.7246 28.0098C95.7607 28.4673 95.7782 28.92 95.7771 29.368C95.776 29.8254 95.8121 30.2828 95.8856 30.7404C95.8949 30.7685 95.8995 30.7965 95.8994 30.8245C95.8993 30.8618 95.8992 30.8945 95.8992 30.9225L95.8845 31.1884C95.856 31.3843 95.7903 31.5381 95.6873 31.6497C95.5937 31.7614 95.4489 31.8308 95.2528 31.8581C95.0287 31.8946 94.8046 31.9218 94.5806 31.9396C94.3566 31.9575 94.1325 31.966 93.9085 31.9652ZM104.409 21.8816C104.232 21.881 104.12 21.9366 104.073 22.0484C104.026 22.1509 104.002 22.3468 104.002 22.6361C103.991 23.3174 103.984 23.9801 103.983 24.6241C103.981 25.2587 103.98 25.8001 103.978 26.2481C103.959 26.7333 103.938 27.2793 103.918 27.8859C103.907 28.5018 103.892 29.1318 103.871 29.7757L103.856 30.3776C103.856 30.555 103.935 30.6439 104.093 30.6445L104.205 30.6309C104.28 30.6125 104.355 30.5941 104.429 30.5758C104.504 30.5667 104.579 30.553 104.654 30.5346C105.018 30.3959 105.331 30.2057 105.593 29.964C105.855 29.7316 106.052 29.4197 106.183 29.0282C106.513 28.04 106.702 27.0187 106.751 25.9642C106.751 25.8989 106.751 25.8289 106.752 25.7542C106.761 25.6703 106.766 25.5816 106.766 25.4883C106.766 25.4416 106.767 25.395 106.767 25.3483C106.767 25.3016 106.762 25.2549 106.753 25.2082C106.735 25.0775 106.712 24.8908 106.684 24.648C106.666 24.3959 106.634 24.1345 106.588 23.8636C106.524 23.3874 106.367 22.9855 106.116 22.6579C105.874 22.3303 105.501 22.105 104.997 21.9818C104.979 21.9724 104.955 21.963 104.927 21.9535C104.899 21.9441 104.871 21.9393 104.843 21.9392C104.75 21.9202 104.666 21.9059 104.591 21.8963C104.526 21.8867 104.465 21.8818 104.409 21.8816ZM101.251 14.254L101.349 14.2544C101.647 14.2648 101.946 14.2752 102.245 14.2856C102.543 14.2867 102.842 14.2972 103.141 14.3169C103.215 14.3265 103.285 14.3361 103.351 14.3457C103.425 14.346 103.5 14.3556 103.574 14.3745C103.948 14.4692 104.134 14.6986 104.133 15.0626L104.074 16.3224C104.064 16.4717 104.059 16.621 104.058 16.7703C104.058 16.9196 104.058 17.069 104.057 17.2183C104.056 17.5543 104.056 17.8903 104.055 18.2263C104.063 18.5623 104.067 18.8937 104.066 19.2204L104.063 20.3263C104.063 20.4663 104.086 20.5504 104.133 20.5786C104.179 20.6068 104.296 20.6212 104.483 20.6219C104.996 20.6331 105.448 20.7234 105.84 20.8929C106.232 21.053 106.562 21.2642 106.832 21.5265C107.112 21.7889 107.33 22.0883 107.488 22.4249C107.655 22.7522 107.771 23.0886 107.836 23.4342C107.882 23.705 107.923 23.9712 107.96 24.2327C107.996 24.4941 108.024 24.7182 108.042 24.905C108.06 25.1477 108.069 25.3437 108.068 25.4931C108.068 25.6331 108.068 25.7404 108.068 25.8151L108.067 25.9411C108.008 27.1075 107.795 28.2547 107.429 29.3827C107.175 30.1658 106.772 30.7617 106.22 31.1703C105.678 31.579 105.01 31.8286 104.216 31.919L103.656 31.9449L102.536 31.9408L101.5 31.951L100.968 31.9351C100.576 31.9056 100.306 31.8113 100.157 31.6521C100.017 31.5022 99.9431 31.2313 99.9348 30.8393L99.9354 30.6153C99.9553 30.102 99.966 29.5887 99.9673 29.0754C99.9779 28.5621 99.9932 28.0488 100.013 27.5355C100.033 27.0689 100.044 26.607 100.045 26.1496C100.055 25.683 100.061 25.2117 100.062 24.7357L100.067 22.7337C100.069 22.1457 100.07 21.5344 100.072 20.8997C100.074 20.2557 100.075 19.6117 100.077 18.9677C100.088 18.3238 100.099 17.6845 100.11 17.0498C100.121 16.4059 100.141 15.7853 100.17 15.188C100.181 14.6654 100.443 14.363 100.957 14.2809C101.003 14.2718 101.05 14.2673 101.097 14.2674C101.153 14.2583 101.204 14.2538 101.251 14.254ZM121.47 30.6382C121.657 30.6389 121.839 30.6069 122.016 30.5422C122.194 30.4776 122.371 30.4035 122.549 30.3202C122.783 30.209 122.993 30.0792 123.18 29.9305C123.367 29.7912 123.531 29.6051 123.671 29.3723C123.812 29.1488 123.92 28.8692 123.995 28.5335C124.08 28.1978 124.133 27.7826 124.153 27.2881L124.139 27.05C124.13 26.9846 124.126 26.924 124.126 26.868C124.126 26.8026 124.126 26.7326 124.126 26.658C124.126 26.5926 124.126 26.532 124.127 26.476C124.127 26.4106 124.122 26.3453 124.113 26.2799C124.087 25.6638 123.849 25.3549 123.401 25.3533C123.289 25.3529 123.149 25.3757 122.981 25.4217C122.654 25.5232 122.323 25.6107 121.987 25.6841C121.65 25.7482 121.314 25.803 120.978 25.8484C120.838 25.8666 120.745 25.9082 120.698 25.9734C120.66 26.0292 120.642 26.1178 120.641 26.2392L120.565 28.5489L120.579 28.549C120.579 28.7916 120.578 29.0343 120.578 29.277C120.577 29.5196 120.581 29.7623 120.59 30.005C120.599 30.2104 120.635 30.3458 120.701 30.4114C120.766 30.4863 120.901 30.5475 121.106 30.5949C121.227 30.6233 121.349 30.6378 121.47 30.6382ZM120.73 24.4055C120.861 24.3406 120.987 24.2851 121.108 24.2389C121.239 24.1834 121.37 24.1232 121.501 24.0583C121.893 23.8731 122.216 23.6316 122.469 23.3339C122.731 23.0268 122.914 22.6635 123.017 22.2439C123.14 21.731 123.235 21.2226 123.301 20.7189C123.377 20.2058 123.416 19.688 123.417 19.1653C123.418 18.876 123.405 18.5866 123.377 18.2972C123.35 18.0077 123.313 17.7136 123.268 17.4147C123.231 17.2279 123.18 17.0504 123.115 16.8822C123.05 16.7046 122.966 16.5363 122.864 16.3773C122.706 16.162 122.52 16.0027 122.305 15.8992C122.1 15.7865 121.877 15.7296 121.634 15.7287C121.391 15.7279 121.172 15.7737 120.975 15.8663C120.901 15.9034 120.849 15.9452 120.821 15.9918C120.793 16.029 120.779 16.0849 120.779 16.1596L120.677 17.5033C120.658 17.8205 120.643 18.1331 120.633 18.4411C120.632 18.7491 120.631 19.0618 120.631 19.3791C120.629 20.0978 120.636 20.8118 120.653 21.5212C120.67 22.2306 120.678 22.9493 120.676 23.6773L120.674 24.2093C120.674 24.2279 120.679 24.256 120.688 24.2933C120.697 24.3214 120.711 24.3588 120.73 24.4055ZM120.067 32.0051C119.777 32.004 119.488 31.9936 119.199 31.9739C118.919 31.9542 118.639 31.9112 118.359 31.8448C118.144 31.7974 117.944 31.7313 117.758 31.6466C117.58 31.562 117.399 31.4773 117.212 31.3926C117.026 31.2986 116.905 31.1675 116.849 30.9993C116.803 30.8405 116.78 30.6677 116.78 30.481C116.772 30.061 116.764 29.641 116.756 29.2209C116.747 28.8102 116.744 28.3949 116.745 27.9749L116.868 23.4393C116.87 22.9073 116.866 22.3753 116.858 21.8433C116.85 21.3019 116.838 20.7652 116.82 20.2331L116.809 19.4071C116.81 18.7537 116.83 18.1005 116.869 17.4473C116.908 16.7941 116.943 16.1409 116.972 15.4877C116.982 15.245 117.039 15.0632 117.142 14.9423C117.254 14.812 117.446 14.7101 117.717 14.6364C118.034 14.5535 118.352 14.48 118.669 14.4159C118.987 14.3517 119.309 14.3109 119.635 14.2934L120.21 14.2815C120.76 14.2835 121.311 14.3276 121.861 14.4136C122.57 14.5188 123.148 14.7916 123.595 15.2319C124.042 15.6722 124.344 16.2474 124.501 16.9573C124.575 17.3029 124.625 17.6484 124.652 17.9938C124.689 18.33 124.706 18.6707 124.706 19.016C124.705 19.3707 124.685 19.73 124.647 20.0938C124.618 20.4577 124.58 20.8216 124.532 21.1854C124.485 21.5026 124.432 21.8197 124.376 22.1368C124.319 22.4446 124.239 22.7477 124.135 23.046C124.06 23.2137 123.976 23.3767 123.882 23.535C123.788 23.6934 123.69 23.8563 123.587 24.024C123.699 24.0617 123.801 24.0901 123.895 24.1091C123.988 24.1281 124.077 24.1564 124.16 24.1941C124.496 24.354 124.766 24.565 124.971 24.827C125.185 25.0798 125.315 25.393 125.36 25.7665C125.415 26.1587 125.442 26.5554 125.441 26.9568C125.441 27.0408 125.436 27.1714 125.426 27.3487C125.417 27.526 125.402 27.7126 125.383 27.9086C125.373 28.1045 125.359 28.2865 125.34 28.4544C125.321 28.6317 125.306 28.7623 125.297 28.8463C125.249 29.2008 125.15 29.5224 125 29.8112C124.859 30.1 124.663 30.3653 124.41 30.607C123.961 31.0067 123.484 31.3316 122.98 31.5818C122.475 31.8319 121.919 31.9652 121.313 31.9817C121.098 31.9902 120.888 31.9941 120.683 31.9934C120.487 32.002 120.281 32.0059 120.067 32.0051ZM131.858 32.0343C131.652 32.0242 131.447 32.0142 131.242 32.0041C131.046 32.0034 130.84 32.0026 130.626 32.0018L129.926 32.0132C129.636 32.0122 129.375 31.9599 129.142 31.8564C128.909 31.7622 128.704 31.6308 128.527 31.4621C128.359 31.2935 128.22 31.1017 128.108 30.8866C127.997 30.6715 127.914 30.4425 127.858 30.1997C127.757 29.7793 127.669 29.359 127.595 28.9387C127.531 28.5184 127.462 28.0935 127.389 27.6639C127.324 27.2717 127.274 26.8795 127.238 26.4874C127.211 26.0859 127.188 25.6752 127.171 25.2551C127.162 24.8351 127.154 24.401 127.146 23.953C127.147 23.505 127.144 23.0337 127.136 22.539L127.154 20.985C127.154 20.733 127.155 20.481 127.155 20.229C127.156 19.977 127.166 19.7297 127.185 19.4871C127.234 18.694 127.399 17.9479 127.681 17.2489C127.963 16.55 128.319 15.8746 128.75 15.2228C129.153 14.627 129.704 14.3303 130.404 14.3329L131.706 14.3377L132.406 14.3542C133.293 14.3855 134.062 14.715 134.714 15.3427C134.928 15.5488 135.105 15.7781 135.244 16.0307C135.383 16.2738 135.476 16.5448 135.522 16.8437L135.536 17.0397C135.535 17.1984 135.516 17.3337 135.478 17.4455C135.431 17.6133 135.352 17.7437 135.239 17.8366C135.127 17.9202 135.001 17.9618 134.861 17.9613L134.777 17.961C134.628 17.9417 134.502 17.8853 134.4 17.7916C134.297 17.6885 134.246 17.5483 134.247 17.371L134.247 17.287C134.248 16.8763 134.127 16.5586 133.885 16.3337C133.653 16.1088 133.373 15.9258 133.047 15.7846C132.953 15.7469 132.874 15.7186 132.809 15.6997C132.744 15.6808 132.678 15.6712 132.613 15.671C132.51 15.6706 132.422 15.703 132.347 15.768C132.272 15.8331 132.188 15.9354 132.094 16.0751C131.7 16.671 131.391 17.2952 131.165 17.9477C130.94 18.5909 130.817 19.2764 130.796 20.0044L130.776 22.3003C130.774 23.1123 130.782 23.8403 130.799 24.4844C130.816 25.1285 130.847 25.7493 130.892 26.3468C130.937 26.9349 131.01 27.5139 131.112 28.0836C131.213 28.6626 131.328 29.2464 131.457 29.8349C131.466 29.8816 131.476 29.9236 131.485 29.961C131.494 30.0077 131.508 30.0544 131.526 30.1011C131.684 30.503 131.917 30.7045 132.225 30.7057C132.337 30.7061 132.472 30.6786 132.631 30.6232C132.921 30.5122 133.187 30.3825 133.43 30.2341C133.673 30.0856 133.888 29.9044 134.075 29.6905C134.263 29.4858 134.413 29.2437 134.525 28.9641C134.638 28.6845 134.704 28.3674 134.724 28.0128L134.739 27.5369C134.74 27.2662 134.726 27.0002 134.699 26.7387C134.681 26.4773 134.654 26.2112 134.617 25.9404C134.608 25.847 134.599 25.7537 134.59 25.6603C134.581 25.5669 134.576 25.4689 134.576 25.3663C134.577 25.3196 134.577 25.2776 134.577 25.2403C134.577 25.2029 134.582 25.1609 134.591 25.1143C134.62 24.9371 134.69 24.7973 134.802 24.6951C134.914 24.5835 135.05 24.528 135.209 24.5286L135.237 24.5287C135.386 24.5292 135.516 24.581 135.628 24.6841C135.74 24.7779 135.81 24.9134 135.837 25.0909C135.883 25.5111 135.928 25.9312 135.974 26.3514C136.02 26.7622 136.042 27.1776 136.041 27.5976C136.04 27.7563 136.035 27.915 136.026 28.0736C136.016 28.2322 136.001 28.3908 135.982 28.5494C135.935 28.9973 135.812 29.4075 135.615 29.7801C135.418 30.1527 135.156 30.4878 134.829 30.7852C134.417 31.157 133.973 31.4588 133.496 31.6903C133.02 31.9219 132.488 32.0366 131.9 32.0345L131.858 32.0343ZM138.687 32.2134C138.351 32.2121 138.113 32.1506 137.973 32.0288C137.843 31.9163 137.773 31.6827 137.765 31.328C137.756 31.1693 137.747 31.0059 137.738 30.8379C137.739 30.6792 137.739 30.5206 137.739 30.3619L137.755 29.8159L137.787 28.2061C137.788 27.6927 137.776 27.184 137.749 26.6799C137.731 26.1665 137.723 25.6531 137.725 25.1398C137.726 24.7291 137.741 24.3139 137.77 23.894L137.772 22.998C137.802 22.3447 137.827 21.6962 137.847 21.0522C137.877 20.399 137.892 19.7551 137.894 19.1204C137.895 18.5137 137.883 17.9023 137.857 17.2862L137.845 16.5162C137.845 16.3015 137.846 16.0962 137.846 15.9002C137.856 15.6949 137.866 15.4849 137.876 15.2703C137.895 14.9997 137.956 14.8086 138.059 14.697C138.162 14.576 138.349 14.4974 138.62 14.461C138.993 14.4064 139.385 14.3798 139.796 14.3813L140.118 14.3825C140.594 14.3843 141.061 14.386 141.518 14.3876C141.975 14.38 142.442 14.377 142.918 14.3788C143.702 14.3817 144.481 14.3985 145.256 14.4294C145.321 14.4389 145.386 14.4485 145.452 14.4581C145.517 14.4676 145.582 14.4819 145.648 14.5008C145.778 14.5479 145.881 14.623 145.955 14.7259C146.03 14.8289 146.067 14.941 146.066 15.0623L146.066 15.1463C146.028 15.4355 145.864 15.6169 145.575 15.6905C145.528 15.6997 145.477 15.7088 145.421 15.718C145.374 15.7178 145.327 15.7176 145.281 15.7175L145.183 15.7171C145.071 15.7073 144.959 15.7023 144.847 15.7019C144.744 15.7015 144.637 15.7011 144.525 15.7007C144.263 15.6997 144.002 15.7034 143.741 15.7118C143.479 15.7202 143.218 15.7286 142.957 15.7369L142.621 15.7077C142.509 15.7073 142.397 15.7115 142.285 15.7205C142.173 15.7294 142.061 15.7336 141.949 15.7332C141.762 15.7326 141.668 15.8209 141.668 15.9982L141.652 16.6702C141.67 17.1742 141.682 17.6783 141.69 18.1823C141.708 18.6864 141.716 19.1951 141.714 19.7084C141.713 20.3244 141.702 20.945 141.682 21.5703C141.662 22.1862 141.632 22.7461 141.594 23.25C141.584 23.3526 141.579 23.4553 141.579 23.5579C141.578 23.6606 141.578 23.7633 141.578 23.8659L141.577 24.0619C141.577 24.1459 141.582 24.2113 141.591 24.258C141.6 24.3047 141.623 24.3421 141.661 24.3702C141.698 24.3984 141.749 24.4172 141.815 24.4268C141.889 24.4364 141.987 24.4414 142.108 24.4419L142.43 24.4571L143.06 24.4454C143.172 24.4458 143.284 24.4509 143.396 24.4606C143.508 24.461 143.62 24.4801 143.732 24.5178C143.882 24.565 143.993 24.6495 144.068 24.7711C144.151 24.8834 144.193 25.0049 144.193 25.1355C144.193 25.2102 144.188 25.2662 144.178 25.3035C144.15 25.4434 144.08 25.5644 143.967 25.6667C143.864 25.7597 143.743 25.8059 143.603 25.8054L143.477 25.7909C143.384 25.7719 143.295 25.7622 143.211 25.7619C143.127 25.7523 143.039 25.7473 142.945 25.747L142.301 25.7586L141.881 25.757C141.76 25.7566 141.676 25.7843 141.629 25.8401C141.591 25.8867 141.573 25.9706 141.572 26.0919L141.572 26.2039C141.59 26.4 141.599 26.596 141.599 26.792C141.598 26.9787 141.598 27.17 141.597 27.366C141.596 27.7673 141.591 28.1173 141.58 28.416C141.58 28.7146 141.574 28.9759 141.564 29.1999C141.564 29.4332 141.559 29.6386 141.549 29.8159C141.548 30.0025 141.548 30.1845 141.548 30.3619C141.547 30.5579 141.561 30.6839 141.589 30.74C141.616 30.8054 141.7 30.8384 141.84 30.8389L145.061 30.6967C145.191 30.6972 145.308 30.7163 145.411 30.754C145.69 30.8577 145.83 31.0496 145.829 31.3296L145.829 31.3576C145.828 31.6096 145.702 31.7958 145.45 31.9162C145.347 31.9625 145.244 31.9901 145.141 31.999C145.048 32.008 144.95 32.0123 144.847 32.012C144.259 32.0285 143.676 32.0543 143.097 32.0895C142.528 32.1248 141.954 32.1414 141.375 32.1392C141.319 32.139 141.244 32.1388 141.151 32.1384C141.058 32.1474 140.96 32.1517 140.857 32.1513L140.507 32.15C140.208 32.149 139.905 32.1572 139.597 32.1747C139.298 32.2016 138.995 32.2145 138.687 32.2134Z" fill="white"/>
</svg>
