<svg width="20" height="20" viewBox="0 0 20 20" fill="none" xmlns="http://www.w3.org/2000/svg">
<g clip-path="url(#clip0_171:252)">
<path d="M19.361 2.65436C18.5612 0.0174679 16.128 0.418146 13.8602 0.427013C10.7294 0.43918 6.36126 -0.646858 3.56589 1.2162C1.64695 2.49516 0.888174 5.2763 0.436766 7.38218C-0.14693 10.1047 -0.180955 13.0498 0.551525 15.7441C1.0515 17.5834 2.71102 19.9974 4.82319 19.6177C6.18103 19.8872 7.54453 19.915 8.94278 19.8451C10.7168 19.7567 12.797 19.7239 14.4785 19.1318C14.5275 19.1144 14.5684 19.0833 14.6049 19.0475C15.1189 18.9807 15.6337 18.9008 16.1501 18.7937C18.6418 18.2771 19.118 15.9156 19.4131 13.7287C19.911 10.0366 20.4608 6.27851 19.361 2.65436ZM2.03752 5.90402C2.0303 5.94165 2.0301 5.97949 2.03443 6.01682C1.97607 6.31449 1.91802 6.61216 1.86719 6.90994C1.85842 6.92819 1.84739 6.94345 1.84151 6.96541C1.6918 7.53065 1.55714 8.09703 1.43331 8.66422C1.42959 8.66701 1.42537 8.66917 1.42176 8.67206C1.53889 7.90865 1.6785 7.22741 1.81264 6.6964C1.88007 6.42966 1.96029 6.14354 2.05031 5.85133C2.0467 5.86948 2.04092 5.88577 2.03752 5.90402ZM4.10907 15.9378C4.06741 15.8583 4.02813 15.7773 3.98389 15.6998C4.05782 15.7271 4.12959 15.7576 4.20011 15.7904C4.35653 15.9843 4.50572 16.1835 4.64925 16.3869C4.45891 16.2483 4.28012 16.0972 4.10907 15.9378ZM6.43478 4.02384C6.40776 3.94558 6.38178 3.86701 6.35734 3.78793C6.5251 3.71998 6.69244 3.6511 6.86041 3.58377C6.72585 3.73534 6.5848 3.88268 6.43478 4.02384ZM6.97032 5.62903C7.14684 5.42054 7.31233 5.20639 7.46936 4.98697C7.5104 4.95738 7.55237 4.92882 7.59258 4.8982C7.43524 5.13462 7.28789 5.37899 7.14447 5.62635C7.08642 5.62717 7.02837 5.62841 6.97032 5.62903ZM8.92144 12.2367C8.93164 11.984 8.94825 11.7325 8.9466 11.4773C8.94598 11.3899 8.91566 11.3261 8.87298 11.2781C8.94422 11.2751 9.01753 11.2764 9.08724 11.2703C9.01176 11.5894 8.96124 11.9123 8.92144 12.2367ZM14.1211 10.0378C13.7139 10.0565 13.6372 10.5299 13.88 10.7343C13.6373 11.5019 13.6681 12.3168 13.6301 13.1429C13.5716 14.4162 13.6055 15.6904 13.6764 16.9624C12.4534 17.0558 11.2256 17.1766 9.99747 17.3025C10.0834 16.6638 9.93747 15.8838 9.92695 15.3377C9.90251 14.0675 9.8423 12.7623 10.0327 11.5019C10.0586 11.3305 10.0309 11.1708 9.92458 11.0495C10.212 10.8411 10.1728 10.4175 9.80291 10.2712C9.15652 10.0157 8.26752 10.1077 7.51019 10.1444C7.35976 9.39908 7.36399 8.56132 7.52174 7.81997C8.06976 7.78832 8.61747 7.74027 9.16436 7.69923C9.46574 7.67665 9.58432 7.41847 9.52947 7.20236C9.53916 7.18524 9.55143 7.16916 9.55844 7.15101C9.73733 6.68609 9.76208 6.20282 9.90581 5.72533C10.1661 4.86046 10.9037 4.14757 11.5996 3.62089C12.9173 2.62322 14.6004 2.31266 16.1999 2.57362C16.2701 3.33497 16.3877 4.08808 16.4868 4.84499C16.2865 4.83097 16.0828 4.83881 15.9022 4.84211C15.3067 4.85314 14.716 4.95161 14.1211 4.97109C13.8489 4.98006 13.6106 5.19443 13.6151 5.47705C13.6219 5.90845 13.7246 6.34862 13.7734 6.78147L13.7735 6.78167C13.5981 7.03944 13.7102 7.47611 14.1211 7.489C14.5886 7.50364 15.0555 7.51395 15.5232 7.50075C15.7639 7.49395 16.065 7.48755 16.3457 7.43816C16.2623 7.82915 16.2688 8.25292 16.2541 8.64608C16.2382 9.07078 16.2384 9.50363 16.2569 9.93513C16.0881 9.9438 15.9192 9.95586 15.7518 9.96349C15.2083 9.98834 14.6647 10.0131 14.1211 10.0378ZM16.3364 11.6992C16.3201 11.5381 16.3116 11.3786 16.2919 11.2165C16.2766 11.0881 16.1895 10.9863 16.083 10.9282C16.1688 10.9337 16.2546 10.9401 16.3404 10.943C16.3452 10.9817 16.3477 11.021 16.3529 11.0594C16.3653 11.1512 16.4145 11.2198 16.4811 11.2665C16.4311 11.4107 16.3814 11.5551 16.3364 11.6992ZM18.1357 14.0293C18.0119 14.9441 17.8052 15.6461 17.486 16.1867C17.7243 15.4408 17.9465 14.694 18.1477 13.9445C18.1437 13.9722 18.1393 14.0012 18.1357 14.0293Z" fill="#FFD4E4"/>
</g>
<defs>
<clipPath id="clip0_171:252">
<rect width="20" height="20" fill="white"/>
</clipPath>
</defs>
</svg>
