<svg width="178" height="20" viewBox="0 0 178 20" fill="none" xmlns="http://www.w3.org/2000/svg">
<path d="M10.3139 18.3116C10.1739 18.3112 10.034 18.3061 9.89398 18.2963C9.76332 18.2959 9.628 18.2909 9.48803 18.2811C9.23609 18.2617 9.05432 18.1865 8.94273 18.0555C8.83111 17.9338 8.77106 17.7377 8.76258 17.467C8.71898 16.4868 8.67992 15.5487 8.64539 14.6526C8.62017 13.7659 8.60911 12.8278 8.61221 11.8385L8.6464 9.86459L8.66268 9.13663C8.66464 8.5113 8.65258 7.8906 8.62651 7.27452C8.60047 6.6491 8.58843 6.02373 8.59039 5.3984L8.59219 4.8244C8.6122 4.39513 8.61821 3.96581 8.61022 3.53645C8.60224 3.10709 8.62225 2.67782 8.67026 2.24862L8.67052 2.16463C8.67108 1.98729 8.55937 1.89363 8.3354 1.88363L8.0694 1.88284C7.65874 1.88163 7.24801 1.89908 6.83723 1.93519C6.43581 1.962 6.02977 1.9748 5.61911 1.97358L4.41507 1.98402C4.19107 1.98335 4.07407 2.09034 4.06406 2.30498C4.06383 2.37964 4.05894 2.44963 4.0494 2.51494C4.03989 2.57091 4.03504 2.63156 4.03483 2.69689L4.0125 5.35684C4.01133 5.73017 4.01017 6.09884 4.00903 6.46283C4.00789 6.82683 4.01607 7.19552 4.03357 7.56891C4.04211 7.82094 4.05065 8.07296 4.0592 8.32499C4.06774 8.57702 4.07162 8.82903 4.07083 9.08103L4.0549 9.69698C4.03544 9.94893 4.02532 10.2009 4.02453 10.4529C4.02377 10.6956 4.02299 10.9429 4.0222 11.1949C4.02115 11.5309 4.02013 11.8576 4.01913 12.1749C4.0275 12.4829 4.03589 12.7863 4.04428 13.085C4.05268 13.3837 4.05638 13.6917 4.05539 14.009C4.06376 14.317 4.06741 14.639 4.06636 14.975L4.06535 15.297C4.06442 15.5957 4.07747 15.8991 4.1045 16.2072C4.14087 16.5153 4.15855 16.828 4.15756 17.1453L4.15721 17.2573C4.14691 17.5653 4.08556 17.7844 3.97315 17.9148C3.87007 18.0451 3.66445 18.1379 3.35627 18.193C3.12282 18.2296 2.88942 18.2522 2.65606 18.2609C2.42267 18.2789 2.18464 18.2875 1.94197 18.2868L1.24202 18.2707C0.943413 18.2511 0.733633 18.1805 0.612681 18.0588C0.501061 17.9372 0.436386 17.727 0.418655 17.4282C0.366399 16.2334 0.32333 15.0853 0.289448 13.9838C0.255565 12.8824 0.240496 11.7344 0.244239 10.5397L0.264944 3.93173C0.266114 3.5584 0.271936 3.18975 0.28241 2.82578C0.292913 2.45247 0.322083 2.07922 0.369919 1.70603C0.389112 1.53809 0.417551 1.39817 0.455235 1.28628C0.492919 1.17439 0.54453 1.08588 0.610067 1.02074C0.684968 0.946294 0.778476 0.890571 0.890593 0.85357C1.01204 0.816596 1.1568 0.789025 1.32485 0.770856C1.633 0.725102 1.94109 0.698015 2.24911 0.689594C2.55714 0.681173 2.86982 0.677433 3.18715 0.678373L4.5871 0.696521C4.77377 0.697074 4.95577 0.697614 5.1331 0.698139C5.31977 0.698692 5.50646 0.689912 5.69319 0.671798C6.04791 0.654182 6.40263 0.636566 6.75736 0.61895C7.12141 0.601362 7.48077 0.593094 7.83544 0.594145L8.08744 0.594891C8.69407 0.606022 9.29135 0.626458 9.87926 0.6562C10.4765 0.676636 11.0738 0.706406 11.671 0.745509C11.9603 0.765032 12.1654 0.83564 12.2863 0.957333C12.4166 1.06972 12.4814 1.25658 12.4806 1.51791L12.466 1.69987C12.4178 2.19439 12.3836 2.6843 12.3634 3.16957C12.3525 3.65487 12.3463 4.14486 12.3448 4.63952C12.3432 5.13419 12.3464 5.6242 12.3542 6.10956C12.362 6.59492 12.3745 7.08495 12.3916 7.57967L12.4028 8.46171C12.4012 8.98438 12.3902 9.50234 12.3699 10.0156C12.359 10.5289 12.3527 11.0422 12.3511 11.5556L12.3749 12.8856C12.3832 13.2403 12.3914 13.581 12.3997 13.9077C12.4081 14.2344 12.4117 14.5564 12.4107 14.8738C12.419 15.2005 12.4274 15.5225 12.4357 15.8398C12.4533 16.1666 12.4756 16.5073 12.5025 16.862L12.5007 17.422C12.4907 17.6553 12.4341 17.8278 12.3311 17.9395C12.2281 18.0606 12.0645 18.1441 11.8403 18.1901C11.3361 18.2726 10.8273 18.3131 10.3139 18.3116ZM18.6548 10.7062C18.7108 10.7064 18.7715 10.7019 18.8368 10.6928C18.9115 10.6837 18.9956 10.6699 19.089 10.6515C19.117 10.6516 19.145 10.647 19.173 10.6378C19.201 10.6285 19.2244 10.6193 19.2431 10.61C19.7475 10.4901 20.1215 10.2673 20.3652 9.94131C20.6182 9.61539 20.7781 9.21453 20.845 8.73872C20.8925 8.4682 20.926 8.21163 20.9454 7.96902C20.9742 7.7171 20.9981 7.52584 21.0172 7.39523C21.0267 7.34859 21.0315 7.30194 21.0316 7.25527C21.0318 7.2086 21.0319 7.16194 21.0321 7.11527C21.0323 7.02194 21.0279 6.93793 21.0188 6.86323C21.0191 6.77923 21.0193 6.70457 21.0195 6.63923C20.9762 5.58443 20.7927 4.56188 20.4692 3.57159C20.3397 3.1792 20.1447 2.86596 19.8841 2.63185C19.6235 2.38841 19.3115 2.19615 18.9479 2.05507C18.8733 2.03619 18.7987 2.02197 18.724 2.01241C18.6494 1.99352 18.5748 1.97464 18.5002 1.95575L18.3883 1.94142C18.2296 1.94095 18.15 2.02938 18.1494 2.20671L18.1615 2.80875C18.1782 3.4528 18.1902 4.08284 18.1976 4.69886C18.2144 5.30558 18.2313 5.85163 18.2485 6.33702C18.2471 6.78502 18.2454 7.33102 18.2433 7.97501C18.2414 8.60968 18.244 9.26769 18.2512 9.94905C18.2503 10.2384 18.273 10.4391 18.3193 10.5512C18.3656 10.6541 18.4775 10.7057 18.6548 10.7062ZM15.4529 18.3128C15.4063 18.3127 15.355 18.3078 15.299 18.2983C15.2523 18.2982 15.2057 18.2934 15.159 18.2839C14.646 18.1984 14.3856 17.8943 14.3779 17.3716C14.3518 16.7742 14.335 16.1535 14.3277 15.5094C14.3204 14.8748 14.313 14.2354 14.3057 13.5914C14.3077 12.9474 14.3098 12.308 14.3117 11.6734C14.3138 11.0294 14.3157 10.4134 14.3175 9.82539L14.3238 7.8234C14.3253 7.3474 14.3221 6.88072 14.3142 6.42337C14.3157 5.9567 14.3078 5.49001 14.2906 5.02329C14.2735 4.5099 14.2611 3.99653 14.2534 3.48317C14.255 2.96984 14.2473 2.45648 14.2302 1.9431L14.2309 1.7191C14.2415 1.32713 14.317 1.05668 14.4575 0.907765C14.6073 0.749542 14.8783 0.657011 15.2703 0.630172L15.8024 0.617749L16.8383 0.634818L17.9583 0.638136L18.5182 0.667796C19.3113 0.763479 19.9778 1.01745 20.5179 1.42972C21.0672 1.84202 21.4667 2.44054 21.7162 3.22528C22.0767 4.35569 22.2831 5.5043 22.3355 6.67113L22.3351 6.79713C22.3348 6.8718 22.3345 6.9838 22.334 7.13313C22.3336 7.27313 22.3236 7.46443 22.3042 7.70704C22.285 7.89365 22.2563 8.11757 22.2181 8.37879C22.1799 8.64001 22.1371 8.90589 22.0896 9.17641C22.0232 9.52155 21.9055 9.86187 21.7364 10.1974C21.5767 10.5236 21.3565 10.8169 21.0756 11.0774C20.8042 11.3379 20.4722 11.5516 20.0796 11.7185C19.6871 11.876 19.2342 11.9586 18.7208 11.9664C18.5342 11.9659 18.4175 11.9795 18.3707 12.0074C18.324 12.0353 18.3004 12.1192 18.2999 12.2592L18.2965 13.3652C18.2954 13.6919 18.2897 14.0232 18.2793 14.3591C18.2783 14.6951 18.2772 15.0311 18.2762 15.3671C18.2757 15.5165 18.2752 15.6658 18.2748 15.8151C18.2743 15.9645 18.2785 16.1138 18.2874 16.2632L18.3394 17.5233C18.3383 17.8873 18.1509 18.1155 17.7773 18.2077C17.7026 18.2261 17.6279 18.2352 17.5532 18.235C17.4878 18.2442 17.4178 18.2533 17.3431 18.2624C17.0444 18.2802 16.7457 18.2886 16.447 18.2877C16.1483 18.2962 15.8496 18.3046 15.5509 18.3131L15.4529 18.3128ZM29.334 16.9679C29.5393 16.9685 29.7217 16.8291 29.8813 16.5495C29.947 16.4284 29.9987 16.3072 30.0364 16.186C30.0834 16.0741 30.1305 15.9529 30.1776 15.8224C30.5168 14.7781 30.7675 13.7241 30.9295 12.6606C31.1008 11.5971 31.2069 10.5101 31.2477 9.39955L31.248 9.30155C31.2516 8.13489 31.1478 7.01458 30.9365 5.94061C30.7346 4.85734 30.458 3.77852 30.1067 2.70414C30.0881 2.65742 30.0696 2.61536 30.0511 2.57797C30.0325 2.54058 30.014 2.49853 29.9954 2.45181C29.8376 2.19934 29.628 2.07272 29.3666 2.07194C29.264 2.07164 29.1565 2.09932 29.0444 2.15499C28.9416 2.20135 28.8527 2.27575 28.7777 2.3782C28.6183 2.5924 28.4963 2.81603 28.4116 3.04912C28.3268 3.2822 28.2514 3.51998 28.1853 3.76245C27.9868 4.5552 27.849 5.35279 27.7718 6.15524C27.6947 6.94834 27.6315 7.75549 27.5822 8.57668C27.563 8.7633 27.5531 8.94993 27.5525 9.1366C27.5519 9.32326 27.5513 9.50993 27.5507 9.6966C27.5474 10.7699 27.6188 11.8015 27.765 12.7912C27.9113 13.781 28.1229 14.7663 28.3998 15.7471C28.4459 15.9059 28.4968 16.0554 28.5524 16.1956C28.6079 16.3451 28.6868 16.4853 28.7891 16.6163C28.9657 16.8502 29.1473 16.9674 29.334 16.9679ZM26.8517 18.3186C26.637 18.3179 26.4459 18.266 26.2782 18.1629C26.1198 18.0691 25.9662 17.9519 25.8173 17.8115C25.5754 17.5774 25.3848 17.3202 25.2457 17.0398C25.1159 16.7594 25.0048 16.4651 24.9125 16.1568C24.6078 15.0919 24.3778 14.0272 24.2225 12.9627C24.0765 11.889 24.0053 10.7781 24.0089 9.6301C24.0103 9.1821 24.0258 8.72481 24.0552 8.25823C24.1045 7.42771 24.1771 6.61125 24.2729 5.80887C24.3688 4.99715 24.516 4.19025 24.7145 3.38817C24.9318 2.55814 25.3074 1.83592 25.8413 1.22149C25.9537 1.08183 26.0754 0.970187 26.2063 0.886575C26.3373 0.802962 26.4961 0.752099 26.6828 0.733985C26.9349 0.716066 27.1869 0.698146 27.439 0.680225C27.691 0.662306 27.9477 0.653733 28.2091 0.654507C28.5077 0.655392 28.8017 0.67493 29.0909 0.71312C29.3801 0.741977 29.6693 0.798834 29.9584 0.88369C30.322 0.987435 30.6155 1.16097 30.8387 1.4043C31.062 1.64763 31.229 1.94679 31.3399 2.30179C31.5987 3.12389 31.8248 3.95057 32.0182 4.78181C32.2209 5.60375 32.3629 6.44884 32.4442 7.31708C32.4713 7.59717 32.4938 7.87723 32.5116 8.15729C32.5387 8.42804 32.5519 8.69874 32.551 8.96941L32.5501 9.27741C32.4996 10.4999 32.3838 11.6896 32.2029 12.8464C32.0313 13.9939 31.7617 15.1271 31.3942 16.246C31.3471 16.4045 31.2953 16.5537 31.2388 16.6936C31.1824 16.8427 31.1166 16.9872 31.0415 17.127C30.7314 17.7794 30.2076 18.1558 29.4699 18.2563C29.2365 18.293 29.0031 18.3156 28.7697 18.3242C28.5457 18.3329 28.317 18.3369 28.0837 18.3362L26.8517 18.3186ZM39.0797 0.658714C39.3317 0.65946 39.5836 0.674207 39.8355 0.702954C40.0875 0.722367 40.3347 0.7511 40.5773 0.789151C41.0438 0.846534 41.4119 1.02496 41.6816 1.32443C41.9607 1.62392 42.1649 1.98853 42.2942 2.41825C42.4051 2.77324 42.4786 3.1328 42.5148 3.4969C42.5603 3.85171 42.5919 4.21114 42.6094 4.57519L42.8347 8.62187C42.8528 8.79926 42.8613 9.07462 42.8601 9.44795C42.859 9.81195 42.8579 10.1759 42.8567 10.5399C42.8558 10.8386 42.855 11.1046 42.8542 11.3379C42.8535 11.5619 42.8484 11.7066 42.8389 11.7719C42.7981 12.8825 42.7435 13.895 42.6753 14.8094C42.6165 15.7239 42.5437 16.6197 42.4569 17.4968C42.4187 17.7953 42.334 18.0051 42.203 18.126C42.0719 18.247 41.8524 18.3163 41.5443 18.3341C41.3016 18.352 41.0542 18.3653 40.8022 18.3739C40.5594 18.3918 40.3168 18.4005 40.0741 18.3997C39.9808 18.3995 39.8921 18.3992 39.8081 18.3989C39.7241 18.3987 39.6354 18.3938 39.5421 18.3842C39.2156 18.3552 38.9871 18.2845 38.8568 18.1721C38.7358 18.0691 38.6757 17.8776 38.6766 17.5976L38.6913 17.3736C38.73 16.9351 38.7687 16.5012 38.8074 16.072C38.8461 15.6428 38.8801 15.2042 38.9095 14.7563C38.9486 14.1964 38.983 13.6412 39.0127 13.0906C39.0425 12.5307 39.0722 11.9707 39.102 11.4108L39.1028 11.1588C39.1032 11.0095 39.0992 10.8228 39.0905 10.5988C39.0913 10.3655 39.0873 10.1321 39.0787 9.89875C39.0795 9.65609 39.0755 9.42741 39.0669 9.21271C39.0676 8.98871 39.0635 8.81137 39.0545 8.68067C39.0101 7.97121 38.9703 7.26642 38.9352 6.56631C38.9 5.85687 38.8603 5.13808 38.8159 4.40995C38.7979 4.21389 38.7751 4.01783 38.7478 3.82174C38.7297 3.62569 38.707 3.42962 38.6796 3.23354C38.6705 3.15885 38.6567 3.08881 38.6383 3.02342C38.6198 2.94869 38.6014 2.87397 38.583 2.79925C38.5275 2.64042 38.4486 2.50019 38.3463 2.37855C38.2534 2.24761 38.1229 2.16789 37.955 2.13939L37.8571 2.1251C37.7077 2.12466 37.5816 2.17562 37.4786 2.27798C37.3849 2.38037 37.2959 2.49677 37.2115 2.62719C36.9864 2.98119 36.8125 3.35401 36.69 3.74565C36.5674 4.13729 36.4542 4.53362 36.3503 4.93465C36.1611 5.73676 36.0279 6.53436 35.9508 7.32747C35.8736 8.12058 35.8244 8.92311 35.8032 9.73505C35.8028 9.85638 35.8025 9.97771 35.8021 10.099C35.8017 10.211 35.792 10.3277 35.773 10.449C35.7059 10.9901 35.6576 11.536 35.6278 12.0865C35.5981 12.6371 35.5777 13.1924 35.5666 13.7524C35.5556 14.303 35.5491 14.863 35.5474 15.4323C35.5456 16.0016 35.5391 16.5803 35.5279 17.1683C35.5276 17.2709 35.5226 17.3689 35.513 17.4622C35.5127 17.5649 35.503 17.6675 35.484 17.7701C35.4368 17.9567 35.357 18.0964 35.2447 18.1894C35.1417 18.2918 35.0109 18.3427 34.8522 18.3423L34.7682 18.342C34.3951 18.2942 34.2091 18.0557 34.2105 17.6264C34.2216 17.0571 34.2326 16.5204 34.2435 16.0165C34.2544 15.5218 34.2606 15.0318 34.2621 14.5465C34.2737 13.8372 34.2946 13.1326 34.3248 12.4327C34.355 11.7234 34.4085 11.0143 34.4854 10.3051C34.5336 9.81995 34.5584 9.33936 34.5599 8.86336C34.5708 8.37806 34.6003 7.88814 34.6485 7.39362C34.7254 6.69384 34.8256 5.9988 34.9491 5.3085C35.0819 4.61822 35.2614 3.93742 35.4875 3.26608C35.5723 3.005 35.6757 2.75797 35.7978 2.525C35.9199 2.28269 36.0513 2.04508 36.192 1.81216C36.3609 1.52333 36.5716 1.30462 36.8241 1.15603C37.0859 0.998142 37.371 0.882319 37.6792 0.808566C37.9127 0.753257 38.1415 0.716602 38.3655 0.698598C38.599 0.67129 38.837 0.657995 39.0797 0.658714ZM49.869 17.0288C50.0744 17.0294 50.2568 16.8899 50.4163 16.6104C50.4821 16.4892 50.5338 16.3681 50.5715 16.2468C50.6185 16.135 50.6655 16.0138 50.7126 15.8832C51.0519 14.8389 51.3025 13.785 51.4645 12.7215C51.6359 11.658 51.7419 10.5709 51.7827 9.46039L51.7831 9.36239C51.7867 8.19573 51.6829 7.07542 51.4716 6.00145C51.2696 4.91818 50.993 3.83936 50.6417 2.76498C50.6232 2.71826 50.6047 2.6762 50.5861 2.63881C50.5676 2.60143 50.549 2.55937 50.5305 2.51265C50.3726 2.26018 50.163 2.13356 49.9017 2.13278C49.799 2.13248 49.6916 2.16016 49.5794 2.21583C49.4766 2.26219 49.3877 2.3366 49.3127 2.43904C49.1534 2.65324 49.0314 2.87688 48.9466 3.10996C48.8619 3.34304 48.7865 3.58082 48.7204 3.82329C48.5219 4.61604 48.3841 5.41363 48.3069 6.21608C48.2297 7.00918 48.1665 7.81633 48.1173 8.63753C48.0981 8.82414 48.0881 9.01077 48.0876 9.19744C48.087 9.38411 48.0864 9.57077 48.0858 9.75744C48.0824 10.8308 48.1539 11.8623 48.3001 12.8521C48.4463 13.8419 48.6579 14.8272 48.9348 15.808C48.981 15.9668 49.0319 16.1163 49.0874 16.2564C49.143 16.4059 49.2219 16.5462 49.3241 16.6771C49.5007 16.911 49.6824 17.0282 49.869 17.0288ZM47.3868 18.3794C47.1721 18.3788 46.9809 18.3269 46.8133 18.2237C46.6549 18.1299 46.5013 18.0128 46.3524 17.8723C46.1104 17.6383 45.9199 17.3811 45.7808 17.1006C45.651 16.8203 45.5399 16.5259 45.4475 16.2176C45.1429 15.1527 44.9129 14.0881 44.7575 13.0236C44.6116 11.9498 44.5404 10.8389 44.544 9.69094C44.5454 9.24295 44.5608 8.78566 44.5903 8.31907C44.6396 7.48855 44.7121 6.67209 44.808 5.86971C44.9038 5.05799 45.051 4.25109 45.2496 3.44901C45.4668 2.61898 45.8424 1.89676 46.3763 1.28234C46.4888 1.14267 46.6105 1.03103 46.7414 0.947415C46.8723 0.863803 47.0312 0.81294 47.2179 0.794826C47.4699 0.776906 47.722 0.758986 47.974 0.741066C48.2261 0.723146 48.4828 0.714574 48.7441 0.715348C49.0428 0.716233 49.3367 0.73577 49.626 0.773961C49.9152 0.802818 50.2044 0.859674 50.4934 0.944531C50.8571 1.04828 51.1506 1.22181 51.3738 1.46514C51.597 1.70847 51.7641 2.00763 51.875 2.36263C52.1337 3.18473 52.3598 4.01141 52.5532 4.84265C52.756 5.66459 52.898 6.50968 52.9793 7.37792C53.0064 7.65801 53.0289 7.93807 53.0466 8.21813C53.0738 8.48888 53.0869 8.75958 53.0861 9.03025L53.0851 9.33825C53.0346 10.5608 52.9189 11.7504 52.738 12.9072C52.5664 14.0547 52.2968 15.1879 51.9293 16.3069C51.8821 16.4654 51.8303 16.6146 51.7739 16.7544C51.7174 16.9036 51.6516 17.048 51.5765 17.1878C51.2665 17.8402 50.7426 18.2167 50.005 18.3172C49.7715 18.3538 49.5381 18.3764 49.3048 18.3851C49.0807 18.3938 48.8521 18.3977 48.6187 18.3971L47.3868 18.3794ZM60.506 15.6463C60.5144 15.9356 60.5275 16.2343 60.5452 16.5424C60.563 16.7944 60.5716 17.0511 60.5707 17.3125L60.5694 17.7325C60.5491 18.2551 60.4175 18.5533 60.1746 18.6273C60.0438 18.6642 59.9084 18.6965 59.7683 18.7241C59.6376 18.7517 59.5022 18.7746 59.3621 18.7929C59.3154 18.8021 59.2641 18.7973 59.2081 18.7784C59.1615 18.7596 59.1149 18.7408 59.0683 18.722C58.9006 18.6375 58.808 18.3946 58.7906 17.9932L58.7156 15.109C58.1338 16.1152 57.5426 17.1308 56.9421 18.1557C56.7356 18.5098 56.4739 18.6397 56.1569 18.5454C56.073 18.5078 55.9891 18.4702 55.9052 18.4326C55.8213 18.4044 55.7374 18.3621 55.6536 18.3059C55.4487 18.156 55.2439 17.9967 55.0391 17.8281C54.8343 17.6595 54.6342 17.4909 54.4387 17.3223C54.085 17.0039 54.0163 16.5977 54.2325 16.1037L54.4298 15.6983C54.5519 15.456 54.6879 15.223 54.838 14.9995C55.1194 14.5523 55.3961 14.1098 55.6681 13.6719C55.9402 13.2341 56.1983 12.7822 56.4424 12.3162L56.8649 11.5055C56.987 11.2818 57.0996 11.0675 57.2029 10.8625L57.3579 10.5549C57.098 10.1061 56.8427 9.64805 56.5922 9.18064C56.323 8.70384 56.0493 8.19902 55.771 7.6662C55.4184 6.99315 55.0518 6.33873 54.6711 5.70293C54.2998 5.05783 53.9285 4.39872 53.5573 3.72562C53.3438 3.34232 53.2608 3.03874 53.3081 2.81488C53.3555 2.59102 53.5429 2.37224 53.8702 2.15854L55.4411 1.23919C55.7029 1.09997 55.913 1.05392 56.0715 1.10106C56.2394 1.14822 56.4022 1.30737 56.56 1.57851L56.769 1.91513C56.9732 2.2704 57.1774 2.62101 57.3817 2.96695C57.5953 3.30358 57.7996 3.64486 57.9945 3.99077C58.0502 4.08427 58.1384 4.23853 58.259 4.45355C58.3704 4.65922 58.5003 4.90227 58.6487 5.18271L58.652 4.14672C58.6449 3.41869 58.6426 2.68135 58.6449 1.93469C58.6463 1.50536 58.6845 1.2068 58.7597 1.03902C58.835 0.861911 58.9659 0.764299 59.1527 0.746186L60.0208 0.692758C60.1701 0.702533 60.2726 0.763504 60.3283 0.87567C60.3839 0.987835 60.4112 1.19792 60.4103 1.50592L60.409 1.89791C60.4171 2.29927 60.4205 2.69595 60.4193 3.08795C60.4275 3.47064 60.4356 3.858 60.4437 4.25003L60.4428 4.54403L60.6259 4.18057C60.7293 3.95687 60.8044 3.79843 60.8514 3.70523C61.0392 3.34179 61.2317 2.98302 61.4288 2.62894C61.6259 2.26552 61.8231 1.89744 62.0202 1.52469L62.2033 1.17523C62.3535 0.89567 62.4987 0.732766 62.6389 0.686515C62.7884 0.630957 62.9796 0.673524 63.2125 0.814215L64.5815 1.75627C64.8702 1.9718 65.0328 2.19628 65.0694 2.42972C65.106 2.66317 65.021 2.98025 64.8144 3.38097C64.4669 4.07995 64.1147 4.76491 63.758 5.43585C63.4106 6.09749 63.0724 6.78249 62.7435 7.49085C62.4804 8.05008 62.2268 8.57666 61.9826 9.07061C61.7948 9.43405 61.6116 9.79284 61.4332 10.147C61.5075 10.2592 61.5819 10.3668 61.6562 10.4696C61.7027 10.5351 61.7816 10.666 61.893 10.8623C62.0044 11.0493 62.1204 11.2504 62.2411 11.4654L62.7006 12.2507C62.9605 12.6995 63.2345 13.1343 63.5225 13.5552C63.8199 13.9667 64.1173 14.3876 64.4146 14.8178C64.5726 15.033 64.7212 15.2527 64.8605 15.4772L65.0693 15.8698C65.3011 16.3465 65.2112 16.7382 64.7996 17.045C64.5751 17.2123 64.3459 17.375 64.1121 17.533C63.8782 17.7003 63.6397 17.8582 63.3966 18.0068C63.3124 18.0626 63.2189 18.1043 63.1162 18.132C63.0227 18.1691 62.9246 18.2061 62.8218 18.2431C62.4669 18.3447 62.1779 18.2226 61.955 17.8766C61.4627 17.1284 60.9797 16.385 60.506 15.6463ZM71.0853 18.4636C70.8707 18.4536 70.7076 18.3925 70.5959 18.2802C70.4842 18.1772 70.4287 18.0323 70.4293 17.8457L70.4579 17.6358C70.4958 17.4772 70.5149 17.3186 70.5154 17.1599C70.5253 17.0013 70.5398 16.8427 70.5589 16.684C70.5782 16.4881 70.5931 16.2081 70.6036 15.8442C70.6234 15.4802 70.6386 15.0789 70.6493 14.6403C70.6693 14.211 70.6801 13.7677 70.6815 13.3104C70.6923 12.8438 70.6983 12.4144 70.6995 12.0224C70.7101 11.6211 70.7159 11.2758 70.7168 10.9865C70.727 10.6972 70.7323 10.5105 70.7325 10.4265C70.7339 9.99721 70.7306 9.54453 70.7228 9.0685C70.715 8.58314 70.7119 8.08847 70.7134 7.58447L70.7146 7.22047C70.7148 7.16447 70.6962 7.13175 70.6589 7.1223C70.6121 7.1595 70.5793 7.20607 70.5604 7.26201C70.551 7.30865 70.5368 7.35994 70.518 7.41589C70.3292 8.09666 70.1404 8.77744 69.9516 9.45822C69.7628 10.139 69.5646 10.8197 69.3572 11.5005C69.0837 12.405 68.8288 13.3049 68.5927 14.2002C68.3566 15.0955 68.0646 15.944 67.7167 16.7456C67.6227 16.96 67.5334 17.1698 67.4487 17.3748C67.3641 17.5799 67.2701 17.7803 67.1669 17.976C67.0166 18.2836 66.7967 18.4369 66.5074 18.4361L66.2975 18.4074C65.8964 18.3222 65.6826 18.0509 65.656 17.5935C65.6562 17.5375 65.6564 17.4815 65.6566 17.4255C65.6661 17.3696 65.6756 17.3136 65.6851 17.2576C65.7444 16.2124 65.813 15.1486 65.8911 14.0662C65.9785 12.9745 66.066 11.8734 66.1535 10.763C66.2312 9.77386 66.2856 8.79402 66.3167 7.82344C66.3477 6.84353 66.3648 5.85891 66.3679 4.86958C66.3691 4.48692 66.3703 4.10892 66.3715 3.73559C66.3726 3.36226 66.3691 3.00291 66.3609 2.65755L66.3507 1.42551C66.3606 1.23888 66.4171 1.09438 66.5201 0.992015C66.6324 0.880347 66.7726 0.815429 66.9407 0.79726L66.9687 0.797343C67.1274 0.797813 67.2625 0.84488 67.3742 0.938545C67.486 1.03221 67.5602 1.16776 67.597 1.34521C67.6153 1.4386 67.6244 1.53196 67.6241 1.62529C67.6238 1.71862 67.6282 1.81197 67.6372 1.90533C67.6551 2.14805 67.6636 2.40941 67.6628 2.68941C67.6712 2.9601 67.675 3.23545 67.6742 3.51544L67.6523 6.03539C67.6489 7.10872 67.6129 8.17262 67.5443 9.22709C67.4756 10.2816 67.4023 11.3407 67.3243 12.4044C67.3052 12.5351 67.2908 12.6703 67.281 12.8103C67.2713 12.941 67.2662 13.0763 67.2658 13.2163C67.2655 13.3003 67.2699 13.389 67.2789 13.4823C67.288 13.5663 67.3017 13.6551 67.3201 13.7484C67.3483 13.6739 67.3766 13.6039 67.4048 13.5387C67.433 13.4734 67.4565 13.4035 67.4754 13.3289C67.6358 12.788 67.7915 12.2518 67.9425 11.7203C68.1028 11.1887 68.2585 10.6525 68.4095 10.1117C68.8154 8.66618 69.2165 7.2347 69.613 5.8172C70.0188 4.3904 70.3313 2.94932 70.5505 1.49396C70.5792 1.27938 70.645 1.1209 70.748 1.01854C70.8603 0.916207 71.0332 0.856052 71.2666 0.838077C71.5373 0.820212 71.8033 0.807 72.0647 0.798441C72.3261 0.789882 72.5921 0.786004 72.8627 0.786806C73.2547 0.787967 73.6374 0.803101 74.0106 0.832207C74.2346 0.851537 74.407 0.926715 74.5279 1.05774C74.6582 1.18879 74.723 1.36165 74.7223 1.57632L74.7213 1.89832C74.7205 2.13165 74.7245 2.36499 74.7331 2.59836C74.7417 2.82238 74.7457 3.05106 74.7449 3.28439L74.7441 3.56439C74.7241 3.98433 74.7134 4.4183 74.712 4.8663C74.7106 5.3143 74.7092 5.76696 74.7077 6.2243C74.7061 6.72829 74.7046 7.22762 74.703 7.72229C74.7108 8.20765 74.7233 8.70235 74.7404 9.20641L74.7523 9.86444L74.7516 10.0884C74.7511 10.2471 74.7458 10.4664 74.7355 10.7464C74.7347 11.0171 74.7291 11.3204 74.7187 11.6564C74.7083 11.9923 74.6979 12.3516 74.6873 12.7343C74.6768 13.1076 74.6663 13.4762 74.6559 13.8402C74.6547 14.1948 74.649 14.5308 74.6387 14.8481C74.6283 15.1748 74.6228 15.4501 74.6221 15.6741C74.6212 15.9634 74.6063 16.248 74.5774 16.528C74.5485 16.8172 74.5243 17.1065 74.5047 17.3957C74.5042 17.5637 74.4757 17.7317 74.4191 17.8995C74.3154 18.2539 74.0815 18.4305 73.7175 18.4294C73.2788 18.4374 72.8401 18.4455 72.4014 18.4535C71.972 18.4616 71.5333 18.4649 71.0853 18.4636ZM79.8778 18.5457C79.6818 18.5451 79.4858 18.5352 79.2899 18.5159C79.1032 18.506 78.912 18.4821 78.7161 18.4442C78.5016 18.3969 78.3478 18.3171 78.2549 18.2049C78.1712 18.1019 78.1204 17.9338 78.1024 17.7004C78.0219 16.6082 77.9553 15.5206 77.9027 14.4378C77.8594 13.3643 77.8394 12.2769 77.8429 11.1756L77.8603 10.0977C77.8819 9.13638 77.8943 8.17975 77.8972 7.22775C77.9096 6.26645 77.9406 5.29587 77.9904 4.31601C78.01 3.99874 78.0297 3.69079 78.0493 3.39218C78.0782 3.08427 78.1118 2.80437 78.1499 2.55248L78.1501 2.49648C78.1505 2.37515 78.1227 2.2864 78.0669 2.23023C78.0204 2.17409 77.9319 2.1365 77.8013 2.11744C77.5587 2.08872 77.3207 2.07402 77.0874 2.07333C77.0034 2.07308 76.9147 2.07282 76.8214 2.07254C76.7374 2.07229 76.6534 2.07671 76.5694 2.08579C76.4854 2.07621 76.4014 2.0713 76.3174 2.07105C76.2334 2.0708 76.1541 2.06123 76.0795 2.04234C75.9396 2.00459 75.8278 1.93426 75.7441 1.83135C75.6605 1.72843 75.6188 1.60698 75.6193 1.46698L75.6194 1.42498C75.6202 1.17298 75.7515 0.982032 76.0132 0.85214C76.1347 0.805833 76.2608 0.782874 76.3914 0.783261L76.5594 0.797758C77.5207 0.80994 78.468 0.822079 79.4013 0.834178C80.3439 0.836971 81.2959 0.839791 82.2573 0.842639L83.2093 0.84546C83.3773 0.845958 83.5639 0.869844 83.769 0.917119C83.9276 0.964255 84.0487 1.04395 84.1323 1.1562C84.2253 1.25914 84.2716 1.38061 84.2712 1.52061L84.2569 1.61857C84.2377 1.76784 84.172 1.89365 84.0597 1.99598C83.9474 2.08899 83.8025 2.13989 83.6252 2.1487L82.3932 2.14505C82.2812 2.14472 82.1925 2.14912 82.1272 2.15826C82.0712 2.15809 82.0291 2.17197 82.001 2.19989C81.9729 2.2278 81.9495 2.2744 81.9306 2.33968C81.9211 2.39565 81.9115 2.47962 81.9018 2.59159C81.7965 3.44062 81.7285 4.29442 81.6978 5.153C81.6764 6.00227 81.6644 6.85158 81.6618 7.70091L81.6546 9.99689C81.6442 10.3235 81.6339 10.6548 81.6235 10.9908C81.6224 11.3175 81.6214 11.6441 81.6204 11.9708C81.619 12.4095 81.6223 12.8481 81.6303 13.2868C81.6383 13.7162 81.6602 14.1503 81.6962 14.589C81.7321 15.0465 81.7493 15.4992 81.7479 15.9472C81.7465 16.4045 81.7824 16.862 81.8556 17.3195C81.8649 17.3475 81.8695 17.3756 81.8694 17.4036C81.8693 17.4409 81.8692 17.4736 81.8691 17.5016L81.8542 17.7675C81.8256 17.9634 81.7598 18.1172 81.6568 18.2289C81.5631 18.3407 81.4182 18.4102 81.2221 18.4377C80.998 18.4743 80.7739 18.5017 80.5499 18.5197C80.3258 18.5377 80.1018 18.5463 79.8778 18.5457ZM90.3849 8.45475C90.2075 8.45423 90.0953 8.5099 90.0483 8.62176C90.0013 8.72428 89.9774 8.92021 89.9765 9.20955C89.965 9.89085 89.9583 10.5535 89.9563 11.1975C89.9543 11.8322 89.9526 12.3735 89.9512 12.8215C89.931 13.3068 89.9106 13.8527 89.89 14.4593C89.8788 15.0753 89.8628 15.7052 89.8421 16.3492L89.8262 16.9511C89.8257 17.1285 89.9047 17.2174 90.0634 17.2178L90.1754 17.2042C90.2502 17.1857 90.3249 17.1673 90.3996 17.1488C90.4743 17.1397 90.549 17.1259 90.6237 17.1075C90.9882 16.9686 91.3014 16.7782 91.5635 16.5363C91.8256 16.3037 92.0226 15.9916 92.1545 15.6C92.4842 14.6117 92.6741 13.5902 92.7241 12.5357C92.7243 12.4704 92.7245 12.4004 92.7247 12.3257C92.7343 12.2417 92.7393 12.1531 92.7396 12.0597C92.7397 12.0131 92.7399 11.9664 92.74 11.9197C92.7402 11.8731 92.7356 11.8264 92.7264 11.7797C92.7082 11.649 92.6854 11.4622 92.6582 11.2195C92.6403 10.9674 92.6085 10.706 92.5627 10.4352C92.4988 9.95902 92.3414 9.55722 92.0904 9.22981C91.8488 8.90243 91.4762 8.67732 90.9725 8.55449C90.9539 8.54511 90.9306 8.5357 90.9026 8.52629C90.8747 8.51687 90.8467 8.51212 90.8187 8.51204C90.7254 8.4931 90.6414 8.47885 90.5668 8.46929C90.5015 8.45977 90.4409 8.45492 90.3849 8.45475ZM87.2307 0.829375L87.3287 0.829665C87.6274 0.839883 87.926 0.850101 88.2246 0.860319C88.5233 0.861204 88.8219 0.871423 89.1205 0.890974C89.1952 0.900529 89.2652 0.910069 89.3305 0.919596C89.4051 0.919817 89.4798 0.929372 89.5544 0.94826C89.9274 1.0427 90.1134 1.27192 90.1122 1.63592L90.0523 2.89574C90.0425 3.04505 90.0373 3.19437 90.0369 3.3437C90.0364 3.49303 90.0359 3.64236 90.0355 3.7917C90.0344 4.1277 90.0334 4.46369 90.0323 4.79969C90.0406 5.13572 90.0442 5.46706 90.0432 5.79373L90.0397 6.89972C90.0393 7.03972 90.0624 7.12379 90.1089 7.15193C90.1555 7.18007 90.2721 7.19441 90.4588 7.19497C90.9721 7.20582 91.4245 7.29583 91.816 7.46499C92.2075 7.62482 92.5381 7.8358 92.808 8.09793C93.0872 8.36009 93.3056 8.65941 93.4632 8.99588C93.6301 9.32304 93.7458 9.65938 93.81 10.0049C93.8558 10.2757 93.897 10.5418 93.9335 10.8033C93.97 11.0647 93.9973 11.2888 94.0154 11.4755C94.0333 11.7182 94.042 11.9143 94.0416 12.0636C94.0411 12.2036 94.0408 12.3109 94.0406 12.3856L94.0402 12.5116C93.9805 13.6781 93.7669 14.8255 93.3994 15.9537C93.1449 16.737 92.7417 17.3331 92.1898 17.7421C91.6471 18.1512 90.979 18.4012 90.1854 18.4922L89.6253 18.5185L88.5053 18.5152L87.4693 18.5262L86.9373 18.5106C86.5454 18.4814 86.275 18.3873 86.1262 18.2282C85.9867 18.0784 85.9129 17.8075 85.9048 17.4155L85.9055 17.1915C85.9257 16.6782 85.9367 16.1649 85.9383 15.6516C85.9492 15.1383 85.9648 14.625 85.9851 14.1117C86.0052 13.6451 86.016 13.1832 86.0174 12.7258C86.0282 12.2592 86.0344 11.7879 86.0359 11.3119L86.0422 9.30989C86.044 8.72189 86.0459 8.11056 86.0479 7.4759C86.0499 6.8319 86.0519 6.18791 86.054 5.54391C86.0653 4.89994 86.0766 4.26064 86.088 3.626C86.0993 2.98203 86.1199 2.36142 86.1498 1.76418C86.1608 1.24154 86.423 0.938982 86.9366 0.856503C86.9833 0.847308 87.03 0.84278 87.0767 0.842918C87.1327 0.833751 87.1841 0.829237 87.2307 0.829375ZM103.684 18.5882C103.301 18.5871 103.083 18.3718 103.028 17.9423C103.01 17.7742 102.996 17.6062 102.987 17.4381C102.979 17.2701 102.97 17.1021 102.961 16.9341C102.936 15.9166 102.902 14.8992 102.859 13.8817C102.815 12.8549 102.79 11.8282 102.784 10.8015C102.785 10.5028 102.777 10.2041 102.759 9.90542C102.741 9.6067 102.733 9.30801 102.734 9.00934L102.784 1.99546C102.805 1.37019 103.104 1.03041 103.683 0.97612C103.991 0.939699 104.295 0.912598 104.593 0.894816C104.901 0.867729 105.209 0.854641 105.517 0.855554C105.601 0.855803 105.685 0.856052 105.769 0.8563C105.853 0.856549 105.942 0.861479 106.035 0.871089C106.334 0.89064 106.544 0.956595 106.665 1.06895C106.786 1.18131 106.869 1.38223 106.915 1.6717C107.126 2.77366 107.407 3.9505 107.758 5.20221C108.109 6.44459 108.483 7.71037 108.88 8.99955L108.977 9.22384C109.043 9.17737 109.08 9.14015 109.09 9.11217C109.108 9.0749 109.123 9.03294 109.132 8.9863C109.435 7.66186 109.766 6.37016 110.124 5.11122C110.492 3.85231 110.841 2.65867 111.171 1.53031C111.285 1.09198 111.514 0.873321 111.859 0.874344L111.943 0.874593C112.13 0.903146 112.284 0.996935 112.405 1.15596C112.525 1.30565 112.59 1.49718 112.599 1.73054L112.589 4.97852L112.572 5.86048C112.57 6.55114 112.577 7.23716 112.593 7.91855C112.619 8.59063 112.65 9.27206 112.685 9.96283C112.729 10.719 112.764 11.5124 112.79 12.3431C112.815 13.1739 112.84 13.9673 112.866 14.7234C112.884 15.0128 112.897 15.2975 112.905 15.5775C112.923 15.8669 112.941 16.1563 112.959 16.4457C112.977 16.6604 112.995 16.8704 113.013 17.0758C113.031 17.2906 113.067 17.5053 113.123 17.7202L113.15 17.9022C113.15 18.0609 113.093 18.2007 112.981 18.3217C112.878 18.4521 112.747 18.5357 112.588 18.5726C112.551 18.5818 112.499 18.5863 112.434 18.5861C112.303 18.5857 112.182 18.5387 112.07 18.445C111.959 18.3607 111.875 18.2391 111.82 18.0803C111.783 17.9775 111.755 17.8748 111.736 17.7721C111.727 17.6787 111.718 17.5807 111.709 17.478C111.612 15.6857 111.525 13.8607 111.447 12.0032C111.378 10.1456 111.323 8.31612 111.282 6.51466C111.273 6.46796 111.263 6.42594 111.254 6.38857C111.245 6.35121 111.231 6.30917 111.213 6.26245C111.09 6.52342 110.996 6.78915 110.93 7.05962C110.864 7.32076 110.798 7.58656 110.732 7.85703C110.58 8.47259 110.434 9.08349 110.292 9.68974C110.159 10.2867 110.027 10.893 109.894 11.5086C109.866 11.6112 109.837 11.7184 109.809 11.8303C109.781 11.9422 109.743 12.0495 109.696 12.152C109.63 12.2731 109.546 12.3615 109.443 12.4172C109.35 12.473 109.247 12.5007 109.135 12.5003C108.92 12.4997 108.743 12.4012 108.604 12.2047C108.548 12.1299 108.506 12.0505 108.479 11.9664C108.451 11.873 108.423 11.7795 108.396 11.6861C108.137 10.8547 107.869 10.0326 107.591 9.21974C107.314 8.39758 107.064 7.5615 106.843 6.71151C106.825 6.66479 106.811 6.62274 106.802 6.58538C106.802 6.53872 106.778 6.50131 106.732 6.47318L106.704 6.47309C106.676 6.47301 106.662 6.49164 106.662 6.52897C106.651 6.87427 106.641 7.21958 106.63 7.56488C106.629 7.90088 106.628 8.24154 106.627 8.58688C106.626 9.11887 106.643 9.64159 106.678 10.155C106.714 10.6685 106.731 11.1912 106.729 11.7232C106.724 13.3565 106.761 14.976 106.84 16.5815C106.849 16.7402 106.853 16.9036 106.853 17.0716C106.861 17.2396 106.875 17.4076 106.893 17.5757L106.907 17.7297C106.906 17.9724 106.84 18.1542 106.709 18.2752C106.587 18.3961 106.396 18.4749 106.134 18.5115C105.733 18.5569 105.331 18.5744 104.93 18.5639C104.529 18.5627 104.127 18.5708 103.726 18.5883L103.684 18.5882ZM118.428 7.79583C118.426 8.24383 118.439 8.6872 118.465 9.12595C118.492 9.5647 118.514 10.0081 118.531 10.4562C118.531 10.5775 118.554 10.6662 118.6 10.7224C118.647 10.7785 118.74 10.8161 118.88 10.8352C118.992 10.8449 119.104 10.8545 119.216 10.8642C119.328 10.8645 119.44 10.8648 119.552 10.8652C119.888 10.8662 120.219 10.8532 120.546 10.8261C120.882 10.7898 121.218 10.7581 121.554 10.7311C121.685 10.7222 121.788 10.7085 121.863 10.69C121.937 10.6622 121.993 10.6251 122.031 10.5785C122.068 10.532 122.092 10.4667 122.102 10.3827C122.111 10.2988 122.121 10.1868 122.131 10.0468C122.131 9.94415 122.131 9.84148 122.132 9.73882C122.141 9.62684 122.146 9.51953 122.147 9.41686C122.148 8.80086 122.127 8.18946 122.082 7.58266C122.047 6.97589 122.007 6.36443 121.962 5.7483C121.935 5.47755 121.898 5.21144 121.853 4.94997C121.816 4.68853 121.766 4.42238 121.701 4.15152C121.627 3.8433 121.512 3.55829 121.354 3.29648C121.205 3.03471 121.029 2.78685 120.824 2.55291C120.694 2.39386 120.55 2.29076 120.391 2.24363C120.233 2.18716 120.065 2.15866 119.887 2.15813C119.813 2.15791 119.738 2.16236 119.663 2.17147C119.589 2.17125 119.514 2.17569 119.439 2.18481C119.224 2.20284 119.08 2.28641 119.004 2.43552C118.929 2.5753 118.859 2.71976 118.793 2.8689C118.492 3.60534 118.34 4.38423 118.338 5.20556C118.338 5.26156 118.337 5.31756 118.337 5.37356C118.346 5.42958 118.351 5.4856 118.351 5.5416C118.359 5.88696 118.367 6.23231 118.375 6.57767C118.393 6.91373 118.411 7.25911 118.428 7.61384L118.428 7.79583ZM114.764 10.739C114.73 9.83355 114.695 8.93745 114.661 8.05068C114.636 7.16393 114.615 6.27253 114.599 5.37648C114.599 5.33915 114.595 5.3018 114.586 5.26444C114.586 5.22711 114.586 5.18977 114.586 5.15244C114.597 4.62047 114.655 4.10264 114.759 3.59895C114.872 3.09528 115.042 2.60111 115.267 2.11645C115.587 1.38939 116.13 0.994329 116.895 0.931264C117.241 0.894954 117.581 0.87263 117.917 0.864292C118.263 0.846649 118.608 0.838339 118.953 0.839362C119.401 0.840689 119.849 0.856016 120.297 0.885343C120.615 0.90495 120.899 0.989793 121.15 1.13987C121.402 1.28062 121.63 1.47263 121.835 1.7159C122.142 2.09015 122.402 2.48759 122.615 2.90822C122.828 3.31952 122.972 3.76795 123.045 4.2535C123.173 5.07521 123.268 5.8875 123.331 6.69036C123.403 7.48391 123.438 8.29135 123.436 9.11268C123.435 9.39268 123.429 9.67266 123.419 9.95263C123.409 10.2233 123.394 10.4986 123.374 10.7785C123.355 11.0304 123.335 11.2824 123.316 11.5343C123.306 11.777 123.3 12.0243 123.3 12.2763C123.299 12.575 123.307 12.869 123.325 13.1584C123.352 13.4384 123.388 13.7279 123.434 14.0267C123.461 14.4094 123.478 14.7782 123.487 15.1329C123.504 15.4969 123.522 15.8423 123.539 16.169C123.557 16.5051 123.584 16.8225 123.62 17.1213C123.657 17.42 123.712 17.6909 123.786 17.9338C123.804 18.0085 123.813 18.0598 123.813 18.0878C123.813 18.2745 123.714 18.4282 123.518 18.549C123.396 18.6233 123.28 18.6603 123.168 18.6599C123.037 18.6595 122.906 18.6218 122.776 18.5468C122.674 18.4718 122.594 18.3829 122.539 18.2801C122.483 18.1772 122.446 18.0605 122.428 17.9297C122.4 17.743 122.368 17.5516 122.332 17.3554C122.295 17.1593 122.277 16.9633 122.278 16.7673C122.27 16.2539 122.248 15.7919 122.212 15.3811C122.185 14.9703 122.154 14.5969 122.117 14.2608C122.09 13.9154 122.063 13.598 122.036 13.3086C122.009 13.0098 121.996 12.7158 121.997 12.4264L121.998 12.3004C121.998 12.1138 121.91 12.0202 121.732 12.0196L121.634 12.0194C121.308 12.0464 120.976 12.0781 120.64 12.1144C120.313 12.1508 119.987 12.1685 119.66 12.1675C119.427 12.1668 119.193 12.1521 118.96 12.1234L118.89 12.1232C118.713 12.1227 118.624 12.2298 118.623 12.4444C118.631 12.8271 118.635 13.2098 118.633 13.5925C118.632 13.9658 118.631 14.3485 118.63 14.7405L118.579 17.6383C118.578 17.965 118.512 18.1981 118.381 18.3377C118.259 18.4774 118.035 18.5561 117.708 18.5737C117.297 18.6005 116.891 18.6133 116.49 18.6121C116.378 18.6118 116.261 18.6068 116.14 18.5971C116.028 18.5968 115.916 18.5964 115.804 18.5961C115.449 18.5857 115.197 18.5056 115.049 18.3559C114.9 18.2154 114.821 17.9632 114.813 17.5992C114.804 17.3005 114.801 17.0065 114.802 16.7171C114.803 16.4278 114.803 16.1338 114.804 15.8351L114.855 13.1753C114.856 12.7646 114.848 12.3586 114.831 11.9572C114.813 11.5558 114.791 11.1497 114.764 10.739ZM129.971 11.036C130.027 11.0362 130.087 11.0317 130.153 11.0226C130.227 11.0135 130.311 10.9997 130.405 10.9813C130.433 10.9814 130.461 10.9768 130.489 10.9676C130.517 10.9583 130.54 10.9491 130.559 10.9398C131.063 10.82 131.437 10.5971 131.681 10.2711C131.934 9.94519 132.094 9.54433 132.161 9.06853C132.208 8.798 132.242 8.54143 132.261 8.29882C132.29 8.04691 132.314 7.85564 132.333 7.72503C132.343 7.67839 132.347 7.63174 132.348 7.58507C132.348 7.53841 132.348 7.49174 132.348 7.44508C132.348 7.35174 132.344 7.26773 132.335 7.19303C132.335 7.10904 132.335 7.03437 132.335 6.96904C132.292 5.91424 132.109 4.89169 131.785 3.90139C131.656 3.50901 131.461 3.19576 131.2 2.96165C130.939 2.71821 130.627 2.52596 130.264 2.38488C130.189 2.36599 130.115 2.35177 130.04 2.34221C129.965 2.32333 129.891 2.30444 129.816 2.28555L129.704 2.27122C129.545 2.27075 129.466 2.35918 129.465 2.53651L129.477 3.13855C129.494 3.7826 129.506 4.41264 129.514 5.02867C129.53 5.63539 129.547 6.18144 129.564 6.66682C129.563 7.11482 129.561 7.66082 129.559 8.30482C129.557 8.93948 129.56 9.59749 129.567 10.2788C129.566 10.5682 129.589 10.7689 129.635 10.8811C129.682 10.9839 129.793 11.0355 129.971 11.036ZM126.769 18.6426C126.722 18.6425 126.671 18.6376 126.615 18.6281C126.568 18.628 126.522 18.6232 126.475 18.6137C125.962 18.5282 125.701 18.2241 125.694 17.7014C125.668 17.104 125.651 16.4833 125.644 15.8392C125.636 15.2046 125.629 14.5652 125.622 13.9212C125.624 13.2772 125.626 12.6378 125.628 12.0032C125.63 11.3592 125.632 10.7432 125.633 10.1552L125.64 8.1532C125.641 7.67721 125.638 7.21053 125.63 6.75317C125.632 6.2865 125.624 5.81981 125.606 5.35309C125.589 4.83971 125.577 4.32633 125.569 3.81298C125.571 3.29964 125.563 2.78629 125.546 2.2729L125.547 2.0489C125.557 1.65693 125.633 1.38649 125.773 1.23757C125.923 1.07935 126.194 0.986815 126.586 0.959976L127.118 0.947553L128.154 0.964622L129.274 0.96794L129.834 0.9976C130.627 1.09328 131.294 1.34726 131.834 1.75953C132.383 2.17182 132.783 2.77034 133.032 3.55509C133.393 4.68549 133.599 5.83411 133.651 7.00093L133.651 7.12693C133.651 7.2016 133.65 7.3136 133.65 7.46293C133.649 7.60293 133.64 7.79424 133.62 8.03685C133.601 8.22346 133.572 8.44737 133.534 8.7086C133.496 8.96982 133.453 9.23569 133.406 9.50622C133.339 9.85136 133.221 10.1917 133.052 10.5272C132.893 10.8534 132.672 11.1467 132.392 11.4072C132.12 11.6678 131.788 11.8814 131.396 12.0483C131.003 12.2058 130.55 12.2884 130.037 12.2962C129.85 12.2957 129.733 12.3094 129.687 12.3372C129.64 12.3651 129.616 12.449 129.616 12.589L129.612 13.695C129.611 14.0217 129.606 14.353 129.595 14.689C129.594 15.0249 129.593 15.3609 129.592 15.6969C129.592 15.8463 129.591 15.9956 129.591 16.1449C129.59 16.2943 129.594 16.4436 129.603 16.593L129.655 17.8531C129.654 18.2171 129.467 18.4453 129.093 18.5375C129.018 18.5559 128.944 18.565 128.869 18.5648C128.804 18.574 128.734 18.5831 128.659 18.5922C128.36 18.61 128.062 18.6184 127.763 18.6175C127.464 18.626 127.166 18.6344 126.867 18.6429L126.769 18.6426ZM142.666 17.4157L143.366 17.4178C143.59 17.4091 143.702 17.3161 143.702 17.1388L143.703 17.0548C143.657 16.6253 143.64 16.1959 143.651 15.7666C143.661 15.3373 143.658 14.908 143.641 14.4786L143.643 13.9046C143.644 13.2792 143.66 12.6586 143.69 12.0427C143.72 11.4175 143.736 10.7922 143.738 10.1668L143.727 9.4388L143.705 7.46472C143.708 6.47539 143.725 5.53744 143.756 4.65086C143.796 3.75498 143.841 2.81711 143.89 1.83725C143.901 1.56661 143.962 1.37079 144.074 1.24979C144.187 1.11946 144.369 1.04533 144.621 1.02741C144.761 1.01849 144.896 1.01422 145.027 1.01461C145.167 1.00569 145.307 1.00144 145.447 1.00186C145.96 1.00338 146.469 1.04688 146.973 1.13238C147.196 1.17971 147.359 1.26419 147.462 1.38583C147.564 1.49813 147.62 1.67096 147.628 1.90432L147.626 2.46432C147.597 2.8189 147.573 3.1595 147.553 3.48611C147.543 3.80341 147.533 4.12538 147.522 4.45202C147.521 4.76935 147.515 5.09134 147.505 5.41797C147.495 5.74461 147.484 6.08525 147.474 6.43989L147.442 7.7698C147.44 8.28313 147.443 8.79647 147.451 9.30983C147.468 9.82322 147.476 10.3412 147.474 10.8639L147.457 11.7459C147.437 12.2405 147.422 12.7304 147.411 13.2157C147.4 13.701 147.394 14.191 147.392 14.6857C147.391 15.1803 147.394 15.6704 147.401 16.1557C147.419 16.6411 147.45 17.1312 147.495 17.626L147.508 17.808C147.507 18.0694 147.442 18.2558 147.311 18.3675C147.189 18.4884 146.983 18.5578 146.694 18.5756C146.096 18.6112 145.499 18.6374 144.902 18.6543C144.314 18.6806 143.716 18.6975 143.109 18.705L142.857 18.7043C142.503 18.7032 142.144 18.6928 141.78 18.6731C141.425 18.6534 141.07 18.6336 140.716 18.6139C140.529 18.5947 140.342 18.5848 140.156 18.5843C139.978 18.5837 139.797 18.5832 139.61 18.5826L138.21 18.5925C137.892 18.5916 137.58 18.586 137.272 18.5757C136.964 18.5655 136.656 18.5366 136.348 18.489C136.18 18.4698 136.036 18.4414 135.914 18.4037C135.802 18.366 135.709 18.3097 135.635 18.2349C135.57 18.1693 135.519 18.0805 135.482 17.9684C135.445 17.8563 135.417 17.7162 135.399 17.5482C135.354 17.1747 135.327 16.8013 135.319 16.4279C135.31 16.0639 135.307 15.6952 135.308 15.3219L135.329 8.71391C135.332 7.51925 135.355 6.37131 135.396 5.27009C135.436 4.16888 135.487 3.02102 135.546 1.82653C135.566 1.52792 135.632 1.31811 135.744 1.19711C135.866 1.07614 136.076 1.00676 136.375 0.988978L137.075 0.977052C137.318 0.977771 137.556 0.987809 137.789 1.00717C138.022 1.01719 138.255 1.04122 138.489 1.07924C138.796 1.13615 139.002 1.23009 139.104 1.36106C139.215 1.49206 139.275 1.71157 139.284 2.0196L139.283 2.1316C139.282 2.44893 139.263 2.76154 139.224 3.06943C139.195 3.37734 139.181 3.68064 139.18 3.9793L139.179 4.3013C139.178 4.6373 139.172 4.96395 139.162 5.28125C139.161 5.58925 139.155 5.89257 139.145 6.19121C139.134 6.48984 139.124 6.79782 139.114 7.11512C139.113 7.42312 139.112 7.74512 139.111 8.08111C139.11 8.33311 139.109 8.58511 139.108 8.83711C139.108 9.07978 139.116 9.32714 139.134 9.57919L139.146 10.1952C139.145 10.4472 139.14 10.6992 139.13 10.9512C139.12 11.2032 139.109 11.4551 139.099 11.7071C139.08 12.0804 139.069 12.449 139.068 12.813C139.067 13.177 139.066 13.5457 139.064 13.919L139.07 16.579C139.07 16.6444 139.074 16.705 139.084 16.7611C139.093 16.8264 139.097 16.8964 139.097 16.9711C139.106 17.1858 139.222 17.2935 139.446 17.2941L140.16 17.3103C140.126 16.0408 140.093 14.7854 140.06 13.5439C140.017 12.2092 139.998 10.8604 140.002 9.49776C140.004 8.99376 140.005 8.4851 140.007 7.97177C140.018 7.44913 140.034 6.90784 140.054 6.3479C140.084 5.62932 140.096 4.92469 140.089 4.234C140.091 3.534 140.103 2.8247 140.123 2.10609C140.134 1.68612 140.186 1.40161 140.28 1.25255C140.383 1.09419 140.57 1.01541 140.841 1.01621L142.059 1.08982C142.264 1.11843 142.404 1.19351 142.478 1.31506C142.562 1.42731 142.603 1.63277 142.602 1.93143L142.601 2.29543C142.6 2.68743 142.598 3.07476 142.597 3.45742C142.605 3.83078 142.609 4.20413 142.608 4.57746C142.607 4.68013 142.602 4.84811 142.592 5.08142C142.591 5.30541 142.586 5.5714 142.576 5.87937C142.575 6.17804 142.564 6.50001 142.545 6.84528C142.534 7.18125 142.524 7.51256 142.514 7.8392C142.513 8.15653 142.507 8.45051 142.497 8.72115C142.487 8.98245 142.481 9.19244 142.481 9.35111C142.48 9.73377 142.483 10.1118 142.491 10.4851C142.499 10.8492 142.512 11.2132 142.53 11.5773L142.524 13.5233C142.522 14.0086 142.535 14.4893 142.561 14.9654C142.597 15.4508 142.628 15.9409 142.655 16.4357C142.672 16.6877 142.681 16.9351 142.68 17.1777L142.666 17.4157ZM153.732 11.1064C153.788 11.1066 153.849 11.1021 153.914 11.093C153.989 11.0839 154.073 11.0701 154.166 11.0517C154.194 11.0518 154.223 11.0472 154.251 11.038C154.279 11.0287 154.302 11.0195 154.321 11.0102C154.825 10.8904 155.199 10.6675 155.443 10.3415C155.696 10.0156 155.856 9.61473 155.922 9.13893C155.97 8.8684 156.003 8.61183 156.023 8.36922C156.052 8.11731 156.076 7.92604 156.095 7.79543C156.104 7.74879 156.109 7.70214 156.109 7.65548C156.109 7.60881 156.109 7.56214 156.11 7.51548C156.11 7.42214 156.105 7.33813 156.096 7.26344C156.097 7.17944 156.097 7.10477 156.097 7.03944C156.054 5.98464 155.87 4.96209 155.547 3.97179C155.417 3.57941 155.222 3.26616 154.962 3.03206C154.701 2.78862 154.389 2.59636 154.025 2.45528C153.951 2.43639 153.876 2.42217 153.802 2.41261C153.727 2.39373 153.652 2.37484 153.578 2.35595L153.466 2.34162C153.307 2.34115 153.227 2.42958 153.227 2.60691L153.239 3.20895C153.256 3.853 153.268 4.48304 153.275 5.09907C153.292 5.70579 153.309 6.25184 153.326 6.73722C153.325 7.18522 153.323 7.73122 153.321 8.37522C153.319 9.00988 153.321 9.66789 153.329 10.3492C153.328 10.6386 153.35 10.8393 153.397 10.9515C153.443 11.0543 153.555 11.1059 153.732 11.1064ZM150.53 18.713C150.484 18.7129 150.432 18.708 150.377 18.6985C150.33 18.6984 150.283 18.6936 150.237 18.6841C149.723 18.5986 149.463 18.2945 149.455 17.7718C149.429 17.1744 149.413 16.5537 149.405 15.9096C149.398 15.275 149.391 14.6356 149.383 13.9916C149.385 13.3476 149.387 12.7082 149.389 12.0736C149.391 11.4296 149.393 10.8136 149.395 10.2256L149.401 8.2236C149.403 7.74761 149.4 7.28093 149.392 6.82357C149.393 6.3569 149.385 5.89021 149.368 5.42349C149.351 4.91011 149.339 4.39673 149.331 3.88338C149.333 3.37005 149.325 2.85669 149.308 2.3433L149.308 2.1193C149.319 1.72733 149.395 1.45689 149.535 1.30797C149.685 1.14975 149.956 1.05722 150.348 1.03038L150.88 1.01795L151.916 1.03502L153.036 1.03834L153.596 1.068C154.389 1.16368 155.055 1.41766 155.595 1.82993C156.145 2.24222 156.544 2.84074 156.794 3.62549C157.154 4.75589 157.361 5.90451 157.413 7.07134L157.413 7.19733C157.412 7.272 157.412 7.384 157.412 7.53333C157.411 7.67333 157.401 7.86464 157.382 8.10725C157.362 8.29386 157.334 8.51777 157.296 8.779C157.257 9.04022 157.215 9.30609 157.167 9.57662C157.101 9.92176 156.983 10.2621 156.814 10.5976C156.654 10.9238 156.434 11.2171 156.153 11.4776C155.882 11.7382 155.55 11.9518 155.157 12.1187C154.765 12.2762 154.312 12.3588 153.798 12.3666C153.612 12.3661 153.495 12.3798 153.448 12.4076C153.401 12.4355 153.378 12.5194 153.377 12.6594L153.374 13.7654C153.373 14.0921 153.367 14.4234 153.357 14.7594C153.356 15.0954 153.355 15.4313 153.354 15.7673C153.353 15.9167 153.353 16.066 153.352 16.2153C153.352 16.3647 153.356 16.514 153.365 16.6634L153.417 17.9235C153.416 18.2875 153.228 18.5157 152.855 18.6079C152.78 18.6263 152.705 18.6354 152.631 18.6352C152.565 18.6444 152.495 18.6535 152.421 18.6626C152.122 18.6804 151.823 18.6888 151.525 18.6879C151.226 18.6964 150.927 18.7048 150.628 18.7133L150.53 18.713ZM166.884 1.33137C166.921 1.35015 166.949 1.37356 166.968 1.40162C167.098 1.55134 167.162 1.78953 167.161 2.1162L167.145 2.70415C167.144 3.03082 167.148 3.35283 167.156 3.67019C167.174 3.98758 167.192 4.30963 167.209 4.63635C167.209 4.70168 167.213 4.8137 167.222 4.97239C167.222 5.10305 167.221 5.28972 167.221 5.53239C167.229 5.76575 167.233 6.06909 167.232 6.44242C167.231 6.81575 167.224 7.27307 167.213 7.81438C167.212 8.34637 167.205 8.97636 167.194 9.70432C167.182 10.4323 167.165 11.2722 167.144 12.2242C167.131 13.1668 167.114 14.2354 167.092 15.43C167.081 15.738 167.057 16.0413 167.019 16.3398C166.98 16.6477 166.923 16.9509 166.848 17.2493C166.801 17.4265 166.73 17.5803 166.636 17.7107C166.552 17.8411 166.444 17.9621 166.313 18.0738C166.051 18.2876 165.775 18.4548 165.486 18.5753C165.196 18.7051 164.883 18.7695 164.547 18.7685L164.407 18.7681C164.127 18.7579 163.847 18.7478 163.567 18.7376C163.297 18.7368 163.021 18.7267 162.741 18.7072C162.461 18.6877 162.181 18.6542 161.902 18.6067C161.631 18.5592 161.361 18.4837 161.09 18.3803C160.503 18.1545 160.019 17.8451 159.637 17.452C159.265 17.0682 159.029 16.5542 158.928 15.9099C158.882 15.6391 158.846 15.3729 158.819 15.1115C158.801 14.8501 158.792 14.5888 158.793 14.3275C158.793 14.1688 158.799 14.0148 158.808 13.8655C158.818 13.7162 158.837 13.5623 158.866 13.4037C158.904 13.1891 158.928 12.9792 158.938 12.7739C158.957 12.5593 158.977 12.3447 158.996 12.13C159.005 12.0741 159.01 12.0181 159.01 11.9621C159.011 11.8968 159.02 11.8408 159.039 11.7942C159.086 11.617 159.166 11.4772 159.278 11.3749C159.391 11.2725 159.526 11.2216 159.685 11.2221L159.755 11.2223C159.913 11.2414 160.044 11.3118 160.146 11.4335C160.258 11.5458 160.313 11.6953 160.313 11.8819L160.312 11.9379C160.293 12.1712 160.274 12.4045 160.254 12.6378C160.235 12.8617 160.206 13.0903 160.168 13.3235C160.149 13.5008 160.13 13.6781 160.11 13.8554C160.101 14.0233 160.095 14.196 160.095 14.3733C160.094 14.6066 160.103 14.84 160.121 15.0734C160.148 15.3068 160.185 15.5403 160.23 15.7737C160.341 16.3154 160.624 16.7082 161.081 16.9522C161.221 17.0273 161.36 17.0884 161.5 17.1355C161.649 17.1919 161.803 17.2391 161.962 17.2769C162.074 17.3052 162.181 17.3195 162.284 17.3198C162.536 17.3206 162.741 17.2418 162.9 17.0836C163.069 16.9348 163.177 16.7251 163.224 16.4546C163.253 16.2867 163.277 16.1187 163.296 15.9508C163.315 15.7829 163.33 15.6149 163.339 15.4469C163.343 14.3456 163.351 13.2303 163.364 12.101C163.365 11.625 163.367 11.121 163.369 10.589C163.37 10.057 163.377 9.52035 163.388 8.97905L163.389 8.74105C163.183 8.75911 162.982 8.77251 162.786 8.78126C162.553 8.78991 162.315 8.79387 162.072 8.79315C161.82 8.7924 161.568 8.78699 161.316 8.77691C161.064 8.76683 160.817 8.7521 160.575 8.73271C160.108 8.70333 159.735 8.62289 159.455 8.49139C159.185 8.35992 158.985 8.20533 158.855 8.02761C158.743 7.86861 158.664 7.71438 158.618 7.56491C158.581 7.40613 158.554 7.24738 158.536 7.08866L158.303 5.32397C158.285 5.24924 158.276 5.13255 158.276 4.97388C158.277 4.81522 158.277 4.65655 158.278 4.49789C158.278 4.36722 158.279 4.25522 158.279 4.16189C158.279 4.05922 158.284 3.9939 158.293 3.96593C158.332 3.48071 158.38 3.04218 158.438 2.65035C158.504 2.24921 158.58 1.85744 158.665 1.47502C158.703 1.34447 158.787 1.25605 158.918 1.20977C159.049 1.15416 159.268 1.12214 159.576 1.11372C159.819 1.1051 160.062 1.10116 160.304 1.10188C160.556 1.09329 160.804 1.08936 161.046 1.09007L161.578 1.09165C161.905 1.11129 162.129 1.14462 162.25 1.19164C162.381 1.23869 162.446 1.32289 162.445 1.44422L162.431 1.54218C162.393 1.72873 162.355 1.91529 162.317 2.10184C162.279 2.2884 162.246 2.47963 162.218 2.67555C162.179 2.91811 162.146 3.16067 162.117 3.40326C162.088 3.63651 162.06 3.87909 162.031 4.131L162.031 4.229C162.03 4.29434 162.03 4.37834 162.03 4.481C162.039 4.5837 162.043 4.68638 162.043 4.78904C162.052 4.89174 162.056 4.98975 162.056 5.08308C162.065 5.17644 162.074 5.25114 162.083 5.30716C162.129 5.6153 162.17 5.92342 162.206 6.23153C162.243 6.53964 162.284 6.84777 162.329 7.1559C162.348 7.24929 162.366 7.33801 162.385 7.42207C162.412 7.50615 162.44 7.59023 162.468 7.67431C162.477 7.70234 162.491 7.73505 162.51 7.77244C162.528 7.80049 162.547 7.82855 162.565 7.8566C162.621 7.93144 162.696 7.99699 162.789 8.05327C162.891 8.10024 163.026 8.1333 163.194 8.15247L163.39 8.15305L163.398 5.85706C163.4 5.12906 163.402 4.48973 163.404 3.93907C163.405 3.37907 163.402 2.96839 163.393 2.70703L163.395 2.31504C163.395 2.24037 163.395 2.17504 163.395 2.11904C163.395 2.0537 163.4 1.98839 163.41 1.92308C163.468 1.37258 163.758 1.09344 164.28 1.08566L164.981 1.07373C165.401 1.07497 165.82 1.09022 166.24 1.11946L166.352 1.11979C166.651 1.13935 166.828 1.20987 166.884 1.33137ZM172.614 18.8204C172.418 18.8198 172.222 18.8099 172.026 18.7907C171.839 18.7808 171.648 18.7569 171.452 18.719C171.237 18.6717 171.084 18.5919 170.991 18.4796C170.907 18.3767 170.856 18.2085 170.838 17.9752C170.758 16.8829 170.691 15.7954 170.639 14.7126C170.595 13.6391 170.575 12.5517 170.579 11.4504L170.596 10.3724C170.618 9.41114 170.63 8.4545 170.633 7.50251C170.646 6.5412 170.677 5.57063 170.726 4.59077C170.746 4.27349 170.766 3.96555 170.785 3.66694C170.814 3.35902 170.848 3.07912 170.886 2.82723L170.886 2.77123C170.886 2.6499 170.859 2.56115 170.803 2.50499C170.756 2.44885 170.668 2.41125 170.537 2.3922C170.295 2.36348 170.057 2.34878 169.823 2.34808C169.739 2.34784 169.651 2.34757 169.557 2.3473C169.473 2.34705 169.389 2.35146 169.305 2.36055C169.221 2.35097 169.137 2.34605 169.053 2.3458C168.969 2.34555 168.89 2.33599 168.815 2.3171C168.676 2.27935 168.564 2.20902 168.48 2.1061C168.396 2.00319 168.355 1.88173 168.355 1.74173L168.355 1.69973C168.356 1.44773 168.487 1.25679 168.749 1.1269C168.871 1.08059 168.997 1.05763 169.127 1.05802L169.295 1.07251C170.257 1.0847 171.204 1.09683 172.137 1.10893C173.08 1.11173 174.032 1.11455 174.993 1.1174L175.945 1.12022C176.113 1.12071 176.3 1.1446 176.505 1.19187C176.663 1.23901 176.785 1.3187 176.868 1.43095C176.961 1.53389 177.008 1.65537 177.007 1.79537L176.993 1.89332C176.974 2.0426 176.908 2.16841 176.796 2.27074C176.683 2.36374 176.538 2.41465 176.361 2.42345L175.129 2.4198C175.017 2.41947 174.928 2.42388 174.863 2.43302C174.807 2.43285 174.765 2.44673 174.737 2.47464C174.709 2.50256 174.685 2.54916 174.666 2.61443C174.657 2.67041 174.647 2.75438 174.638 2.86635C174.532 3.71537 174.464 4.56918 174.434 5.42776C174.412 6.27703 174.4 7.12633 174.398 7.97566L174.39 10.2716C174.38 10.5983 174.37 10.9296 174.359 11.2656C174.358 11.5922 174.357 11.9189 174.356 12.2456C174.355 12.6842 174.358 13.1229 174.366 13.5616C174.374 13.991 174.396 14.425 174.432 14.8638C174.468 15.3212 174.485 15.774 174.484 16.222C174.482 16.6793 174.518 17.1367 174.592 17.5943C174.601 17.6223 174.605 17.6503 174.605 17.6783C174.605 17.7157 174.605 17.7483 174.605 17.7763L174.59 18.0423C174.562 18.2382 174.496 18.392 174.393 18.5037C174.299 18.6154 174.154 18.685 173.958 18.7124C173.734 18.7491 173.51 18.7764 173.286 18.7944C173.062 18.8124 172.838 18.8211 172.614 18.8204Z" fill="white"/>
</svg>
