<svg width="311" height="100" viewBox="0 0 311 100" fill="none" xmlns="http://www.w3.org/2000/svg">
<path d="M66.4759 64.9159C69.267 56.0772 61.4363 49.6032 57.172 47.4711C56.2028 50.96 54.846 58.752 57.172 62.0084C59.498 65.2648 60.0794 69.5678 60.0794 71.3123V75.9642L66.4759 64.9159Z" fill="#1F1F1F" stroke="#1F1F1F"/>
<path d="M41.1879 10.1257C45.5345 7.53135 51.0011 7.17174 47.9901 12.7367C45.1491 17.9876 42.2661 19.7973 40.9813 20.1146C44.2065 19.4898 48.5998 18.6994 47.5705 22.7669C46.8026 25.801 42.7302 27.5203 41.7695 27.6487C44.3442 27.8913 46.2663 30.5677 44.1148 32.0286C39.8119 34.9502 37.0451 34.7327 36.1996 34.2588C36.5201 35.1937 36.8926 39.4452 29.5141 36.9112L21.9687 32.0289C26.5228 25.6283 33.4436 14.7447 41.1879 10.1257Z" fill="white" stroke="#1F1F1F"/>
<path d="M55.4309 71.309L29.8452 69.5645L18.7969 59.0976L21.1228 31.7675L51.942 33.5119L58.3384 43.9788L55.4309 71.309Z" fill="#F40000"/>
<path d="M31.5897 43.9788L29.8452 69.5645M31.5897 43.9788H58.3384M31.5897 43.9788L21.1228 31.7675M31.5897 43.9788L34.8774 56.1902M29.8452 69.5645L55.4309 71.309M29.8452 69.5645L18.7969 59.0976L21.1228 31.7675M29.8452 69.5645L34.8774 56.1902M55.4309 71.309L58.3384 43.9788M55.4309 71.309L53.1721 56.1902M58.3384 43.9788L51.942 33.5119L21.1228 31.7675M58.3384 43.9788L53.1721 56.1902M53.1721 56.1902L51.942 59.0976H35.6602L34.8774 56.1902" stroke="#1F1F1F"/>
<path d="M26.3522 63.17L6 70.7295L14.7224 91.6632L18.7928 84.1038C39.1451 93.9892 57.7529 85.2668 60.0788 82.9408C61.9396 81.08 65.1184 69.7603 66.4753 64.333C59.9625 78.2889 35.0746 75.5752 23.4448 72.4739L26.3522 63.17Z" fill="#FDA3C4" stroke="#1F1F1F"/>
<path d="M44.5661 47.4003C46.1606 48.4578 46.4473 49.8307 44.3784 50.9589C37.9823 54.447 37.4005 46.307 39.7265 43.3995C41.5872 41.0736 54.8452 25.3741 67.0566 20.1398C71.7085 18.144 77.1745 18.5116 73.453 23.6288C69.9415 28.4571 66.8442 29.869 65.5288 30.0133C68.8082 29.8212 73.2675 29.6197 71.7085 33.515C70.5456 36.4207 66.2812 37.5854 65.3121 37.5854C67.8319 38.1669 69.3826 41.0744 67.0566 42.2374C62.4046 44.5633 59.691 43.9813 58.9157 43.3995C59.1095 44.3687 58.9157 48.6321 51.9378 45.143C53.5226 47.7844 52.2279 50.4265 44.5661 47.4003Z" fill="white" stroke="#1F1F1F"/>
<path d="M178.962 6.5V24H175.762V9.25H168.862L168.712 13.625C168.628 16.075 168.428 18.0667 168.112 19.6C167.795 21.1167 167.287 22.275 166.587 23.075C165.887 23.8583 164.92 24.25 163.687 24.25C163.253 24.25 162.662 24.1667 161.912 24L162.137 21.175C162.353 21.2417 162.603 21.275 162.887 21.275C163.903 21.275 164.62 20.675 165.037 19.475C165.47 18.2583 165.737 16.35 165.837 13.75L166.087 6.5H178.962ZM196.035 17.4C196.035 17.6167 196.018 17.925 195.985 18.325H185.51C185.693 19.3083 186.168 20.0917 186.935 20.675C187.718 21.2417 188.685 21.525 189.835 21.525C191.301 21.525 192.51 21.0417 193.46 20.075L195.135 22C194.535 22.7167 193.776 23.2583 192.86 23.625C191.943 23.9917 190.91 24.175 189.76 24.175C188.293 24.175 187.001 23.8833 185.885 23.3C184.768 22.7167 183.901 21.9083 183.285 20.875C182.685 19.825 182.385 18.6417 182.385 17.325C182.385 16.025 182.676 14.8583 183.26 13.825C183.86 12.775 184.685 11.9583 185.735 11.375C186.785 10.7917 187.968 10.5 189.285 10.5C190.585 10.5 191.743 10.7917 192.76 11.375C193.793 11.9417 194.593 12.75 195.16 13.8C195.743 14.8333 196.035 16.0333 196.035 17.4ZM189.285 13C188.285 13 187.435 13.3 186.735 13.9C186.051 14.4833 185.635 15.2667 185.485 16.25H193.06C192.926 15.2833 192.518 14.5 191.835 13.9C191.151 13.3 190.301 13 189.285 13ZM209.703 13.3H202.578V24H199.453V10.65H209.703V13.3ZM217.527 18.65H215.102V24H211.977V10.65H215.102V16.05H217.602L221.552 10.65H224.902L220.052 17.075L225.227 24H221.552L217.527 18.65ZM227.431 10.65H230.556V19.45L237.931 10.65H240.781V24H237.656V15.2L230.306 24H227.431V10.65ZM244.985 10.65H248.11V19.45L255.485 10.65H258.335V24H255.21V15.2L247.86 24H244.985V10.65ZM251.46 9.075C250.11 9.075 249.076 8.76667 248.36 8.15C247.66 7.51667 247.301 6.6 247.285 5.4H249.36C249.376 6 249.56 6.475 249.91 6.825C250.276 7.175 250.785 7.35 251.435 7.35C252.068 7.35 252.568 7.175 252.935 6.825C253.318 6.475 253.518 6 253.535 5.4H255.66C255.643 6.6 255.276 7.51667 254.56 8.15C253.843 8.76667 252.81 9.075 251.46 9.075ZM123.105 47.05C124.755 47.55 125.58 48.6167 125.58 50.25C125.58 51.45 125.13 52.375 124.23 53.025C123.33 53.675 121.996 54 120.23 54H113.43V40.65H119.955C121.588 40.65 122.863 40.95 123.78 41.55C124.696 42.15 125.155 43 125.155 44.1C125.155 44.7833 124.971 45.375 124.605 45.875C124.255 46.375 123.755 46.7667 123.105 47.05ZM116.405 46.225H119.68C121.296 46.225 122.105 45.6667 122.105 44.55C122.105 43.4667 121.296 42.925 119.68 42.925H116.405V46.225ZM119.98 51.725C121.696 51.725 122.555 51.1667 122.555 50.05C122.555 49.4667 122.355 49.0333 121.955 48.75C121.555 48.45 120.93 48.3 120.08 48.3H116.405V51.725H119.98ZM134.858 54.175C133.508 54.175 132.291 53.8833 131.208 53.3C130.125 52.7167 129.275 51.9083 128.658 50.875C128.058 49.825 127.758 48.6417 127.758 47.325C127.758 46.0083 128.058 44.8333 128.658 43.8C129.275 42.7667 130.125 41.9583 131.208 41.375C132.291 40.7917 133.508 40.5 134.858 40.5C136.225 40.5 137.45 40.7917 138.533 41.375C139.616 41.9583 140.458 42.7667 141.058 43.8C141.675 44.8333 141.983 46.0083 141.983 47.325C141.983 48.6417 141.675 49.825 141.058 50.875C140.458 51.9083 139.616 52.7167 138.533 53.3C137.45 53.8833 136.225 54.175 134.858 54.175ZM134.858 51.5C136.008 51.5 136.958 51.1167 137.708 50.35C138.458 49.5833 138.833 48.575 138.833 47.325C138.833 46.075 138.458 45.0667 137.708 44.3C136.958 43.5333 136.008 43.15 134.858 43.15C133.708 43.15 132.758 43.5333 132.008 44.3C131.275 45.0667 130.908 46.075 130.908 47.325C130.908 48.575 131.275 49.5833 132.008 50.35C132.758 51.1167 133.708 51.5 134.858 51.5ZM152.85 47.05C153.683 47.2833 154.325 47.6667 154.775 48.2C155.242 48.7167 155.475 49.3417 155.475 50.075C155.475 50.8917 155.2 51.6167 154.65 52.25C154.1 52.8667 153.342 53.35 152.375 53.7C151.408 54.05 150.308 54.225 149.075 54.225C148.042 54.225 147.033 54.1083 146.05 53.875C145.067 53.625 144.175 53.275 143.375 52.825L144.275 50.5C144.925 50.8667 145.658 51.15 146.475 51.35C147.292 51.55 148.108 51.65 148.925 51.65C149.975 51.65 150.792 51.4917 151.375 51.175C151.975 50.8417 152.275 50.3917 152.275 49.825C152.275 49.3083 152.042 48.9083 151.575 48.625C151.125 48.3417 150.483 48.2 149.65 48.2H147.05V46.1H149.4C150.183 46.1 150.792 45.9667 151.225 45.7C151.675 45.4333 151.9 45.0583 151.9 44.575C151.9 44.0917 151.633 43.7083 151.1 43.425C150.567 43.1417 149.833 43 148.9 43C147.567 43 146.158 43.325 144.675 43.975L143.875 41.675C145.625 40.8583 147.392 40.45 149.175 40.45C150.308 40.45 151.325 40.6083 152.225 40.925C153.125 41.225 153.825 41.6583 154.325 42.225C154.842 42.775 155.1 43.4083 155.1 44.125C155.1 44.775 154.9 45.3583 154.5 45.875C154.1 46.375 153.55 46.7667 152.85 47.05ZM168.393 47.05C170.043 47.55 170.868 48.6167 170.868 50.25C170.868 51.45 170.418 52.375 169.518 53.025C168.618 53.675 167.284 54 165.518 54H158.718V40.65H165.243C166.876 40.65 168.151 40.95 169.068 41.55C169.984 42.15 170.443 43 170.443 44.1C170.443 44.7833 170.259 45.375 169.893 45.875C169.543 46.375 169.043 46.7667 168.393 47.05ZM161.693 46.225H164.968C166.584 46.225 167.393 45.6667 167.393 44.55C167.393 43.4667 166.584 42.925 164.968 42.925H161.693V46.225ZM165.268 51.725C166.984 51.725 167.843 51.1667 167.843 50.05C167.843 49.4667 167.643 49.0333 167.243 48.75C166.843 48.45 166.218 48.3 165.368 48.3H161.693V51.725H165.268ZM181.596 40.5C182.896 40.5 184.055 40.7833 185.071 41.35C186.105 41.9167 186.913 42.7167 187.496 43.75C188.08 44.7833 188.371 45.975 188.371 47.325C188.371 48.675 188.08 49.875 187.496 50.925C186.913 51.9583 186.105 52.7583 185.071 53.325C184.055 53.8917 182.896 54.175 181.596 54.175C179.796 54.175 178.371 53.575 177.321 52.375V58.85H174.196V40.65H177.171V42.4C177.688 41.7667 178.321 41.2917 179.071 40.975C179.838 40.6583 180.68 40.5 181.596 40.5ZM181.246 51.5C182.396 51.5 183.338 51.1167 184.071 50.35C184.821 49.5833 185.196 48.575 185.196 47.325C185.196 46.075 184.821 45.0667 184.071 44.3C183.338 43.5333 182.396 43.15 181.246 43.15C180.496 43.15 179.821 43.325 179.221 43.675C178.621 44.0083 178.146 44.4917 177.796 45.125C177.446 45.7583 177.271 46.4917 177.271 47.325C177.271 48.1583 177.446 48.8917 177.796 49.525C178.146 50.1583 178.621 50.65 179.221 51C179.821 51.3333 180.496 51.5 181.246 51.5ZM196.285 40.5C198.252 40.5 199.752 40.975 200.785 41.925C201.835 42.8583 202.36 44.275 202.36 46.175V54H199.41V52.375C199.027 52.9583 198.477 53.4083 197.76 53.725C197.06 54.025 196.21 54.175 195.21 54.175C194.21 54.175 193.335 54.0083 192.585 53.675C191.835 53.325 191.252 52.85 190.835 52.25C190.435 51.6333 190.235 50.9417 190.235 50.175C190.235 48.975 190.677 48.0167 191.56 47.3C192.46 46.5667 193.869 46.2 195.785 46.2H199.235V46C199.235 45.0667 198.952 44.35 198.385 43.85C197.835 43.35 197.01 43.1 195.91 43.1C195.16 43.1 194.419 43.2167 193.685 43.45C192.969 43.6833 192.36 44.0083 191.86 44.425L190.635 42.15C191.335 41.6167 192.177 41.2083 193.16 40.925C194.144 40.6417 195.185 40.5 196.285 40.5ZM195.86 51.9C196.644 51.9 197.335 51.725 197.935 51.375C198.552 51.0083 198.985 50.4917 199.235 49.825V48.275H196.01C194.21 48.275 193.31 48.8667 193.31 50.05C193.31 50.6167 193.535 51.0667 193.985 51.4C194.435 51.7333 195.06 51.9 195.86 51.9ZM216.802 43.3H212.127V54H209.002V43.3H204.302V40.65H216.802V43.3ZM224.469 32.95H227.269L219.019 56.5H216.219L224.469 32.95ZM232.661 54.175C231.311 54.175 230.094 53.8833 229.011 53.3C227.928 52.7167 227.078 51.9083 226.461 50.875C225.861 49.825 225.561 48.6417 225.561 47.325C225.561 46.0083 225.861 44.8333 226.461 43.8C227.078 42.7667 227.928 41.9583 229.011 41.375C230.094 40.7917 231.311 40.5 232.661 40.5C234.028 40.5 235.253 40.7917 236.336 41.375C237.419 41.9583 238.261 42.7667 238.861 43.8C239.478 44.8333 239.786 46.0083 239.786 47.325C239.786 48.6417 239.478 49.825 238.861 50.875C238.261 51.9083 237.419 52.7167 236.336 53.3C235.253 53.8833 234.028 54.175 232.661 54.175ZM232.661 51.5C233.811 51.5 234.761 51.1167 235.511 50.35C236.261 49.5833 236.636 48.575 236.636 47.325C236.636 46.075 236.261 45.0667 235.511 44.3C234.761 43.5333 233.811 43.15 232.661 43.15C231.511 43.15 230.561 43.5333 229.811 44.3C229.078 45.0667 228.711 46.075 228.711 47.325C228.711 48.575 229.078 49.5833 229.811 50.35C230.561 51.1167 231.511 51.5 232.661 51.5ZM250.098 41.3C251.365 41.3 252.481 41.575 253.448 42.125C254.415 42.6583 255.165 43.4083 255.698 44.375C256.248 45.3417 256.523 46.45 256.523 47.7C256.523 48.9833 256.223 50.125 255.623 51.125C255.023 52.1083 254.181 52.875 253.098 53.425C252.015 53.975 250.781 54.25 249.398 54.25C247.081 54.25 245.29 53.4833 244.023 51.95C242.756 50.4167 242.123 48.2083 242.123 45.325C242.123 42.6417 242.698 40.5167 243.848 38.95C244.998 37.3833 246.756 36.35 249.123 35.85L255.323 34.525L255.773 37.325L250.148 38.475C248.531 38.8083 247.323 39.375 246.523 40.175C245.723 40.975 245.256 42.1 245.123 43.55C245.723 42.8333 246.448 42.2833 247.298 41.9C248.148 41.5 249.081 41.3 250.098 41.3ZM249.473 51.725C250.623 51.725 251.548 51.3583 252.248 50.625C252.965 49.875 253.323 48.925 253.323 47.775C253.323 46.625 252.965 45.7 252.248 45C251.548 44.3 250.623 43.95 249.473 43.95C248.306 43.95 247.365 44.3 246.648 45C245.931 45.7 245.573 46.625 245.573 47.775C245.573 48.9417 245.931 49.8917 246.648 50.625C247.381 51.3583 248.323 51.725 249.473 51.725ZM272.673 54V45.15L268.173 52.6H266.823L262.398 45.125V54H259.548V40.65H262.823L267.573 49L272.548 40.65H275.473L275.498 54H272.673ZM292.189 47.4C292.189 47.6167 292.173 47.925 292.139 48.325H281.664C281.848 49.3083 282.323 50.0917 283.089 50.675C283.873 51.2417 284.839 51.525 285.989 51.525C287.456 51.525 288.664 51.0417 289.614 50.075L291.289 52C290.689 52.7167 289.931 53.2583 289.014 53.625C288.098 53.9917 287.064 54.175 285.914 54.175C284.448 54.175 283.156 53.8833 282.039 53.3C280.923 52.7167 280.056 51.9083 279.439 50.875C278.839 49.825 278.539 48.6417 278.539 47.325C278.539 46.025 278.831 44.8583 279.414 43.825C280.014 42.775 280.839 41.9583 281.889 41.375C282.939 40.7917 284.123 40.5 285.439 40.5C286.739 40.5 287.898 40.7917 288.914 41.375C289.948 41.9417 290.748 42.75 291.314 43.8C291.898 44.8333 292.189 46.0333 292.189 47.4ZM285.439 43C284.439 43 283.589 43.3 282.889 43.9C282.206 44.4833 281.789 45.2667 281.639 46.25H289.214C289.081 45.2833 288.673 44.5 287.989 43.9C287.306 43.3 286.456 43 285.439 43ZM295.607 40.65H298.732V46.075H305.457V40.65H308.582V54H305.457V48.725H298.732V54H295.607V40.65Z" fill="#1F1F1F"/>
<path d="M133.426 85.224C134.205 85.384 134.797 85.6987 135.202 86.168C135.608 86.6267 135.81 87.2293 135.81 87.976C135.81 88.9467 135.464 89.6933 134.77 90.216C134.088 90.7387 133.08 91 131.746 91H126.786V79.8H131.442C132.637 79.8 133.57 80.0453 134.242 80.536C134.914 81.0267 135.25 81.736 135.25 82.664C135.25 83.2933 135.09 83.8267 134.77 84.264C134.45 84.6907 134.002 85.0107 133.426 85.224ZM127.954 84.872H131.378C132.242 84.872 132.904 84.696 133.362 84.344C133.832 83.992 134.066 83.48 134.066 82.808C134.066 82.136 133.832 81.624 133.362 81.272C132.904 80.92 132.242 80.744 131.378 80.744H127.954V84.872ZM131.746 90.056C133.677 90.056 134.642 89.336 134.642 87.896C134.642 86.488 133.677 85.784 131.746 85.784H127.954V90.056H131.746ZM150.286 80.824H146.35V91H145.182V80.824H141.246V79.8H150.286V80.824ZM160.285 89.976V91H152.365V79.8H160.045V80.824H153.549V84.808H159.341V85.816H153.549V89.976H160.285ZM170.815 79.8V91H169.663V86.36C168.447 86.8827 167.269 87.144 166.127 87.144C164.815 87.144 163.791 86.824 163.055 86.184C162.33 85.544 161.967 84.648 161.967 83.496V79.8H163.135V83.368C163.135 84.232 163.407 84.904 163.951 85.384C164.495 85.864 165.258 86.104 166.239 86.104C167.359 86.104 168.501 85.8373 169.663 85.304V79.8H170.815ZM182.535 89.976V91H174.615V79.8H182.295V80.824H175.799V84.808H181.591V85.816H175.799V89.976H182.535ZM194.521 79.8V91H193.353V85.832H186.345V91H185.161V79.8H186.345V84.792H193.353V79.8H194.521ZM198.302 79.8H199.47V89.08L206.638 79.8H207.71V91H206.542V81.736L199.374 91H198.302V79.8ZM211.49 79.8H212.658V89.08L219.826 79.8H220.898V91H219.73V81.736L212.562 91H211.49V79.8ZM230.913 79.8V91H229.761V80.824H227.121V79.8H230.913ZM243.11 88.056H240.87V91H239.718V88.056H233.398V87.224L239.334 79.8H240.614L234.886 87.032H239.75V84.44H240.87V87.032H243.11V88.056ZM259.699 89.976V93.512H258.595V91H248.819L248.803 93.512H247.699L247.715 89.976H248.275C249.011 89.9333 249.523 89.352 249.811 88.232C250.099 87.1013 250.275 85.5013 250.339 83.432L250.467 79.8H258.019V89.976H259.699ZM251.395 83.544C251.342 85.2507 251.209 86.6587 250.995 87.768C250.793 88.8667 250.446 89.6027 249.955 89.976H256.851V80.824H251.491L251.395 83.544ZM271.475 79.8V91H270.307V85.832H263.299V91H262.115V79.8H263.299V84.792H270.307V79.8H271.475ZM283.175 89.976V91H275.255V79.8H282.935V80.824H276.439V84.808H282.231V85.816H276.439V89.976H283.175ZM285.802 79.8H286.97V89.08L294.138 79.8H295.21V91H294.042V81.736L286.874 91H285.802V79.8ZM290.474 78.984C289.674 78.984 289.039 78.8027 288.57 78.44C288.111 78.0773 287.877 77.5707 287.866 76.92H288.746C288.757 77.3467 288.917 77.6827 289.226 77.928C289.535 78.1733 289.951 78.296 290.474 78.296C290.986 78.296 291.397 78.1733 291.706 77.928C292.026 77.6827 292.191 77.3467 292.202 76.92H293.082C293.071 77.5707 292.831 78.0773 292.362 78.44C291.893 78.8027 291.263 78.984 290.474 78.984Z" fill="#1F1F1F"/>
</svg>
