<svg width="249" height="98" viewBox="0 0 249 98" fill="none" xmlns="http://www.w3.org/2000/svg">
<g clip-path="url(#clip0_1:381)">
<path d="M79.9363 57.7351C78.2096 57.3145 71.3889 56.3877 69.3778 57.7351L68.875 50.1934C69.9526 50.5525 71.3889 51.5582 71.3889 50.6961C71.3889 49.6186 77.3211 51.0002 77.3211 51.0002C77.3211 52.9278 79.6491 54.0719 78.9307 54.9698C80.0082 54.7902 82.3715 58.3283 79.9363 57.7351Z" fill="#F40000" stroke="#1F1F1F"/>
<path d="M73.5509 36.4543C73.9819 32.1441 66.6859 30.7289 63.0941 31.088L63.8528 26.7562C64.7508 26.2174 67.008 26.0237 70.8872 27.3168C75.7363 28.9332 78.429 32.1441 77.8611 36.4543C77.2953 40.749 73.7305 44.7156 71.3957 46.1523L69.7794 42.9196C70.857 42.5604 73.1198 40.7645 73.5509 36.4543Z" fill="#F40000" stroke="#1F1F1F"/>
<path d="M19.855 33.7583C30.1995 29.8791 35.9434 33.3485 41.2238 38.6073C43.2338 40.3876 42.1936 39.5772 46.0728 36.991C49.952 34.4049 54.5137 33.7583 56.3097 33.7583C71.3955 33.7583 72.6473 46.9242 71.9343 52.0769C71.3434 56.3464 59.0036 85.4812 41.2238 84.4036C23.4441 83.3261 19.1338 67.7015 15.9012 63.3912C12.6685 59.081 6.92425 38.6073 19.855 33.7583Z" fill="#FDA3C4"/>
<path d="M11.3076 63.3912C10.1009 63.3912 9.46409 63.8097 9.29649 64.0189C9.29649 64.1865 9.49761 64.4714 10.3021 64.2703C11.3076 64.0189 11.3076 63.7691 11.3076 63.3912Z" fill="#FDA3C4"/>
<path d="M19.855 33.7583C30.1995 29.8791 35.9434 33.3485 41.2238 38.6073C43.2338 40.3876 42.1936 39.5772 46.0728 36.991C49.952 34.4049 54.5137 33.7583 56.3097 33.7583C71.3955 33.7583 72.6473 46.9242 71.9343 52.0769C71.3434 56.3464 59.0036 85.4812 41.2238 84.4036C23.4441 83.3261 19.1338 67.7015 15.9012 63.3912C12.6685 59.081 6.92425 38.6073 19.855 33.7583Z" stroke="#1F1F1F"/>
<path d="M11.3076 63.3912C10.1009 63.3912 9.46409 63.8097 9.29649 64.0189C9.29649 64.1865 9.49761 64.4714 10.3021 64.2703C11.3076 64.0189 11.3076 63.7691 11.3076 63.3912Z" stroke="#1F1F1F"/>
<path d="M60.3268 28.0697C54.7235 34.1041 54.4005 40.5674 55.2985 41.6449L56.5562 44.1588L59.0701 40.6394C58.0646 40.1366 60.722 34.5343 62.3381 33.0976C69.2345 25.7702 64.206 19.774 61.3325 18.5168C63.0922 20.528 65.9301 22.0354 60.3268 28.0697Z" fill="#F40000" stroke="#1F1F1F"/>
<path d="M52.2817 18.0145C54.9078 19.984 59.7195 23.9757 61.6951 26.3104C63.5944 24.5507 64.2812 20.3972 61.6951 18.6727C58.4624 16.517 56.3073 12.7466 56.8461 10.0527C57.3848 7.3588 58.3157 6.45057 61.1563 8.43636C63.3051 9.93856 61.1563 12.5667 59.54 14.3624C59.1808 14.9014 58.5702 15.6559 61.1563 14.3624C63.7424 13.0689 65.6461 13.8235 66.0053 14.3624C66.5441 7.89707 61.6689 6.14572 55.7685 7.35829C50.5222 8.43644 50.2705 16.5063 52.2817 18.0145Z" fill="#1F1F1F" stroke="#1F1F1F"/>
<path d="M4.58571 51.5382C7.6388 50.9994 12.6674 50.9994 8.35717 55.3096C2.96937 60.6974 -0.802085 66.0857 1.89181 69.3184C4.58571 72.5511 8.89649 73.0898 11.0516 69.3184C13.2067 65.5469 8.89703 60.6979 6.74137 62.3142C4.58571 63.9306 4.04639 69.8572 8.35717 70.3959C12.668 70.9347 16.8725 71.9558 23.8767 69.8007C30.8808 67.6456 31.7058 73.4636 31.1671 75.08C30.6283 76.6963 21.2884 81.1715 20.7496 85.4818C20.2109 89.792 25.5987 93.0247 28.8313 89.2532C32.064 85.4818 26.6762 83.3267 25.5987 85.4818C24.7366 87.2059 26.317 87.2777 27.215 87.0981" stroke="#F40000"/>
<path d="M55.7584 45.5243C51.9102 45.0345 52.2838 41.142 54.6808 40.1365C55.0491 43.1532 58.0931 41.9324 58.9909 40.1365C61.1461 41.214 60.8312 46.1699 55.7584 45.5243Z" fill="#1F1F1F"/>
<circle cx="10.2999" cy="32.3449" r="1.75696" fill="#1F1F1F" stroke="#1F1F1F"/>
<circle cx="47.1488" cy="29.9513" r="1.57756" fill="white" stroke="#1F1F1F"/>
<circle cx="13.1714" cy="81.1717" r="1.57756" fill="#FDA3C4" stroke="#1F1F1F"/>
<circle cx="66.9057" cy="75.0639" r="1.57756" fill="#FDA3C4" stroke="#1F1F1F"/>
<path d="M11.0859 33.2559L18.6289 41.3376" stroke="#1F1F1F"/>
<path d="M25.0603 59.083C25.0603 59.083 10.0509 66.0345 7.8194 65.5484C5.58794 65.0622 7.53726 63.7899 8.89696 63.3932C11.056 62.7634 20.0317 60.3402 25.0603 59.083Z" fill="white" stroke="#1F1F1F"/>
<path d="M14.2852 80.093L27.7546 69.3174" stroke="#1F1F1F"/>
<path d="M46.612 31.0635L42.4805 39.3815" stroke="#1F1F1F"/>
<path d="M56.6329 71.3285L65.7922 74.5612" stroke="#1F1F1F"/>
<ellipse cx="9.93296" cy="64.0333" rx="1.69663" ry="0.502784" transform="rotate(-17.8865 9.93296 64.0333)" fill="#1F1F1F"/>
<path d="M27.2132 87.0027C26.3152 87.1823 24.7348 87.1104 25.5968 85.3863C26.6744 83.2312 32.0622 85.3863 28.8295 89.1578C25.5968 92.9292 20.209 89.6966 20.7478 85.3863C21.2866 81.0761 30.6264 76.6009 31.1652 74.9845C31.704 73.3682 30.879 67.5502 23.8748 69.7053C16.8707 71.8604 12.6661 70.8393 8.35532 70.3005C4.04455 69.7617 4.58387 63.8351 6.73952 62.2188C7.83353 61.3985 10.2993 62.7622 10.8021 64.0191" stroke="#F40000"/>
</g>
<path d="M133.09 26.25C131.324 26.25 129.724 25.8667 128.29 25.1C126.874 24.3167 125.757 23.2417 124.94 21.875C124.14 20.5083 123.74 18.9667 123.74 17.25C123.74 15.5333 124.149 13.9917 124.965 12.625C125.782 11.2583 126.899 10.1917 128.315 9.425C129.749 8.64167 131.349 8.25 133.115 8.25C134.549 8.25 135.857 8.5 137.04 9C138.224 9.5 139.224 10.225 140.04 11.175L137.94 13.15C136.674 11.7833 135.115 11.1 133.265 11.1C132.065 11.1 130.99 11.3667 130.04 11.9C129.09 12.4167 128.349 13.1417 127.815 14.075C127.282 15.0083 127.015 16.0667 127.015 17.25C127.015 18.4333 127.282 19.4917 127.815 20.425C128.349 21.3583 129.09 22.0917 130.04 22.625C130.99 23.1417 132.065 23.4 133.265 23.4C135.115 23.4 136.674 22.7083 137.94 21.325L140.04 23.325C139.224 24.275 138.215 25 137.015 25.5C135.832 26 134.524 26.25 133.09 26.25ZM156.421 23.35V28.975H153.496V26H143.196V28.975H140.296V23.35H140.921C141.771 23.3167 142.346 22.775 142.646 21.725C142.962 20.6583 143.171 19.1583 143.271 17.225L143.446 12.65H154.446V23.35H156.421ZM146.121 17.45C146.054 18.9833 145.929 20.2333 145.746 21.2C145.562 22.1667 145.229 22.8833 144.746 23.35H151.321V15.3H146.196L146.121 17.45ZM171.712 19.4C171.712 19.6167 171.695 19.925 171.662 20.325H161.187C161.37 21.3083 161.845 22.0917 162.612 22.675C163.395 23.2417 164.362 23.525 165.512 23.525C166.978 23.525 168.187 23.0417 169.137 22.075L170.812 24C170.212 24.7167 169.453 25.2583 168.537 25.625C167.62 25.9917 166.587 26.175 165.437 26.175C163.97 26.175 162.678 25.8833 161.562 25.3C160.445 24.7167 159.578 23.9083 158.962 22.875C158.362 21.825 158.062 20.6417 158.062 19.325C158.062 18.025 158.353 16.8583 158.937 15.825C159.537 14.775 160.362 13.9583 161.412 13.375C162.462 12.7917 163.645 12.5 164.962 12.5C166.262 12.5 167.42 12.7917 168.437 13.375C169.47 13.9417 170.27 14.75 170.837 15.8C171.42 16.8333 171.712 18.0333 171.712 19.4ZM164.962 15C163.962 15 163.112 15.3 162.412 15.9C161.728 16.4833 161.312 17.2667 161.162 18.25H168.737C168.603 17.2833 168.195 16.5 167.512 15.9C166.828 15.3 165.978 15 164.962 15ZM187.059 12.65V26H183.934V15.3H178.934L178.809 17.95C178.726 19.7167 178.559 21.2 178.309 22.4C178.076 23.5833 177.667 24.525 177.084 25.225C176.517 25.9083 175.734 26.25 174.734 26.25C174.267 26.25 173.692 26.1583 173.009 25.975L173.159 23.35C173.392 23.4 173.592 23.425 173.759 23.425C174.392 23.425 174.867 23.175 175.184 22.675C175.501 22.1583 175.701 21.55 175.784 20.85C175.884 20.1333 175.967 19.1167 176.034 17.8L176.259 12.65H187.059ZM196.242 12.5C198.209 12.5 199.709 12.975 200.742 13.925C201.792 14.8583 202.317 16.275 202.317 18.175V26H199.367V24.375C198.984 24.9583 198.434 25.4083 197.717 25.725C197.017 26.025 196.167 26.175 195.167 26.175C194.167 26.175 193.292 26.0083 192.542 25.675C191.792 25.325 191.209 24.85 190.792 24.25C190.392 23.6333 190.192 22.9417 190.192 22.175C190.192 20.975 190.634 20.0167 191.517 19.3C192.417 18.5667 193.826 18.2 195.742 18.2H199.192V18C199.192 17.0667 198.909 16.35 198.342 15.85C197.792 15.35 196.967 15.1 195.867 15.1C195.117 15.1 194.376 15.2167 193.642 15.45C192.926 15.6833 192.317 16.0083 191.817 16.425L190.592 14.15C191.292 13.6167 192.134 13.2083 193.117 12.925C194.101 12.6417 195.142 12.5 196.242 12.5ZM195.817 23.9C196.601 23.9 197.292 23.725 197.892 23.375C198.509 23.0083 198.942 22.4917 199.192 21.825V20.275H195.967C194.167 20.275 193.267 20.8667 193.267 22.05C193.267 22.6167 193.492 23.0667 193.942 23.4C194.392 23.7333 195.017 23.9 195.817 23.9ZM206.184 12.65H209.309V18.075H216.034V12.65H219.159V26H216.034V20.725H209.309V26H206.184V12.65ZM229.298 26.175C227.948 26.175 226.731 25.8833 225.648 25.3C224.564 24.7167 223.714 23.9083 223.098 22.875C222.498 21.825 222.198 20.6417 222.198 19.325C222.198 18.0083 222.498 16.8333 223.098 15.8C223.714 14.7667 224.564 13.9583 225.648 13.375C226.731 12.7917 227.948 12.5 229.298 12.5C230.664 12.5 231.889 12.7917 232.973 13.375C234.056 13.9583 234.898 14.7667 235.498 15.8C236.114 16.8333 236.423 18.0083 236.423 19.325C236.423 20.6417 236.114 21.825 235.498 22.875C234.898 23.9083 234.056 24.7167 232.973 25.3C231.889 25.8833 230.664 26.175 229.298 26.175ZM229.298 23.5C230.448 23.5 231.398 23.1167 232.148 22.35C232.898 21.5833 233.273 20.575 233.273 19.325C233.273 18.075 232.898 17.0667 232.148 16.3C231.398 15.5333 230.448 15.15 229.298 15.15C228.148 15.15 227.198 15.5333 226.448 16.3C225.714 17.0667 225.348 18.075 225.348 19.325C225.348 20.575 225.714 21.5833 226.448 22.35C227.198 23.1167 228.148 23.5 229.298 23.5ZM123.135 49.05C124.785 49.55 125.61 50.6167 125.61 52.25C125.61 53.45 125.16 54.375 124.26 55.025C123.36 55.675 122.027 56 120.26 56H113.46V42.65H119.985C121.618 42.65 122.893 42.95 123.81 43.55C124.727 44.15 125.185 45 125.185 46.1C125.185 46.7833 125.002 47.375 124.635 47.875C124.285 48.375 123.785 48.7667 123.135 49.05ZM116.435 48.225H119.71C121.327 48.225 122.135 47.6667 122.135 46.55C122.135 45.4667 121.327 44.925 119.71 44.925H116.435V48.225ZM120.01 53.725C121.727 53.725 122.585 53.1667 122.585 52.05C122.585 51.4667 122.385 51.0333 121.985 50.75C121.585 50.45 120.96 50.3 120.11 50.3H116.435V53.725H120.01ZM151.223 38.5L143.623 52.625C142.956 53.875 142.156 54.8167 141.223 55.45C140.306 56.0667 139.306 56.375 138.223 56.375C137.356 56.375 136.498 56.1917 135.648 55.825L136.448 53.275C137.131 53.4917 137.698 53.6 138.148 53.6C139.198 53.6 140.064 53.0583 140.748 51.975L141.023 51.55L134.048 38.5H137.523L142.698 48.775L148.023 38.5H151.223ZM158.17 50.65H155.745V56H152.62V42.65H155.745V48.05H158.245L162.195 42.65H165.545L160.695 49.075L165.87 56H162.195L158.17 50.65ZM175.474 42.5C176.774 42.5 177.932 42.7833 178.949 43.35C179.982 43.9167 180.791 44.7167 181.374 45.75C181.957 46.7833 182.249 47.975 182.249 49.325C182.249 50.675 181.957 51.875 181.374 52.925C180.791 53.9583 179.982 54.7583 178.949 55.325C177.932 55.8917 176.774 56.175 175.474 56.175C173.674 56.175 172.249 55.575 171.199 54.375V60.85H168.074V42.65H171.049V44.4C171.566 43.7667 172.199 43.2917 172.949 42.975C173.716 42.6583 174.557 42.5 175.474 42.5ZM175.124 53.5C176.274 53.5 177.216 53.1167 177.949 52.35C178.699 51.5833 179.074 50.575 179.074 49.325C179.074 48.075 178.699 47.0667 177.949 46.3C177.216 45.5333 176.274 45.15 175.124 45.15C174.374 45.15 173.699 45.325 173.099 45.675C172.499 46.0083 172.024 46.4917 171.674 47.125C171.324 47.7583 171.149 48.4917 171.149 49.325C171.149 50.1583 171.324 50.8917 171.674 51.525C172.024 52.1583 172.499 52.65 173.099 53C173.699 53.3333 174.374 53.5 175.124 53.5ZM190.163 42.5C192.13 42.5 193.63 42.975 194.663 43.925C195.713 44.8583 196.238 46.275 196.238 48.175V56H193.288V54.375C192.905 54.9583 192.355 55.4083 191.638 55.725C190.938 56.025 190.088 56.175 189.088 56.175C188.088 56.175 187.213 56.0083 186.463 55.675C185.713 55.325 185.13 54.85 184.713 54.25C184.313 53.6333 184.113 52.9417 184.113 52.175C184.113 50.975 184.555 50.0167 185.438 49.3C186.338 48.5667 187.747 48.2 189.663 48.2H193.113V48C193.113 47.0667 192.83 46.35 192.263 45.85C191.713 45.35 190.888 45.1 189.788 45.1C189.038 45.1 188.297 45.2167 187.563 45.45C186.847 45.6833 186.238 46.0083 185.738 46.425L184.513 44.15C185.213 43.6167 186.055 43.2083 187.038 42.925C188.022 42.6417 189.063 42.5 190.163 42.5ZM189.738 53.9C190.522 53.9 191.213 53.725 191.813 53.375C192.43 53.0083 192.863 52.4917 193.113 51.825V50.275H189.888C188.088 50.275 187.188 50.8667 187.188 52.05C187.188 52.6167 187.413 53.0667 187.863 53.4C188.313 53.7333 188.938 53.9 189.738 53.9ZM200.105 42.65H203.23V51.45L210.605 42.65H213.455V56H210.33V47.2L202.98 56H200.105V42.65ZM217.659 42.65H220.784V48.075H227.509V42.65H230.634V56H227.509V50.725H220.784V56H217.659V42.65ZM247.322 49.4C247.322 49.6167 247.306 49.925 247.272 50.325H236.797C236.981 51.3083 237.456 52.0917 238.222 52.675C239.006 53.2417 239.972 53.525 241.122 53.525C242.589 53.525 243.797 53.0417 244.747 52.075L246.422 54C245.822 54.7167 245.064 55.2583 244.147 55.625C243.231 55.9917 242.197 56.175 241.047 56.175C239.581 56.175 238.289 55.8833 237.172 55.3C236.056 54.7167 235.189 53.9083 234.572 52.875C233.972 51.825 233.672 50.6417 233.672 49.325C233.672 48.025 233.964 46.8583 234.547 45.825C235.147 44.775 235.972 43.9583 237.022 43.375C238.072 42.7917 239.256 42.5 240.572 42.5C241.872 42.5 243.031 42.7917 244.047 43.375C245.081 43.9417 245.881 44.75 246.447 45.8C247.031 46.8333 247.322 48.0333 247.322 49.4ZM240.572 45C239.572 45 238.722 45.3 238.022 45.9C237.339 46.4833 236.922 47.2667 236.772 48.25H244.347C244.214 47.2833 243.806 46.5 243.122 45.9C242.439 45.3 241.589 45 240.572 45Z" fill="#1F1F1F"/>
<path d="M126.437 81.8V93H125.269V82.824H118.181V93H117.013V81.8H126.437ZM134.408 81.8C135.837 81.8 136.957 82.1413 137.768 82.824C138.579 83.5067 138.984 84.4453 138.984 85.64C138.984 86.8347 138.579 87.7733 137.768 88.456C136.957 89.128 135.837 89.464 134.408 89.464H131.4V93H130.216V81.8H134.408ZM134.376 88.424C135.485 88.424 136.333 88.184 136.92 87.704C137.507 87.2133 137.8 86.5253 137.8 85.64C137.8 84.7333 137.507 84.04 136.92 83.56C136.333 83.0693 135.485 82.824 134.376 82.824H131.4V88.424H134.376ZM149.105 81.8V93H147.937V89.608H144.593C144.444 89.608 144.231 89.5973 143.953 89.576L141.601 93H140.337L142.881 89.368C142.06 89.1227 141.431 88.6907 140.993 88.072C140.556 87.4427 140.337 86.6747 140.337 85.768C140.337 84.5093 140.732 83.5333 141.521 82.84C142.321 82.1467 143.399 81.8 144.753 81.8H149.105ZM141.521 85.736C141.521 86.6533 141.788 87.3627 142.321 87.864C142.865 88.3547 143.655 88.6 144.689 88.6H147.937V82.824H144.801C143.756 82.824 142.945 83.0747 142.369 83.576C141.804 84.0667 141.521 84.7867 141.521 85.736ZM164.52 81.8V93H163.384V84.04L158.984 91.576H158.424L154.024 84.088V93H152.888V81.8H153.864L158.728 90.104L163.544 81.8H164.52ZM179.122 87.224C179.9 87.384 180.492 87.6987 180.898 88.168C181.303 88.6267 181.506 89.2293 181.506 89.976C181.506 90.9467 181.159 91.6933 180.466 92.216C179.783 92.7387 178.775 93 177.442 93H172.482V81.8H177.138C178.332 81.8 179.266 82.0453 179.938 82.536C180.61 83.0267 180.946 83.736 180.946 84.664C180.946 85.2933 180.786 85.8267 180.466 86.264C180.146 86.6907 179.698 87.0107 179.122 87.224ZM173.65 86.872H177.074C177.938 86.872 178.599 86.696 179.058 86.344C179.527 85.992 179.762 85.48 179.762 84.808C179.762 84.136 179.527 83.624 179.058 83.272C178.599 82.92 177.938 82.744 177.074 82.744H173.65V86.872ZM177.442 92.056C179.372 92.056 180.338 91.336 180.338 89.896C180.338 88.488 179.372 87.784 177.442 87.784H173.65V92.056H177.442ZM192.366 87.864H189.806V93H188.654V81.8H189.806V86.824H192.366L196.158 81.8H197.438L193.278 87.24L197.678 93H196.318L192.366 87.864ZM199.497 81.8H200.665V91.08L207.833 81.8H208.905V93H207.737V83.736L200.569 93H199.497V81.8ZM220.605 91.976V93H212.685V81.8H220.365V82.824H213.869V86.808H219.661V87.816H213.869V91.976H220.605ZM229.872 87.224C230.65 87.384 231.242 87.6987 231.648 88.168C232.053 88.6267 232.256 89.2293 232.256 89.976C232.256 90.9467 231.909 91.6933 231.216 92.216C230.533 92.7387 229.525 93 228.192 93H223.232V81.8H227.888C229.082 81.8 230.016 82.0453 230.688 82.536C231.36 83.0267 231.696 83.736 231.696 84.664C231.696 85.2933 231.536 85.8267 231.216 86.264C230.896 86.6907 230.448 87.0107 229.872 87.224ZM224.4 86.872H227.824C228.688 86.872 229.349 86.696 229.808 86.344C230.277 85.992 230.512 85.48 230.512 84.808C230.512 84.136 230.277 83.624 229.808 83.272C229.349 82.92 228.688 82.744 227.824 82.744H224.4V86.872ZM228.192 92.056C230.122 92.056 231.088 91.336 231.088 89.896C231.088 88.488 230.122 87.784 228.192 87.784H224.4V92.056H228.192ZM243.136 91.976V93H235.216V81.8H242.896V82.824H236.4V86.808H242.192V87.816H236.4V91.976H243.136Z" fill="#1F1F1F"/>
<defs>
<clipPath id="clip0_1:381">
<rect width="81" height="98" fill="white"/>
</clipPath>
</defs>
</svg>
