<svg width="283" height="98" viewBox="0 0 283 98" fill="none" xmlns="http://www.w3.org/2000/svg">
<path d="M26.6124 74.4177L17.7227 83.2042C17.7227 84.9821 21.8712 92.6865 25.4271 92.6865C28.2718 92.6865 27.4026 87.9454 26.6124 85.5748L33.1315 79.0556L26.6124 74.4177Z" fill="#FDA3C4"/>
<path d="M40.8359 77.2777L46.5764 68.1254L55.4321 71.8542L48.5403 79.0556C49.3305 81.2287 50.0812 85.8118 46.7624 86.7601C43.4435 87.7083 41.4285 80.8336 40.8359 77.2777Z" fill="#FDA3C4"/>
<path d="M37.28 50.0159C36.8059 49.5418 31.9462 55.7449 29.5756 58.9056C28.983 59.8933 27.7977 62.3428 27.7977 64.2392C27.7977 66.1357 34.5143 67.7953 37.8727 68.388L44.9844 64.2392C43.7991 63.0539 41.5471 60.2092 42.0212 58.3128C42.4953 56.4163 46.5648 55.9422 48.5403 55.9422C44.9844 54.1643 37.7541 50.4901 37.28 50.0159Z" fill="#FDA3C4"/>
<path d="M26.6124 74.4177L17.7227 83.2042C17.7227 84.9821 21.8712 92.6865 25.4271 92.6865C28.2718 92.6865 27.4026 87.9454 26.6124 85.5748L33.1315 79.0556L26.6124 74.4177Z" stroke="#1F1F1F"/>
<path d="M40.8359 77.2777L46.5764 68.1254L55.4321 71.8542L48.5403 79.0556C49.3305 81.2287 50.0812 85.8118 46.7624 86.7601C43.4435 87.7083 41.4285 80.8336 40.8359 77.2777Z" stroke="#1F1F1F"/>
<path d="M37.28 50.0159C36.8059 49.5418 31.9462 55.7449 29.5756 58.9056C28.983 59.8933 27.7977 62.3428 27.7977 64.2392C27.7977 66.1357 34.5143 67.7953 37.8727 68.388L44.9844 64.2392C43.7991 63.0539 41.5471 60.2092 42.0212 58.3128C42.4953 56.4163 46.5648 55.9422 48.5403 55.9422C44.9844 54.1643 37.7541 50.4901 37.28 50.0159Z" stroke="#1F1F1F"/>
<path d="M39.0613 31.6435C37.876 28.4827 35.8594 19.885 39.0613 15.6903C41.8443 12.0445 41.7724 7.99985 43.5499 8C45.3274 8.00015 46.3464 11.8505 46.3464 13.8261C51.9022 13.8261 54.9691 15.6903 56.8335 16.6227C58.6979 17.555 59.8631 11.0003 62.1935 11.7287C63.6478 12.1833 63.5997 17.0253 62.9816 22.1616C67.0587 17.2229 74.3119 10.2687 76.9908 14.4572C78.5067 16.8273 66.579 28.2853 60.4842 31.6435C59.3312 34 57.7603 35.7837 55.6555 36.3851L52.6922 39.3483C54.9236 41.5214 59.606 45.986 60.4842 46.4601C61.582 47.0528 65.8821 44.395 68.2527 42.0244C70.6233 39.6538 74.6202 42.9042 71.657 46.4601C68.6937 50.016 65.7305 54.7572 59.2114 52.3866C56.3429 51.3435 53.8211 50.0136 51.9022 48.8307L48.5437 55.541C51.7045 56.5288 58.0261 60.2095 58.0261 63.0542C58.0261 65.8989 55.6555 69.7709 54.4702 71.3513L47.3584 68.3881C47.7932 67.27 48.9192 65.0973 50.1069 64.8544C48.4684 64.8835 42.2159 64.7848 41.4319 63.0542C39.8212 59.4983 41.772 56.8907 43.5499 56.5351L48.5437 55.541L30.1717 51.2013L39.0613 31.6435Z" fill="white"/>
<path d="M24.2071 60.668C29.4224 57.8233 29.579 58.9057 30.1717 59.4983C30.7643 60.091 31.1985 61.1581 28.9863 63.0542C24.8378 66.6101 21.6436 69.9899 11.1566 67.6594C5.9295 66.4978 3.00006 57.5766 3 55.541C2.99982 49.6146 8.05807 48.3166 7.65108 52.3866C7.05843 58.3131 9.90747 62.299 11.6227 63.0542C15.6606 64.8322 17.688 64.2239 24.2071 60.668Z" fill="white"/>
<path d="M30.1717 71.3513V66.6101L37.7238 68.3881C37.9213 69.9685 37.7575 71.5884 37.2834 72.5366C36.8092 73.4848 33.925 76.8827 32.5422 78.4631L27.2084 74.9072L30.1717 71.3513Z" fill="white"/>
<path d="M39.0613 31.6435C37.876 28.4827 35.8594 19.885 39.0613 15.6903C41.8443 12.0445 41.7724 7.99985 43.5499 8C45.3274 8.00015 46.3464 11.8505 46.3464 13.8261C51.9022 13.8261 54.9691 15.6903 56.8335 16.6227C58.6979 17.555 59.8631 11.0003 62.1935 11.7287C63.6478 12.1833 63.5997 17.0253 62.9816 22.1616M39.0613 31.6435C45.2248 29.2726 52.6922 33.8167 55.6555 36.3851M39.0613 31.6435L30.1717 51.2013L48.5437 55.5411M55.6555 36.3851C57.7603 35.7837 59.3312 34 60.4842 31.6435M55.6555 36.3851L52.6922 39.3483C54.9236 41.5214 59.606 45.986 60.4842 46.4601C61.582 47.0528 65.8821 44.395 68.2527 42.0244C70.6233 39.6538 74.6202 42.9042 71.657 46.4601C68.6937 50.016 65.7305 54.7572 59.2114 52.3866C56.3429 51.3435 53.8211 50.0136 51.9022 48.8307M60.4842 31.6435C66.579 28.2853 78.5067 16.8273 76.9908 14.4572C74.3119 10.2687 67.0587 17.2229 62.9816 22.1616M60.4842 31.6435C61.811 28.9317 62.5845 25.4615 62.9816 22.1616M51.9022 48.8307C50.3323 47.8629 49.166 46.9935 48.5437 46.4601L51.9022 48.8307ZM51.9022 48.8307L48.5437 55.5411M48.5437 55.5411L43.5499 56.5351C41.772 56.8907 39.8212 59.4983 41.432 63.0542C42.4101 65.2136 51.9022 64.8322 50.3217 64.8322C49.0572 64.8322 47.8193 67.2028 47.3584 68.3881L54.4702 71.3513C55.6555 69.7709 58.0261 65.8989 58.0261 63.0542C58.0261 60.2095 51.7045 56.5288 48.5437 55.5411ZM30.1717 59.4983C29.579 58.9057 29.4224 57.8233 24.2071 60.6681C17.688 64.2239 15.6606 64.8322 11.6227 63.0542C9.90747 62.299 7.05843 58.3131 7.65108 52.3866C8.05807 48.3166 2.99982 49.6146 3 55.5411C3.00006 57.5766 5.9295 66.4978 11.1566 67.6594C21.6436 69.9899 24.8378 66.6101 28.9863 63.0542C31.1985 61.1581 30.7643 60.091 30.1717 59.4983ZM30.1717 66.6101V71.3513L27.2084 74.9072L32.5422 78.4631C33.925 76.8827 36.8092 73.4848 37.2834 72.5366C37.7575 71.5884 37.9213 69.9685 37.7238 68.3881L30.1717 66.6101Z" stroke="#1F1F1F"/>
<path d="M10.6121 46.4615C5.79451 44.355 6.26047 39.9271 7.64888 36.9792C13.5753 38.1657 20.0945 32.8297 24.243 29.8665C28.3915 26.9033 37.7216 23.807 37.7216 26.1776L38.4665 31.1043C45.7398 29.8641 51.9057 32.6962 55.6533 36.9792C58.9721 40.7721 57.0361 42.1155 55.6533 42.313L53.2827 38.7571C44.9856 37.5718 44.393 44.0909 38.4665 49.4248C33.7253 53.6918 29.3793 59.1047 27.7989 61.2777C22.4651 56.339 15.2 48.4676 10.6121 46.4615Z" fill="#F40000"/>
<path d="M38.4665 31.1043C45.7398 29.8641 51.9057 32.6962 55.6533 36.9792C58.9721 40.7721 57.0361 42.1155 55.6533 42.313L53.2827 38.7571C44.9856 37.5718 44.393 44.0909 38.4665 49.4248C33.7253 53.6918 29.3793 59.1047 27.7989 61.2777C22.4651 56.339 15.2 48.4677 10.6121 46.4615C5.79451 44.355 6.26047 39.9271 7.64888 36.9792C13.5753 38.1657 20.0945 32.8297 24.243 29.8665C28.3915 26.9033 37.7216 23.807 37.7216 26.1776L38.4665 31.1043ZM38.4665 31.1043C39.1199 31.6454 36.8977 31.4163 36.0959 31.6454L38.4665 31.1043Z" stroke="#1F1F1F"/>
<path d="M35.4809 42.6759C35.2717 44.0324 34.0707 45.2107 32.0749 45.9484C30.0972 46.6794 27.4483 46.9274 24.6048 46.4887C21.7613 46.0501 19.3103 45.0153 17.6449 43.7224C15.9641 42.4175 15.1741 40.932 15.3834 39.5755C15.5926 38.219 16.7936 37.0407 18.7894 36.303C20.7671 35.572 23.4159 35.324 26.2595 35.7627C29.103 36.2013 31.554 37.2361 33.2194 38.5291C34.9002 39.8339 35.6902 41.3194 35.4809 42.6759Z" fill="white" stroke="#1F1F1F"/>
<path d="M47.9508 21.5693C43.6838 20.6211 43.0121 22.7546 43.2097 23.9399C43.2097 26.3103 44.9876 26.3103 47.3579 26.3103H47.3584C49.729 26.3103 51.7065 22.4039 47.9508 21.5693Z" fill="white"/>
<path d="M58.6187 22.6817C55.2999 21.7334 54.0725 23.5938 54.27 24.7791C54.27 26.557 54.4702 26.903 58.6187 27.4956C61.4944 27.9064 62.7672 23.867 58.6187 22.6817Z" fill="white"/>
<path d="M47.9508 21.5693C43.6838 20.6211 43.0121 22.7546 43.2097 23.9399C43.2097 26.3103 44.9876 26.3103 47.3579 26.3103H47.3584C49.729 26.3103 51.7065 22.4039 47.9508 21.5693Z" stroke="#1F1F1F"/>
<path d="M58.6187 22.6817C55.2999 21.7334 54.0725 23.5938 54.27 24.7791C54.27 26.557 54.4702 26.903 58.6187 27.4956C61.4944 27.9064 62.7672 23.867 58.6187 22.6817Z" stroke="#1F1F1F"/>
<path d="M49.136 28.0879C49.7286 30.0634 51.5066 33.0661 53.8772 29.2732" stroke="#1F1F1F"/>
<circle cx="45.4526" cy="23.8872" r="2.37059" fill="#1F1F1F"/>
<circle cx="56.6442" cy="24.8194" r="2.37059" fill="#1F1F1F"/>
<path d="M48.2253 26.2657C47.7714 25.2779 48.6434 25.5164 49.1362 25.7592C49.8648 25.3539 50.2767 25.8798 49.9056 26.2852C49.5347 26.6902 48.6792 27.2535 48.2253 26.2657Z" fill="#FDA3C4"/>
<path d="M16.9392 39.4797C16.9615 39.4167 16.981 39.3633 16.9943 39.3187C17.0214 39.2397 17.0494 39.1576 17.0774 39.0755C17.1054 38.9934 17.1367 38.8882 17.1746 38.7607C17.2116 38.6363 17.2499 38.4953 17.2868 38.3471C17.3255 38.1926 17.351 38.0827 17.3657 38.0213C17.3803 37.96 17.3925 37.8947 17.4076 37.8199C17.4226 37.745 17.432 37.6893 17.4391 37.6534C17.4471 37.6144 17.4536 37.5683 17.4611 37.5189L17.4752 37.4472C17.4813 37.4146 17.5 37.3882 17.5311 37.3681C17.5623 37.3479 17.5998 37.3428 17.6378 37.3481C17.6758 37.3533 17.71 37.3713 17.7337 37.4005C17.7574 37.4297 17.7667 37.459 17.7596 37.4949L17.7455 37.5665C17.738 37.6159 17.7324 37.6589 17.7254 37.6947C17.7183 37.7305 17.708 37.7894 17.6929 37.8643C17.6779 37.9391 17.6637 38.0108 17.6472 38.0785C17.6316 38.143 17.6071 38.2498 17.5693 38.4011C17.5296 38.5589 17.4912 38.6999 17.4524 38.8306C17.4173 38.9486 17.3826 39.053 17.3537 39.1383C17.3796 39.1238 17.3978 39.1109 17.416 39.098C17.4626 39.0746 17.5125 39.0519 17.5657 39.03C17.619 39.008 17.6834 38.9852 17.7655 38.963C17.8467 38.9441 17.9125 38.9284 17.961 38.9224C18.023 38.9195 18.1043 38.9244 18.2049 38.937C18.3079 38.9536 18.381 38.9736 18.4345 38.9994C18.4822 39.0205 18.5256 39.0439 18.568 39.0706C18.6119 39.1044 18.6554 39.1517 18.7052 39.2141C18.7507 39.2789 18.787 39.3382 18.8074 39.3905C18.8269 39.446 18.8421 39.5039 18.8495 39.5634C18.8585 39.6301 18.8484 39.7367 18.8207 39.8904C18.7954 40.048 18.7665 40.1572 18.7418 40.2162C18.7194 40.2792 18.6923 40.3343 18.6584 40.3878C18.6211 40.4406 18.5814 40.4894 18.5393 40.5343C18.4962 40.5824 18.4387 40.6306 18.3702 40.6796C18.3016 40.7287 18.2402 40.7658 18.1869 40.7877C18.1337 40.8097 18.0583 40.8334 17.9565 40.8613C17.8556 40.886 17.7763 40.8986 17.721 40.903C17.6701 40.9051 17.6124 40.9056 17.5421 40.8998C17.4786 40.8956 17.4262 40.8905 17.3848 40.8845C17.3502 40.88 17.3155 40.8755 17.2843 40.8718C17.2463 40.8666 17.1957 40.8551 17.1326 40.8374C17.0628 40.8181 17.0084 40.7955 16.9693 40.7696L16.9336 40.7445C16.8994 40.7265 16.8791 40.698 16.8708 40.6655C16.8634 40.6298 16.8729 40.5979 16.8959 40.5691C16.9188 40.5403 16.949 40.5234 16.9899 40.519C17.0307 40.5147 17.0644 40.5224 17.0977 40.5435L17.1401 40.5702C17.156 40.5772 17.182 40.5865 17.2182 40.5981C17.2653 40.6089 17.3024 40.6173 17.3293 40.6234C17.3572 40.6264 17.3919 40.6308 17.4299 40.6361C17.4645 40.6405 17.5102 40.6441 17.5627 40.6492C17.6194 40.6519 17.6661 40.6523 17.7026 40.6504C17.7348 40.6509 17.792 40.6401 17.8732 40.6211C17.9587 40.5997 18.0187 40.5793 18.0547 40.5671C18.0883 40.5509 18.1324 40.5235 18.1861 40.4881C18.2398 40.4526 18.2825 40.4181 18.315 40.3812C18.3466 40.3476 18.3724 40.3092 18.3991 40.2676C18.4216 40.2285 18.4459 40.183 18.4712 40.1343C18.4897 40.084 18.5095 39.9932 18.5358 39.8563C18.5554 39.7178 18.5642 39.6279 18.5621 39.5866C18.5566 39.5445 18.5511 39.5024 18.537 39.4652C18.522 39.4311 18.4978 39.3916 18.4678 39.3473C18.4325 39.3087 18.4088 39.2795 18.3881 39.2645C18.3649 39.2457 18.3374 39.2292 18.309 39.2159C18.283 39.2066 18.2358 39.1959 18.1641 39.183C18.0915 39.1733 18.0414 39.1721 18.0116 39.1756C17.9717 39.1767 17.9189 39.1851 17.8555 39.2047C17.7931 39.2212 17.7407 39.2399 17.7038 39.2553C17.6625 39.2732 17.6169 39.2934 17.5756 39.3113C17.5411 39.3306 17.4802 39.3781 17.394 39.4504C17.3671 39.4681 17.3436 39.4866 17.3245 39.5026C17.2713 39.5484 17.232 39.5837 17.2067 39.6086C17.1919 39.6461 17.1762 39.6867 17.1629 39.7314C17.1102 39.8725 17.066 39.985 17.0303 40.0688C16.9979 40.1533 16.9713 40.2187 16.9513 40.2618C16.9303 40.3081 16.9075 40.3608 16.8808 40.4262C16.8532 40.4948 16.8323 40.5411 16.8213 40.5658C16.8094 40.5937 16.7879 40.6297 16.7569 40.6737C16.7525 40.6761 16.7449 40.6777 16.7396 40.6833C16.731 40.6882 16.719 40.6923 16.694 40.7036C16.67 40.7118 16.6494 40.7207 16.6297 40.7264C16.61 40.7322 16.5869 40.7371 16.5614 40.7381C16.536 40.7392 16.5148 40.7377 16.4989 40.7307C16.483 40.7237 16.468 40.7135 16.4593 40.6945C16.4506 40.6755 16.4461 40.6541 16.4479 40.6239C16.4497 40.5936 16.4558 40.561 16.4595 40.5244C16.4632 40.4878 16.4703 40.452 16.4754 40.4225C16.4825 40.3867 16.4905 40.3477 16.5019 40.3094C16.5132 40.2711 16.5384 40.1986 16.5774 40.0917C16.6173 39.9817 16.6521 39.9011 16.6807 39.8532C16.706 39.8045 16.7346 39.7565 16.7657 39.7125C16.7967 39.6685 16.8278 39.6245 16.8666 39.5789C16.8822 39.5382 16.9086 39.5102 16.9392 39.4797Z" fill="#1F1F1F"/>
<path d="M20.3722 41.6931C20.3355 41.719 20.2958 41.7305 20.2507 41.7237L20.1596 41.7133C20.0796 41.702 19.9855 41.6772 19.8723 41.6311C19.7626 41.5857 19.6669 41.5297 19.5833 41.4697C19.5065 41.4113 19.4442 41.3527 19.398 41.3011C19.3502 41.2424 19.2931 41.1542 19.2364 41.0284C19.1787 40.9058 19.1424 40.8086 19.1309 40.7376C19.117 40.6626 19.1243 40.5411 19.1526 40.373C19.1776 40.2042 19.2052 40.0873 19.2397 40.0199C19.2768 39.9564 19.3341 39.8736 19.415 39.7722C19.496 39.6708 19.579 39.587 19.6572 39.5192C19.7378 39.4554 19.8079 39.4029 19.8722 39.3695C19.9374 39.333 20.0308 39.2995 20.1576 39.2632C20.2931 39.2221 20.4457 39.2088 20.612 39.2225C20.7748 39.2355 20.8888 39.2545 20.9606 39.2811C21.03 39.3037 21.1208 39.3516 21.2321 39.4282C21.3468 39.5055 21.4295 39.5687 21.4801 39.6178C21.5307 39.6669 21.579 39.7361 21.6268 39.8188C21.6713 39.9007 21.7031 39.9763 21.7174 40.0377C21.7342 40.1031 21.7414 40.2005 21.7356 40.3293C21.7265 40.4572 21.7057 40.5756 21.6751 40.6782C21.6465 40.7743 21.6158 40.8529 21.5865 40.9147C21.5597 40.9805 21.5058 41.064 21.4297 41.1734C21.3502 41.2819 21.2731 41.3705 21.1958 41.4351C21.1176 41.5029 21.0209 41.5597 20.9024 41.6046C20.7829 41.6528 20.6949 41.6807 20.6348 41.6876C20.5796 41.7025 20.489 41.7025 20.3722 41.6931ZM19.7647 41.2748C19.8208 41.2567 19.8678 41.2571 19.9115 41.2807L19.9946 41.3303C20.0374 41.3571 20.0854 41.3783 20.1422 41.3946C20.1946 41.4133 20.2703 41.4271 20.3725 41.4366C20.4748 41.4461 20.5432 41.4479 20.5809 41.4428C20.6187 41.4377 20.6835 41.4147 20.7735 41.3804C20.8644 41.3428 20.935 41.3007 20.992 41.2554C21.0533 41.2078 21.1136 41.1393 21.1772 41.0477C21.2451 40.9536 21.2927 40.8789 21.3182 40.8299C21.3412 40.777 21.3656 40.7072 21.3924 40.6175C21.4172 40.5342 21.4357 40.4357 21.4434 40.3246C21.4502 40.2166 21.4475 40.1407 21.4342 40.1001C21.4219 40.0563 21.3989 39.9997 21.3642 39.9337C21.3295 39.8677 21.2934 39.8184 21.2603 39.7835C21.2272 39.7487 21.1621 39.6997 21.0649 39.6366C20.9667 39.5767 20.8953 39.5366 20.8488 39.5226C20.8065 39.5062 20.7207 39.4901 20.5893 39.4808C20.4648 39.4731 20.3524 39.4853 20.2575 39.5117C20.154 39.5429 20.078 39.5668 20.0355 39.5879C19.9876 39.6147 19.9282 39.6559 19.8606 39.7125C19.794 39.7658 19.7259 39.8359 19.6556 39.926C19.5828 40.0121 19.5361 40.0837 19.514 40.1334C19.4929 40.1799 19.4686 40.2736 19.4411 40.4145C19.4195 40.5601 19.4131 40.6545 19.4235 40.7047C19.4329 40.7582 19.4638 40.837 19.5151 40.9445C19.564 41.048 19.6046 41.1187 19.6358 41.16C19.6708 41.1885 19.7131 41.2289 19.7647 41.2748Z" fill="#1F1F1F"/>
<path d="M23.2439 42.3745C23.2072 42.4004 23.1675 42.4119 23.1224 42.4051L23.0313 42.3947C22.9513 42.3834 22.8572 42.3586 22.7441 42.3125C22.6343 42.2671 22.5386 42.2111 22.455 42.1511C22.3782 42.0927 22.3159 42.034 22.2697 41.9825C22.2219 41.9238 22.1649 41.8356 22.1081 41.7098C22.0504 41.5872 22.0141 41.49 22.0026 41.419C21.9888 41.344 21.996 41.2225 22.0243 41.0544C22.0493 40.8856 22.0769 40.7687 22.1115 40.7013C22.1485 40.6378 22.2058 40.555 22.2868 40.4536C22.3677 40.3522 22.4507 40.2684 22.5289 40.2006C22.6095 40.1368 22.6796 40.0843 22.7439 40.0509C22.8091 40.0144 22.9025 39.9809 23.0293 39.9446C23.1648 39.9035 23.3174 39.8902 23.4837 39.9039C23.6465 39.9169 23.7605 39.9359 23.8323 39.9625C23.9017 39.985 23.9925 40.033 24.1038 40.1096C24.2185 40.1869 24.3012 40.2501 24.3518 40.2992C24.4024 40.3483 24.4507 40.4175 24.4985 40.5001C24.543 40.5821 24.5748 40.6577 24.5891 40.7191C24.6059 40.7845 24.6131 40.8819 24.6073 41.0107C24.5982 41.1386 24.5774 41.257 24.5468 41.3596C24.5182 41.4557 24.4875 41.5343 24.4582 41.5961C24.4314 41.6619 24.3775 41.7454 24.3014 41.8548C24.2219 41.9633 24.1448 42.0519 24.0675 42.1165C23.9893 42.1843 23.8926 42.2411 23.7741 42.286C23.6546 42.3342 23.5666 42.3621 23.5065 42.369C23.4513 42.3839 23.3607 42.3839 23.2439 42.3745ZM22.6364 41.9562C22.6925 41.9381 22.7395 41.9385 22.7832 41.9621L22.8663 42.0117C22.9091 42.0385 22.9571 42.0597 23.0139 42.076C23.0663 42.0947 23.142 42.1085 23.2442 42.118C23.3465 42.1275 23.4149 42.1293 23.4526 42.1242C23.4904 42.1191 23.5552 42.0961 23.6452 42.0618C23.7362 42.0242 23.8067 41.9821 23.8637 41.9368C23.925 41.8892 23.9853 41.8207 24.0489 41.7291C24.1168 41.635 24.1644 41.5603 24.1899 41.5113C24.2129 41.4584 24.2373 41.3886 24.2641 41.2989C24.2889 41.2156 24.3074 41.1171 24.3151 41.006C24.3219 40.898 24.3192 40.8221 24.3059 40.7815C24.2936 40.7377 24.2706 40.6811 24.2359 40.6151C24.2012 40.5491 24.1651 40.4998 24.132 40.4649C24.0989 40.4301 24.0338 40.3811 23.9366 40.318C23.8384 40.2581 23.767 40.218 23.7205 40.204C23.6782 40.1875 23.5924 40.1715 23.461 40.1622C23.3365 40.1545 23.2241 40.1667 23.1292 40.1931C23.0257 40.2243 22.9497 40.2482 22.9072 40.2693C22.8593 40.2961 22.7999 40.3373 22.7323 40.3939C22.6657 40.4472 22.5976 40.5173 22.5273 40.6074C22.4545 40.6935 22.4078 40.765 22.3857 40.8148C22.3646 40.8613 22.3403 40.955 22.3128 41.0959C22.2912 41.2415 22.2848 41.3359 22.2952 41.3861C22.3046 41.4396 22.3355 41.5184 22.3868 41.6259C22.4357 41.7294 22.4763 41.8001 22.5075 41.8414C22.5425 41.8699 22.5848 41.9103 22.6364 41.9562Z" fill="#1F1F1F"/>
<path d="M25.1448 41.978C25.1381 42.0003 25.1305 42.0258 25.1239 42.0481C25.1102 42.1063 25.0975 42.1612 25.0838 42.2194C25.0701 42.2775 25.0583 42.3293 25.045 42.3739C25.0308 42.4217 25.0123 42.472 24.9928 42.5254L24.9662 42.6147C24.9534 42.6458 24.928 42.6706 24.8944 42.6868C24.8608 42.703 24.8234 42.7081 24.7872 42.6965C24.7511 42.6849 24.7212 42.6645 24.6975 42.6353C24.6748 42.6029 24.6732 42.5719 24.6861 42.5408L24.7107 42.4579C24.7311 42.4013 24.7487 42.3542 24.762 42.3096C24.7743 42.2682 24.7861 42.2164 24.7979 42.1646C24.8107 42.1096 24.8234 42.0547 24.838 41.9934C24.857 41.9296 24.8859 41.8204 24.9256 41.6627C24.953 41.5464 24.9771 41.4532 24.9979 41.3831C25.0059 41.344 25.0158 41.2987 25.0276 41.2469C25.0626 41.1051 25.0896 41.0023 25.1104 40.9322C25.1313 40.862 25.1555 40.7927 25.1821 40.7273C25.1831 40.7241 25.185 40.7177 25.1869 40.7113C25.1888 40.7049 25.1959 40.693 25.2074 40.6786C25.2189 40.6641 25.227 40.649 25.2385 40.6346C25.2499 40.6202 25.2638 40.6097 25.2811 40.6C25.2984 40.5903 25.3147 40.5838 25.3334 40.5813C25.3522 40.5787 25.37 40.5794 25.3926 40.5879C25.4153 40.5965 25.436 40.6114 25.4582 40.6335C25.4944 40.6689 25.5104 40.6998 25.5139 40.7244C25.5174 40.749 25.5126 40.765 25.4954 40.7746L25.4738 40.7868C25.4577 40.8409 25.4387 40.9047 25.416 40.9812C25.3932 41.0577 25.3733 41.1247 25.3544 41.1884C25.3363 41.249 25.3174 41.3127 25.2975 41.3797C25.2961 41.3964 25.2938 41.4163 25.2862 41.4418C25.2754 41.4904 25.2683 41.5262 25.2622 41.5589C25.3459 41.4588 25.4076 41.3843 25.4507 41.3362C25.4981 41.2858 25.5479 41.2392 25.5986 41.1895C25.6503 41.1366 25.7409 41.0619 25.8636 40.9638C25.9982 40.8617 26.0893 40.7974 26.1368 40.7707C26.1944 40.7464 26.2578 40.7267 26.327 40.7118L26.4053 40.7024C26.4437 40.6941 26.4818 40.6994 26.5184 40.7213C26.5517 40.7425 26.5729 40.7678 26.5813 40.8003C26.5896 40.8328 26.5801 40.8647 26.5562 40.8967C26.5332 40.9255 26.5021 40.9456 26.4646 40.9507L26.3853 40.9633C26.3478 40.9684 26.3127 40.9775 26.2844 40.988C26.2542 41.005 26.1804 41.0597 26.0649 41.1457C25.9465 41.2414 25.8646 41.3112 25.8191 41.3553C25.7727 41.4026 25.7272 41.4467 25.6841 41.4948C25.641 41.5429 25.575 41.6198 25.486 41.7255C25.3832 41.8416 25.3037 41.9154 25.2456 41.9533C25.2106 41.9623 25.1789 41.9721 25.1448 41.978Z" fill="#1F1F1F"/>
<path d="M26.7101 43.151C26.6739 43.1663 26.6382 43.1682 26.602 43.1598C26.5657 43.1515 26.5374 43.128 26.5175 43.0998C26.4986 43.0683 26.4928 43.04 26.5021 43.0083L26.5226 42.9623C26.5319 42.9306 26.5476 42.8768 26.5699 42.8008C26.5921 42.7248 26.6107 42.6615 26.6246 42.614C26.6376 42.5696 26.6528 42.5055 26.6727 42.4256C26.6935 42.3425 26.7157 42.2428 26.7415 42.1305C26.765 42.0142 26.7867 41.9042 26.8098 41.8014C26.8328 41.6985 26.8527 41.6186 26.8647 41.5537C26.8766 41.4888 26.8876 41.4272 26.9005 41.3591C26.9134 41.2911 26.9207 41.2421 26.9248 41.216C26.9304 41.197 26.9336 41.1741 26.9344 41.1472L26.9408 41.1013C26.9426 41.0713 26.9575 41.0443 26.988 41.0243C27.0194 41.0012 27.0537 40.9922 27.0909 40.9974C27.129 40.9994 27.1624 41.0173 27.1898 41.0439C27.2172 41.0705 27.2263 41.0997 27.2203 41.1321L27.219 41.1724C27.2131 41.2048 27.208 41.2341 27.2039 41.2602C27.1974 41.2823 27.191 41.3282 27.1814 41.397C27.1685 41.465 27.1557 41.533 27.1437 41.5979C27.1318 41.6627 27.1142 41.7466 27.0912 41.8494C27.0648 41.9515 27.0399 42.0607 27.014 42.1731C26.9905 42.2894 26.9716 42.3898 26.9508 42.4729C26.93 42.556 26.9148 42.6201 26.9009 42.6676C26.887 42.7151 26.8684 42.7785 26.8452 42.8576C26.8221 42.9368 26.8054 42.9938 26.7961 43.0255L26.7737 43.0778C26.7678 43.1102 26.7462 43.1357 26.7101 43.151Z" fill="#1F1F1F"/>
<path d="M27.7846 41.1184C27.8078 41.0895 27.8383 41.0724 27.8761 41.0673C27.9138 41.0622 27.9512 41.0706 27.9891 41.0895C28.0227 41.1108 28.0441 41.1362 28.0525 41.1689L28.0758 41.2974C28.0952 41.3908 28.1087 41.5034 28.1175 41.6321C28.1292 41.7511 28.1374 41.8454 28.1473 41.9092C28.1632 41.9779 28.1859 42.072 28.2121 42.1909C28.2417 42.3106 28.2758 42.4518 28.3128 42.6074C28.3489 42.7662 28.3765 42.8683 28.3937 42.9201C28.4099 42.9752 28.4271 43.027 28.4419 43.0748C28.4551 43.1155 28.4791 43.1688 28.5182 43.2325C28.5255 43.2444 28.5362 43.2571 28.5436 43.269C28.5663 43.2536 28.5866 43.2343 28.6102 43.2157C28.7034 43.1341 28.7686 43.0736 28.8034 43.0301C28.8443 42.9778 28.8853 42.9255 28.9282 42.8668C28.9755 42.8056 29.055 42.697 29.1677 42.5377C29.2829 42.3824 29.3649 42.2778 29.4112 42.2198C29.4575 42.1618 29.511 42.0918 29.5717 42.0097C29.6349 41.9316 29.6802 41.8769 29.7087 41.8423L29.7477 41.7963C29.7665 41.7698 29.8004 41.7535 29.8382 41.7484C29.8794 41.744 29.9167 41.7525 29.9513 41.7706C29.9848 41.7919 30.0062 41.8173 30.0103 41.8525C30.0177 41.8884 30.0091 41.9172 29.9826 41.9454L29.9503 41.9929C29.9237 42.0211 29.8784 42.0759 29.8152 42.154C29.7545 42.236 29.7019 42.3028 29.6566 42.3576C29.6147 42.4131 29.5327 42.5178 29.4166 42.6763C29.3004 42.8348 29.2175 42.9426 29.178 43.0021C29.1308 43.0633 29.0888 43.1188 29.0478 43.1711C29.0049 43.2299 28.9316 43.3057 28.8243 43.3977C28.819 43.4034 28.8084 43.4147 28.7901 43.4276C28.7751 43.4413 28.7611 43.4518 28.7524 43.4567C28.7437 43.4616 28.7296 43.4721 28.7103 43.4883C28.691 43.5044 28.677 43.5149 28.6683 43.5198C28.6596 43.5247 28.6431 43.5312 28.6223 43.5402C28.6015 43.5492 28.5826 43.5517 28.5681 43.5518C28.5535 43.552 28.5356 43.5513 28.5133 43.5531C28.491 43.5549 28.4706 43.5503 28.454 43.5328C28.3846 43.5103 28.3233 43.4484 28.2656 43.3498C28.21 43.2687 28.1753 43.2026 28.16 43.1444C28.1419 43.0958 28.1247 43.044 28.1084 42.9889C28.0897 42.9299 28.0607 42.8206 28.0265 42.6554C27.9904 42.4966 27.9588 42.3594 27.9258 42.239C27.8962 42.1193 27.8744 42.0219 27.862 41.9541C27.8481 41.879 27.835 41.7768 27.8228 41.6474C27.8189 41.5267 27.8059 41.4245 27.7905 41.3423L27.7603 41.2122C27.7519 41.1795 27.7615 41.1474 27.7846 41.1184Z" fill="#1F1F1F"/>
<path d="M32.2279 43.8971L32.2212 43.8956C32.1869 43.9254 32.1571 43.9528 32.1349 43.9785C32.1069 43.9995 32.078 44.0237 32.0457 44.0471C32.0037 44.0786 31.9159 44.1305 31.7831 44.1994C31.6494 44.2716 31.549 44.3172 31.4828 44.3329C31.4199 44.3494 31.3581 44.3627 31.2981 44.3696C31.2381 44.3765 31.1791 44.3802 31.1201 44.3839C31.0587 44.3836 30.988 44.3779 30.9091 44.3634C30.8311 44.3457 30.7467 44.3129 30.6594 44.2658C30.5823 44.2209 30.5255 44.1807 30.4872 44.1515C30.4488 44.1223 30.4114 44.0899 30.3759 44.0511C30.3395 44.0155 30.3069 43.9671 30.2761 43.9123C30.2415 43.8464 30.2208 43.7699 30.2161 43.6766C30.2094 43.5896 30.2115 43.5218 30.2234 43.4698C30.2343 43.421 30.2539 43.3674 30.2841 43.3025C30.3134 43.2408 30.349 43.1942 30.3827 43.154C30.4173 43.1106 30.4761 43.059 30.56 42.996C30.6449 42.9298 30.7163 42.8845 30.7733 42.8633C30.826 42.8445 30.8786 42.8257 30.9371 42.8116C30.9956 42.7975 31.0696 42.7801 31.1605 42.7666C31.2582 42.7546 31.3699 42.756 31.4871 42.7757C31.6052 42.7923 31.6992 42.817 31.7604 42.8548C31.8249 42.8934 31.9051 42.9765 32.0019 43.1009C32.015 43.1176 32.0248 43.1335 32.0379 43.1501C32.0356 43.0607 32.0353 42.9889 32.0326 42.9371C32.0261 42.8741 32.0132 42.796 31.9914 42.6988C31.9722 42.6056 31.9506 42.5323 31.9276 42.4759C31.908 42.4202 31.8797 42.3693 31.8495 42.3249C31.8242 42.2884 31.7678 42.2346 31.6862 42.1683C31.6013 42.1011 31.5251 42.0531 31.4568 42.0274C31.3826 41.9969 31.3235 41.9766 31.276 41.9659C31.2261 41.9511 31.1786 41.9404 31.1283 41.9392C31.091 41.9307 31.0107 41.933 30.8985 41.9452C30.8153 41.9571 30.7569 41.9711 30.725 41.981L30.683 42.0125C30.6516 42.0327 30.6154 42.045 30.5762 42.0429C30.537 42.0409 30.5016 42.026 30.4734 41.9991C30.4453 41.9722 30.4369 41.9396 30.4396 41.906C30.4424 41.8725 30.4587 41.842 30.4867 41.821L30.5407 41.7854C30.5933 41.7427 30.6991 41.7154 30.8602 41.6973C31.0067 41.6793 31.1117 41.6792 31.1771 41.6906C31.2366 41.6972 31.2952 41.7071 31.3519 41.7234C31.4163 41.738 31.4948 41.7661 31.5816 41.8028C31.6751 41.8411 31.7731 41.9009 31.878 41.9862C31.9839 42.0683 32.0601 42.1403 32.1035 42.2014C32.1434 42.2617 32.179 42.3244 32.2083 42.396C32.2377 42.4676 32.2623 42.5552 32.2845 42.6627C32.3067 42.7703 32.3202 42.8588 32.3249 42.9282C32.3295 42.9976 32.3333 43.0941 32.3344 43.2242C32.3383 43.3447 32.3449 43.4316 32.351 43.4842C32.3527 43.5393 32.351 43.5936 32.3527 43.6486C32.3544 43.7037 32.354 43.7412 32.3541 43.7651C32.3669 43.7954 32.3496 43.829 32.3057 43.8669L32.2279 43.8971ZM32.021 43.7169C32.0068 43.6795 31.996 43.6429 31.9833 43.6127C31.9667 43.5713 31.9476 43.526 31.9261 43.4767C31.9037 43.4306 31.8515 43.3505 31.7679 43.2426C31.6866 43.1388 31.6321 43.0786 31.5977 43.0605C31.5725 43.048 31.5226 43.0332 31.4437 43.0187C31.357 43.0059 31.281 43.0058 31.2167 43.0151C31.1379 43.0246 31.076 43.0379 31.032 43.0518C30.9881 43.0658 30.9441 43.0797 30.9001 43.0937C30.8673 43.1067 30.8176 43.1399 30.753 43.1867C30.6874 43.2367 30.6445 43.2714 30.6223 43.2972C30.6036 43.3237 30.5776 43.3622 30.5531 43.4079C30.533 43.4512 30.5191 43.4856 30.5139 43.5152C30.5053 43.544 30.5021 43.5911 30.5078 43.6573C30.5143 43.7203 30.5257 43.7673 30.5451 43.7991C30.5661 43.838 30.589 43.8705 30.6114 43.8927C30.6337 43.9148 30.6595 43.9377 30.6852 43.9607C30.7109 43.9836 30.7604 44.0119 30.8259 44.0472C30.8812 44.0803 30.9326 44.1022 30.9801 44.113C31.0353 44.1221 31.0812 44.1257 31.117 44.127C31.1572 44.1258 31.2017 44.1222 31.2505 44.1162C31.2994 44.1102 31.3458 44.1002 31.3956 44.091C31.4396 44.0771 31.5192 44.0405 31.6346 43.9812C31.751 43.9188 31.8248 43.8774 31.8518 43.8596C31.8808 43.8355 31.9063 43.8105 31.9265 43.7912C31.9449 43.7782 31.9747 43.7508 32.021 43.7169Z" fill="#1F1F1F"/>
<path d="M143.865 26.25C142.082 26.25 140.474 25.8667 139.04 25.1C137.607 24.3167 136.482 23.2417 135.665 21.875C134.849 20.4917 134.44 18.95 134.44 17.25C134.44 15.55 134.849 14.0167 135.665 12.65C136.482 11.2667 137.607 10.1917 139.04 9.425C140.474 8.64167 142.082 8.25 143.865 8.25C145.649 8.25 147.257 8.64167 148.69 9.425C150.124 10.1917 151.249 11.2583 152.065 12.625C152.882 13.9917 153.29 15.5333 153.29 17.25C153.29 18.9667 152.882 20.5083 152.065 21.875C151.249 23.2417 150.124 24.3167 148.69 25.1C147.257 25.8667 145.649 26.25 143.865 26.25ZM143.865 23.4C145.032 23.4 146.082 23.1417 147.015 22.625C147.949 22.0917 148.682 21.3583 149.215 20.425C149.749 19.475 150.015 18.4167 150.015 17.25C150.015 16.0833 149.749 15.0333 149.215 14.1C148.682 13.15 147.949 12.4167 147.015 11.9C146.082 11.3667 145.032 11.1 143.865 11.1C142.699 11.1 141.649 11.3667 140.715 11.9C139.782 12.4167 139.049 13.15 138.515 14.1C137.982 15.0333 137.715 16.0833 137.715 17.25C137.715 18.4167 137.982 19.475 138.515 20.425C139.049 21.3583 139.782 22.0917 140.715 22.625C141.649 23.1417 142.699 23.4 143.865 23.4ZM166.864 15.3H162.189V26H159.064V15.3H154.364V12.65H166.864V15.3ZM181.931 12.65V26H178.831V15.3H172.256V26H169.131V12.65H181.931ZM193.548 12.5C194.848 12.5 196.006 12.7833 197.023 13.35C198.056 13.9167 198.865 14.7167 199.448 15.75C200.031 16.7833 200.323 17.975 200.323 19.325C200.323 20.675 200.031 21.875 199.448 22.925C198.865 23.9583 198.056 24.7583 197.023 25.325C196.006 25.8917 194.848 26.175 193.548 26.175C191.748 26.175 190.323 25.575 189.273 24.375V30.85H186.148V12.65H189.123V14.4C189.64 13.7667 190.273 13.2917 191.023 12.975C191.79 12.6583 192.631 12.5 193.548 12.5ZM193.198 23.5C194.348 23.5 195.29 23.1167 196.023 22.35C196.773 21.5833 197.148 20.575 197.148 19.325C197.148 18.075 196.773 17.0667 196.023 16.3C195.29 15.5333 194.348 15.15 193.198 15.15C192.448 15.15 191.773 15.325 191.173 15.675C190.573 16.0083 190.098 16.4917 189.748 17.125C189.398 17.7583 189.223 18.4917 189.223 19.325C189.223 20.1583 189.398 20.8917 189.748 21.525C190.098 22.1583 190.573 22.65 191.173 23C191.773 23.3333 192.448 23.5 193.198 23.5ZM208.237 12.5C210.204 12.5 211.704 12.975 212.737 13.925C213.787 14.8583 214.312 16.275 214.312 18.175V26H211.362V24.375C210.979 24.9583 210.429 25.4083 209.712 25.725C209.012 26.025 208.162 26.175 207.162 26.175C206.162 26.175 205.287 26.0083 204.537 25.675C203.787 25.325 203.204 24.85 202.787 24.25C202.387 23.6333 202.187 22.9417 202.187 22.175C202.187 20.975 202.629 20.0167 203.512 19.3C204.412 18.5667 205.82 18.2 207.737 18.2H211.187V18C211.187 17.0667 210.904 16.35 210.337 15.85C209.787 15.35 208.962 15.1 207.862 15.1C207.112 15.1 206.37 15.2167 205.637 15.45C204.92 15.6833 204.312 16.0083 203.812 16.425L202.587 14.15C203.287 13.6167 204.129 13.2083 205.112 12.925C206.095 12.6417 207.137 12.5 208.237 12.5ZM207.812 23.9C208.595 23.9 209.287 23.725 209.887 23.375C210.504 23.0083 210.937 22.4917 211.187 21.825V20.275H207.962C206.162 20.275 205.262 20.8667 205.262 22.05C205.262 22.6167 205.487 23.0667 205.937 23.4C206.387 23.7333 207.012 23.9 207.812 23.9ZM227.854 19.05C229.504 19.55 230.329 20.6167 230.329 22.25C230.329 23.45 229.879 24.375 228.979 25.025C228.079 25.675 226.746 26 224.979 26H218.179V12.65H224.704C226.337 12.65 227.612 12.95 228.529 13.55C229.446 14.15 229.904 15 229.904 16.1C229.904 16.7833 229.721 17.375 229.354 17.875C229.004 18.375 228.504 18.7667 227.854 19.05ZM221.154 18.225H224.429C226.046 18.225 226.854 17.6667 226.854 16.55C226.854 15.4667 226.046 14.925 224.429 14.925H221.154V18.225ZM224.729 23.725C226.446 23.725 227.304 23.1667 227.304 22.05C227.304 21.4667 227.104 21.0333 226.704 20.75C226.304 20.45 225.679 20.3 224.829 20.3H221.154V23.725H224.729ZM239.208 20.65H236.783V26H233.658V12.65H236.783V18.05H239.283L243.233 12.65H246.583L241.733 19.075L246.908 26H243.233L239.208 20.65ZM253.843 12.5C255.809 12.5 257.309 12.975 258.343 13.925C259.393 14.8583 259.918 16.275 259.918 18.175V26H256.968V24.375C256.584 24.9583 256.034 25.4083 255.318 25.725C254.618 26.025 253.768 26.175 252.768 26.175C251.768 26.175 250.893 26.0083 250.143 25.675C249.393 25.325 248.809 24.85 248.393 24.25C247.993 23.6333 247.793 22.9417 247.793 22.175C247.793 20.975 248.234 20.0167 249.118 19.3C250.018 18.5667 251.426 18.2 253.343 18.2H256.793V18C256.793 17.0667 256.509 16.35 255.943 15.85C255.393 15.35 254.568 15.1 253.468 15.1C252.718 15.1 251.976 15.2167 251.243 15.45C250.526 15.6833 249.918 16.0083 249.418 16.425L248.193 14.15C248.893 13.6167 249.734 13.2083 250.718 12.925C251.701 12.6417 252.743 12.5 253.843 12.5ZM253.418 23.9C254.201 23.9 254.893 23.725 255.493 23.375C256.109 23.0083 256.543 22.4917 256.793 21.825V20.275H253.568C251.768 20.275 250.868 20.8667 250.868 22.05C250.868 22.6167 251.093 23.0667 251.543 23.4C251.993 23.7333 252.618 23.9 253.418 23.9ZM134.358 53.35V58.975H131.433V56H121.133V58.975H118.233V53.35H118.858C119.708 53.3167 120.283 52.775 120.583 51.725C120.899 50.6583 121.108 49.1583 121.208 47.225L121.383 42.65H132.383V53.35H134.358ZM124.058 47.45C123.991 48.9833 123.866 50.2333 123.683 51.2C123.499 52.1667 123.166 52.8833 122.683 53.35H129.258V45.3H124.133L124.058 47.45ZM149.649 49.4C149.649 49.6167 149.632 49.925 149.599 50.325H139.124C139.307 51.3083 139.782 52.0917 140.549 52.675C141.332 53.2417 142.299 53.525 143.449 53.525C144.915 53.525 146.124 53.0417 147.074 52.075L148.749 54C148.149 54.7167 147.39 55.2583 146.474 55.625C145.557 55.9917 144.524 56.175 143.374 56.175C141.907 56.175 140.615 55.8833 139.499 55.3C138.382 54.7167 137.515 53.9083 136.899 52.875C136.299 51.825 135.999 50.6417 135.999 49.325C135.999 48.025 136.29 46.8583 136.874 45.825C137.474 44.775 138.299 43.9583 139.349 43.375C140.399 42.7917 141.582 42.5 142.899 42.5C144.199 42.5 145.357 42.7917 146.374 43.375C147.407 43.9417 148.207 44.75 148.774 45.8C149.357 46.8333 149.649 48.0333 149.649 49.4ZM142.899 45C141.899 45 141.049 45.3 140.349 45.9C139.665 46.4833 139.249 47.2667 139.099 48.25H146.674C146.54 47.2833 146.132 46.5 145.449 45.9C144.765 45.3 143.915 45 142.899 45ZM153.067 42.65H156.192V48.075H162.917V42.65H166.042V56H162.917V50.725H156.192V56H153.067V42.65ZM176.93 47.05C178.63 47.05 179.93 47.4333 180.83 48.2C181.747 48.9667 182.205 50.05 182.205 51.45C182.205 52.9167 181.705 54.05 180.705 54.85C179.705 55.65 178.297 56.0417 176.48 56.025L170.23 56V42.65H173.355V47.025L176.93 47.05ZM176.205 53.725C177.122 53.7417 177.822 53.55 178.305 53.15C178.788 52.75 179.03 52.1667 179.03 51.4C179.03 50.65 178.797 50.1 178.33 49.75C177.863 49.4 177.155 49.2167 176.205 49.2L173.355 49.175V53.7L176.205 53.725ZM201.536 49.05C203.186 49.55 204.011 50.6167 204.011 52.25C204.011 53.45 203.561 54.375 202.661 55.025C201.761 55.675 200.427 56 198.661 56H191.861V42.65H198.386C200.019 42.65 201.294 42.95 202.211 43.55C203.127 44.15 203.586 45 203.586 46.1C203.586 46.7833 203.402 47.375 203.036 47.875C202.686 48.375 202.186 48.7667 201.536 49.05ZM194.836 48.225H198.111C199.727 48.225 200.536 47.6667 200.536 46.55C200.536 45.4667 199.727 44.925 198.111 44.925H194.836V48.225ZM198.411 53.725C200.127 53.725 200.986 53.1667 200.986 52.05C200.986 51.4667 200.786 51.0333 200.386 50.75C199.986 50.45 199.361 50.3 198.511 50.3H194.836V53.725H198.411ZM228.498 53.35V58.975H225.573V56H215.273V58.975H212.373V53.35H212.998C213.848 53.3167 214.423 52.775 214.723 51.725C215.04 50.6583 215.248 49.1583 215.348 47.225L215.523 42.65H226.523V53.35H228.498ZM218.198 47.45C218.132 48.9833 218.007 50.2333 217.823 51.2C217.64 52.1667 217.307 52.8833 216.823 53.35H223.398V45.3H218.273L218.198 47.45ZM243.789 49.4C243.789 49.6167 243.773 49.925 243.739 50.325H233.264C233.448 51.3083 233.923 52.0917 234.689 52.675C235.473 53.2417 236.439 53.525 237.589 53.525C239.056 53.525 240.264 53.0417 241.214 52.075L242.889 54C242.289 54.7167 241.531 55.2583 240.614 55.625C239.698 55.9917 238.664 56.175 237.514 56.175C236.048 56.175 234.756 55.8833 233.639 55.3C232.523 54.7167 231.656 53.9083 231.039 52.875C230.439 51.825 230.139 50.6417 230.139 49.325C230.139 48.025 230.431 46.8583 231.014 45.825C231.614 44.775 232.439 43.9583 233.489 43.375C234.539 42.7917 235.723 42.5 237.039 42.5C238.339 42.5 239.498 42.7917 240.514 43.375C241.548 43.9417 242.348 44.75 242.914 45.8C243.498 46.8333 243.789 48.0333 243.789 49.4ZM237.039 45C236.039 45 235.189 45.3 234.489 45.9C233.806 46.4833 233.389 47.2667 233.239 48.25H240.814C240.681 47.2833 240.273 46.5 239.589 45.9C238.906 45.3 238.056 45 237.039 45ZM247.207 42.65H250.332V48.075H257.057V42.65H260.182V56H257.057V50.725H250.332V56H247.207V42.65ZM271.071 47.05C272.771 47.05 274.071 47.4333 274.971 48.2C275.887 48.9667 276.346 50.05 276.346 51.45C276.346 52.9167 275.846 54.05 274.846 54.85C273.846 55.65 272.437 56.0417 270.621 56.025L264.371 56V42.65H267.496V47.025L271.071 47.05ZM270.346 53.725C271.262 53.7417 271.962 53.55 272.446 53.15C272.929 52.75 273.171 52.1667 273.171 51.4C273.171 50.65 272.937 50.1 272.471 49.75C272.004 49.4 271.296 49.2167 270.346 49.2L267.496 49.175V53.7L270.346 53.725Z" fill="#1F1F1F"/>
<path d="M122.5 81.8V93H121.332V82.824H114.244V93H113.076V81.8H122.5ZM130.471 81.8C131.9 81.8 133.02 82.1413 133.831 82.824C134.641 83.5067 135.047 84.4453 135.047 85.64C135.047 86.8347 134.641 87.7733 133.831 88.456C133.02 89.128 131.9 89.464 130.471 89.464H127.463V93H126.279V81.8H130.471ZM130.439 88.424C131.548 88.424 132.396 88.184 132.983 87.704C133.569 87.2133 133.863 86.5253 133.863 85.64C133.863 84.7333 133.569 84.04 132.983 83.56C132.396 83.0693 131.548 82.824 130.439 82.824H127.463V88.424H130.439ZM137.482 81.8H138.65V91.08L145.818 81.8H146.89V93H145.722V83.736L138.554 93H137.482V81.8ZM159.721 87.144C160.457 87.3253 161.033 87.656 161.449 88.136C161.875 88.616 162.089 89.192 162.089 89.864C162.089 90.5147 161.886 91.0853 161.481 91.576C161.075 92.0667 160.537 92.4453 159.865 92.712C159.193 92.968 158.462 93.096 157.673 93.096C156.926 93.096 156.19 92.9787 155.465 92.744C154.75 92.4987 154.105 92.136 153.529 91.656L153.961 90.808C154.451 91.224 155.011 91.544 155.641 91.768C156.27 91.9813 156.905 92.088 157.545 92.088C158.153 92.088 158.713 91.992 159.225 91.8C159.737 91.608 160.142 91.336 160.441 90.984C160.75 90.6213 160.905 90.1947 160.905 89.704C160.905 89.0533 160.649 88.552 160.137 88.2C159.625 87.848 158.905 87.672 157.977 87.672H155.577V86.712H157.913C158.702 86.712 159.315 86.5467 159.753 86.216C160.201 85.8747 160.425 85.4053 160.425 84.808C160.425 84.1467 160.142 83.6293 159.577 83.256C159.011 82.872 158.302 82.68 157.449 82.68C156.915 82.68 156.377 82.76 155.833 82.92C155.289 83.0693 154.771 83.2987 154.281 83.608L153.881 82.632C154.99 81.9707 156.19 81.64 157.481 81.64C158.238 81.64 158.931 81.7627 159.561 82.008C160.19 82.2533 160.686 82.6053 161.049 83.064C161.422 83.5227 161.609 84.0613 161.609 84.68C161.609 85.2773 161.443 85.7947 161.113 86.232C160.782 86.6587 160.318 86.9627 159.721 87.144ZM172.197 90.008H165.957L164.613 93H163.381L168.501 81.8H169.669L174.789 93H173.541L172.197 90.008ZM171.765 89.048L169.077 83.032L166.389 89.048H171.765ZM180.647 87.864H178.087V93H176.935V81.8H178.087V86.824H180.647L184.439 81.8H185.719L181.559 87.24L185.959 93H184.599L180.647 87.864ZM194.822 90.008H188.582L187.238 93H186.006L191.126 81.8H192.294L197.414 93H196.166L194.822 90.008ZM194.39 89.048L191.702 83.032L189.014 89.048H194.39ZM204.424 87.144C205.16 87.3253 205.736 87.656 206.152 88.136C206.579 88.616 206.792 89.192 206.792 89.864C206.792 90.5147 206.589 91.0853 206.184 91.576C205.779 92.0667 205.24 92.4453 204.568 92.712C203.896 92.968 203.165 93.096 202.376 93.096C201.629 93.096 200.893 92.9787 200.168 92.744C199.453 92.4987 198.808 92.136 198.232 91.656L198.664 90.808C199.155 91.224 199.715 91.544 200.344 91.768C200.973 91.9813 201.608 92.088 202.248 92.088C202.856 92.088 203.416 91.992 203.928 91.8C204.44 91.608 204.845 91.336 205.144 90.984C205.453 90.6213 205.608 90.1947 205.608 89.704C205.608 89.0533 205.352 88.552 204.84 88.2C204.328 87.848 203.608 87.672 202.68 87.672H200.28V86.712H202.616C203.405 86.712 204.019 86.5467 204.456 86.216C204.904 85.8747 205.128 85.4053 205.128 84.808C205.128 84.1467 204.845 83.6293 204.28 83.256C203.715 82.872 203.005 82.68 202.152 82.68C201.619 82.68 201.08 82.76 200.536 82.92C199.992 83.0693 199.475 83.2987 198.984 83.608L198.584 82.632C199.693 81.9707 200.893 81.64 202.184 81.64C202.941 81.64 203.635 81.7627 204.264 82.008C204.893 82.2533 205.389 82.6053 205.752 83.064C206.125 83.5227 206.312 84.0613 206.312 84.68C206.312 85.2773 206.147 85.7947 205.816 86.232C205.485 86.6587 205.021 86.9627 204.424 87.144ZM217.652 91.976V93H209.732V81.8H217.412V82.824H210.916V86.808H216.708V87.816H210.916V91.976H217.652ZM234.754 91.976V95.512H233.65V93H223.874L223.858 95.512H222.754L222.77 91.976H223.33C224.066 91.9333 224.578 91.352 224.866 90.232C225.154 89.1013 225.33 87.5013 225.394 85.432L225.522 81.8H233.074V91.976H234.754ZM226.45 85.544C226.397 87.2507 226.263 88.6587 226.05 89.768C225.847 90.8667 225.501 91.6027 225.01 91.976H231.906V82.824H226.546L226.45 85.544ZM242.081 93.096C240.972 93.096 239.964 92.8507 239.057 92.36C238.161 91.8587 237.457 91.176 236.945 90.312C236.444 89.448 236.193 88.4773 236.193 87.4C236.193 86.3227 236.444 85.352 236.945 84.488C237.457 83.624 238.161 82.9467 239.057 82.456C239.964 81.9547 240.972 81.704 242.081 81.704C243.191 81.704 244.188 81.9493 245.073 82.44C245.969 82.9307 246.673 83.6133 247.185 84.488C247.697 85.352 247.953 86.3227 247.953 87.4C247.953 88.4773 247.697 89.4533 247.185 90.328C246.673 91.192 245.969 91.8693 245.073 92.36C244.188 92.8507 243.191 93.096 242.081 93.096ZM242.081 92.04C242.967 92.04 243.767 91.8427 244.481 91.448C245.196 91.0427 245.756 90.488 246.161 89.784C246.567 89.0693 246.769 88.2747 246.769 87.4C246.769 86.5253 246.567 85.736 246.161 85.032C245.756 84.3173 245.196 83.7627 244.481 83.368C243.767 82.9627 242.967 82.76 242.081 82.76C241.196 82.76 240.391 82.9627 239.665 83.368C238.951 83.7627 238.385 84.3173 237.969 85.032C237.564 85.736 237.361 86.5253 237.361 87.4C237.361 88.2747 237.564 89.0693 237.969 89.784C238.385 90.488 238.951 91.0427 239.665 91.448C240.391 91.8427 241.196 92.04 242.081 92.04ZM257.014 81.8V93H255.862V82.824H253.222V81.8H257.014ZM266.107 87.128C266.811 87.3627 267.35 87.7147 267.723 88.184C268.107 88.6533 268.299 89.2187 268.299 89.88C268.299 90.5307 268.123 91.1013 267.771 91.592C267.419 92.072 266.913 92.4453 266.251 92.712C265.601 92.968 264.833 93.096 263.947 93.096C262.603 93.096 261.547 92.808 260.779 92.232C260.011 91.656 259.627 90.872 259.627 89.88C259.627 89.208 259.809 88.6427 260.171 88.184C260.545 87.7147 261.083 87.3627 261.787 87.128C261.211 86.904 260.774 86.584 260.475 86.168C260.177 85.7413 260.027 85.24 260.027 84.664C260.027 83.7573 260.379 83.0373 261.083 82.504C261.798 81.9707 262.753 81.704 263.947 81.704C264.737 81.704 265.425 81.8267 266.011 82.072C266.609 82.3067 267.073 82.648 267.403 83.096C267.734 83.544 267.899 84.0667 267.899 84.664C267.899 85.24 267.745 85.7413 267.435 86.168C267.126 86.584 266.683 86.904 266.107 87.128ZM261.179 84.696C261.179 85.3147 261.425 85.8053 261.915 86.168C262.406 86.5307 263.083 86.712 263.947 86.712C264.811 86.712 265.489 86.5307 265.979 86.168C266.481 85.8053 266.731 85.32 266.731 84.712C266.731 84.0827 266.475 83.5867 265.963 83.224C265.462 82.8613 264.79 82.68 263.947 82.68C263.094 82.68 262.417 82.8613 261.915 83.224C261.425 83.5867 261.179 84.0773 261.179 84.696ZM263.947 92.12C264.939 92.12 265.713 91.9173 266.267 91.512C266.833 91.1067 267.115 90.5573 267.115 89.864C267.115 89.1707 266.833 88.6267 266.267 88.232C265.713 87.8267 264.939 87.624 263.947 87.624C262.966 87.624 262.193 87.8267 261.627 88.232C261.073 88.6267 260.795 89.1707 260.795 89.864C260.795 90.568 261.073 91.1227 261.627 91.528C262.182 91.9227 262.955 92.12 263.947 92.12ZM272.503 87.832C271.628 87.832 270.919 87.528 270.375 86.92C269.841 86.3013 269.575 85.4747 269.575 84.44C269.575 83.4053 269.841 82.584 270.375 81.976C270.919 81.368 271.628 81.064 272.503 81.064C273.377 81.064 274.081 81.368 274.615 81.976C275.159 82.584 275.431 83.4053 275.431 84.44C275.431 85.4747 275.159 86.3013 274.615 86.92C274.081 87.528 273.377 87.832 272.503 87.832ZM272.503 87.096C273.121 87.096 273.623 86.8613 274.007 86.392C274.391 85.9227 274.583 85.272 274.583 84.44C274.583 83.608 274.391 82.9627 274.007 82.504C273.623 82.0347 273.121 81.8 272.503 81.8C271.884 81.8 271.383 82.0347 270.999 82.504C270.615 82.9627 270.423 83.608 270.423 84.44C270.423 85.272 270.615 85.9227 270.999 86.392C271.383 86.8613 271.884 87.096 272.503 87.096ZM279.378 87.832C278.503 87.832 277.794 87.528 277.25 86.92C276.716 86.3013 276.45 85.4747 276.45 84.44C276.45 83.4053 276.716 82.584 277.25 81.976C277.794 81.368 278.503 81.064 279.378 81.064C280.252 81.064 280.956 81.368 281.49 81.976C282.034 82.584 282.306 83.4053 282.306 84.44C282.306 85.4747 282.034 86.3013 281.49 86.92C280.956 87.528 280.252 87.832 279.378 87.832ZM279.378 87.096C279.996 87.096 280.498 86.8613 280.882 86.392C281.266 85.9227 281.458 85.272 281.458 84.44C281.458 83.608 281.266 82.9627 280.882 82.504C280.498 82.0347 279.996 81.8 279.378 81.8C278.759 81.8 278.258 82.0347 277.874 82.504C277.49 82.9627 277.298 83.608 277.298 84.44C277.298 85.272 277.49 85.9227 277.874 86.392C278.258 86.8613 278.759 87.096 279.378 87.096Z" fill="#1F1F1F"/>
</svg>
